<?xml version="1.0" encoding="UTF-8" standalone="no"?>
<!DOCTYPE svg PUBLIC "-//W3C//DTD SVG 1.1//EN" "http://www.w3.org/Graphics/SVG/1.1/DTD/svg11.dtd">
<!-- Generated by Microsoft Visio, SVG Export double.svg Page-1 -->
<svg xmlns="http://www.w3.org/2000/svg" xmlns:xlink="http://www.w3.org/1999/xlink" xmlns:ev="http://www.w3.org/2001/xml-events"
		xmlns:v="http://schemas.microsoft.com/visio/2003/SVGExtensions/" width="7.47403in" height="4.10603in"
		viewBox="0 0 538.13 295.634" xml:space="preserve" color-interpolation-filters="sRGB" class="st8">
	<v:documentProperties v:langID="1036" v:metric="true" v:viewMarkup="false">
		<v:userDefs>
			<v:ud v:nameU="msvSubprocessMaster" v:prompt="" v:val="VT4(Rectangle)"/>
			<v:ud v:nameU="msvNoAutoConnect" v:val="VT0(1):26"/>
		</v:userDefs>
	</v:documentProperties>

	<style type="text/css">
	<![CDATA[
		.st1 {fill:#ffffff;stroke:#000000;stroke-linecap:round;stroke-linejoin:round;stroke-width:0.75}
		.st2 {fill:#000000;stroke:#000000;stroke-linecap:round;stroke-linejoin:round;stroke-width:0.75}
		.st3 {fill:#000000;font-family:Calibri;font-size:0.833336em}
		.st4 {stroke:#000000;stroke-linecap:round;stroke-linejoin:round;stroke-width:0.237638}
		.st5 {marker-end:url(#mrkr4-71);stroke:#000000;stroke-linecap:round;stroke-linejoin:round;stroke-width:0.237638}
		.st6 {fill:#000000;fill-opacity:1;stroke:#000000;stroke-opacity:1;stroke-width:0.086174404659928}
		.st7 {marker-end:url(#);stroke:#000000;stroke-linecap:round;stroke-linejoin:round;stroke-width:0.237638}
		.st8 {fill:none;fill-rule:evenodd;font-size:12px;overflow:visible;stroke-linecap:square;stroke-miterlimit:3}
	]]>
	</style>

	<defs id="Markers">
		<g id="lend4">
			<path d="M 2 1 L 0 0 L 2 -1 L 2 1 " style="stroke:none"/>
		</g>
		<marker id="mrkr4-71" class="st6" v:arrowType="4" v:arrowSize="2" v:setback="23.2087" refX="-23.208747514911" orient="auto"
				markerUnits="strokeWidth" overflow="visible">
			<use xlink:href="#lend4" transform="scale(-11.604373757455,-11.604373757455) "/>
		</marker>
	</defs>
	<g v:mID="0" v:index="1" v:groupContext="foregroundPage">
		<v:userDefs>
			<v:ud v:nameU="msvThemeOrder" v:val="VT0(0):26"/>
		</v:userDefs>
		<title>Page 1</title>
		<v:pageProperties v:drawingScale="0.0393701" v:pageScale="0.0393701" v:drawingUnits="24" v:shadowOffsetX="8.50394"
				v:shadowOffsetY="-8.50394"/>
		<v:layer v:name="Diagramme de flux" v:index="0"/>
		<v:layer v:name="Lien" v:index="1"/>
		<g id="group121-1" transform="translate(151.251,-184.588)" v:mID="121" v:groupContext="group">
			<title>Sheet.121</title>
			<g id="shape67-2" v:mID="67" v:groupContext="shape">
				<title>Carré.67</title>
				<v:userDefs>
					<v:ud v:nameU="visVersion" v:val="VT0(15):26"/>
				</v:userDefs>
				<rect x="0" y="267.288" width="28.3465" height="28.3465" class="st1"/>
			</g>
			<g id="shape83-4" v:mID="83" v:groupContext="shape" transform="translate(10.6299,-10.6299)">
				<title>Cercle</title>
				<v:userDefs>
					<v:ud v:nameU="visVersion" v:val="VT0(15):26"/>
				</v:userDefs>
				<path d="M0 292.09 A3.54331 3.54331 0 0 1 7.09 292.09 A3.54331 3.54331 0 1 1 0 292.09 Z" class="st2"/>
			</g>
		</g>
		<g id="shape66-6" v:mID="66" v:groupContext="shape" transform="translate(122.905,-184.588)">
			<title>Carré</title>
			<desc>12</desc>
			<v:userDefs>
				<v:ud v:nameU="visVersion" v:val="VT0(15):26"/>
			</v:userDefs>
			<v:textBlock v:margins="rect(4,4,4,4)" v:tabSpace="42.5197"/>
			<v:textRect cx="14.1732" cy="281.461" width="28.35" height="28.3465"/>
			<rect x="0" y="267.288" width="28.3465" height="28.3465" class="st1"/>
			<text x="9.1" y="284.46" class="st3" v:langID="1033"><v:paragraph v:horizAlign="1"/><v:tabList/>12</text>		</g>
		<g id="shape68-9" v:mID="68" v:groupContext="shape" transform="translate(200.858,-89.0331)">
			<title>Carré.68</title>
			<desc>6</desc>
			<v:userDefs>
				<v:ud v:nameU="visVersion" v:val="VT0(15):26"/>
			</v:userDefs>
			<v:textBlock v:margins="rect(4,4,4,4)" v:tabSpace="42.5197"/>
			<v:textRect cx="14.1732" cy="281.461" width="28.35" height="28.3465"/>
			<rect x="0" y="267.288" width="28.3465" height="28.3465" class="st1"/>
			<text x="11.64" y="284.46" class="st3" v:langID="1033"><v:paragraph v:horizAlign="1"/><v:tabList/>6</text>		</g>
		<g id="shape69-12" v:mID="69" v:groupContext="shape" transform="translate(229.204,-89.0331)">
			<title>Carré.69</title>
			<v:userDefs>
				<v:ud v:nameU="visVersion" v:val="VT0(15):26"/>
			</v:userDefs>
			<rect x="0" y="267.288" width="28.3465" height="28.3465" class="st1"/>
		</g>
		<g id="shape70-14" v:mID="70" v:groupContext="shape" transform="translate(87.4719,-110.293)">
			<title>Carré.70</title>
			<desc>24</desc>
			<v:userDefs>
				<v:ud v:nameU="visVersion" v:val="VT0(15):26"/>
			</v:userDefs>
			<v:textBlock v:margins="rect(4,4,4,4)" v:tabSpace="42.5197"/>
			<v:textRect cx="14.1732" cy="281.461" width="28.35" height="28.3465"/>
			<rect x="0" y="267.288" width="28.3465" height="28.3465" class="st1"/>
			<text x="9.1" y="284.46" class="st3" v:langID="1033"><v:paragraph v:horizAlign="1"/><v:tabList/>24</text>		</g>
		<g id="shape71-17" v:mID="71" v:groupContext="shape" transform="translate(115.818,-110.293)">
			<title>Carré.71</title>
			<v:userDefs>
				<v:ud v:nameU="visVersion" v:val="VT0(15):26"/>
			</v:userDefs>
			<rect x="0" y="267.288" width="28.3465" height="28.3465" class="st1"/>
		</g>
		<g id="shape72-19" v:mID="72" v:groupContext="shape" transform="translate(254.122,-230.765)">
			<title>Carré.72</title>
			<desc>22</desc>
			<v:userDefs>
				<v:ud v:nameU="visVersion" v:val="VT0(15):26"/>
			</v:userDefs>
			<v:textBlock v:margins="rect(4,4,4,4)" v:tabSpace="42.5197"/>
			<v:textRect cx="14.1732" cy="281.461" width="28.35" height="28.3465"/>
			<rect x="0" y="267.288" width="28.3465" height="28.3465" class="st1"/>
			<text x="9.1" y="284.46" class="st3" v:langID="1033"><v:paragraph v:horizAlign="1"/><v:tabList/>22</text>		</g>
		<g id="shape73-22" v:mID="73" v:groupContext="shape" transform="translate(282.468,-230.765)">
			<title>Carré.73</title>
			<v:userDefs>
				<v:ud v:nameU="visVersion" v:val="VT0(15):26"/>
			</v:userDefs>
			<rect x="0" y="267.288" width="28.3465" height="28.3465" class="st1"/>
		</g>
		<g id="shape74-24" v:mID="74" v:groupContext="shape" transform="translate(278.81,-155.784)">
			<title>Carré.74</title>
			<desc>42</desc>
			<v:userDefs>
				<v:ud v:nameU="visVersion" v:val="VT0(15):26"/>
			</v:userDefs>
			<v:textBlock v:margins="rect(4,4,4,4)" v:tabSpace="42.5197"/>
			<v:textRect cx="14.1732" cy="281.461" width="28.35" height="28.3465"/>
			<rect x="0" y="267.288" width="28.3465" height="28.3465" class="st1"/>
			<text x="9.1" y="284.46" class="st3" v:langID="1033"><v:paragraph v:horizAlign="1"/><v:tabList/>42</text>		</g>
		<g id="shape75-27" v:mID="75" v:groupContext="shape" transform="translate(307.157,-155.784)">
			<title>Carré.75</title>
			<v:userDefs>
				<v:ud v:nameU="visVersion" v:val="VT0(15):26"/>
			</v:userDefs>
			<rect x="0" y="267.288" width="28.3465" height="28.3465" class="st1"/>
		</g>
		<g id="shape76-29" v:mID="76" v:groupContext="shape" transform="translate(314.244,-50.171)">
			<title>Carré.76</title>
			<desc>99</desc>
			<v:userDefs>
				<v:ud v:nameU="visVersion" v:val="VT0(15):26"/>
			</v:userDefs>
			<v:textBlock v:margins="rect(4,4,4,4)" v:tabSpace="42.5197"/>
			<v:textRect cx="14.1732" cy="281.461" width="28.35" height="28.3465"/>
			<rect x="0" y="267.288" width="28.3465" height="28.3465" class="st1"/>
			<text x="9.1" y="284.46" class="st3" v:langID="1033"><v:paragraph v:horizAlign="1"/><v:tabList/>99</text>		</g>
		<g id="shape77-32" v:mID="77" v:groupContext="shape" transform="translate(342.59,-50.171)">
			<title>Carré.77</title>
			<v:userDefs>
				<v:ud v:nameU="visVersion" v:val="VT0(15):26"/>
			</v:userDefs>
			<rect x="0" y="267.288" width="28.3465" height="28.3465" class="st1"/>
		</g>
		<g id="shape78-34" v:mID="78" v:groupContext="shape" transform="translate(414.093,-202.419)">
			<title>Carré.78</title>
			<desc>15</desc>
			<v:userDefs>
				<v:ud v:nameU="visVersion" v:val="VT0(15):26"/>
			</v:userDefs>
			<v:textBlock v:margins="rect(4,4,4,4)" v:tabSpace="42.5197"/>
			<v:textRect cx="14.1732" cy="281.461" width="28.35" height="28.3465"/>
			<rect x="0" y="267.288" width="28.3465" height="28.3465" class="st1"/>
			<text x="9.1" y="284.46" class="st3" v:langID="1033"><v:paragraph v:horizAlign="1"/><v:tabList/>15</text>		</g>
		<g id="shape79-37" v:mID="79" v:groupContext="shape" transform="translate(442.44,-202.419)">
			<title>Carré.79</title>
			<v:userDefs>
				<v:ud v:nameU="visVersion" v:val="VT0(15):26"/>
			</v:userDefs>
			<rect x="0" y="267.288" width="28.3465" height="28.3465" class="st1"/>
		</g>
		<g id="shape80-39" v:mID="80" v:groupContext="shape" transform="translate(442.44,-110.293)">
			<title>Carré.80</title>
			<desc>3</desc>
			<v:userDefs>
				<v:ud v:nameU="visVersion" v:val="VT0(15):26"/>
			</v:userDefs>
			<v:textBlock v:margins="rect(4,4,4,4)" v:tabSpace="42.5197"/>
			<v:textRect cx="14.1732" cy="281.461" width="28.35" height="28.3465"/>
			<rect x="0" y="267.288" width="28.3465" height="28.3465" class="st1"/>
			<text x="11.64" y="284.46" class="st3" v:langID="1033"><v:paragraph v:horizAlign="1"/><v:tabList/>3</text>		</g>
		<g id="shape81-42" v:mID="81" v:groupContext="shape" transform="translate(470.786,-110.293)">
			<title>Carré.81</title>
			<v:userDefs>
				<v:ud v:nameU="visVersion" v:val="VT0(15):26"/>
			</v:userDefs>
			<rect x="0" y="267.288" width="28.3465" height="28.3465" class="st1"/>
		</g>
		<g id="shape86-44" v:mID="86" v:groupContext="shape" transform="translate(293.098,-241.395)">
			<title>Cercle.86</title>
			<v:userDefs>
				<v:ud v:nameU="visVersion" v:val="VT0(15):26"/>
			</v:userDefs>
			<path d="M0 292.09 A3.54331 3.54331 0 0 1 7.09 292.09 A3.54331 3.54331 0 1 1 0 292.09 Z" class="st2"/>
		</g>
		<g id="shape87-46" v:mID="87" v:groupContext="shape" transform="translate(126.448,-120.923)">
			<title>Cercle.87</title>
			<v:userDefs>
				<v:ud v:nameU="visVersion" v:val="VT0(15):26"/>
			</v:userDefs>
			<path d="M0 292.09 A3.54331 3.54331 0 0 1 7.09 292.09 A3.54331 3.54331 0 1 1 0 292.09 Z" class="st2"/>
		</g>
		<g id="shape88-48" v:mID="88" v:groupContext="shape" transform="translate(491.409,-164.014)">
			<title>Carré.88</title>
			<v:userDefs>
				<v:ud v:nameU="visVersion" v:val="VT0(15):26"/>
			</v:userDefs>
			<rect x="0" y="267.288" width="28.3465" height="28.3465" class="st1"/>
		</g>
		<g id="shape89-50" v:mID="89" v:groupContext="shape" transform="translate(700.454,-105.771) rotate(45)">
			<title>Sheet.89</title>
			<path d="M0 295.63 L40.09 295.63" class="st4"/>
		</g>
		<g id="shape90-53" v:mID="90" v:groupContext="shape" transform="translate(728.8,312.319) rotate(135)">
			<title>Sheet.90</title>
			<path d="M0 295.63 L40.09 295.63" class="st4"/>
		</g>
		<g id="shape91-56" v:mID="91" v:groupContext="shape" transform="translate(239.834,-99.663)">
			<title>Cercle.91</title>
			<v:userDefs>
				<v:ud v:nameU="visVersion" v:val="VT0(15):26"/>
			</v:userDefs>
			<path d="M0 292.09 A3.54331 3.54331 0 0 1 7.09 292.09 A3.54331 3.54331 0 1 1 0 292.09 Z" class="st2"/>
		</g>
		<g id="shape92-58" v:mID="92" v:groupContext="shape" transform="translate(317.787,-166.414)">
			<title>Cercle.92</title>
			<v:userDefs>
				<v:ud v:nameU="visVersion" v:val="VT0(15):26"/>
			</v:userDefs>
			<path d="M0 292.09 A3.54331 3.54331 0 0 1 7.09 292.09 A3.54331 3.54331 0 1 1 0 292.09 Z" class="st2"/>
		</g>
		<g id="shape93-60" v:mID="93" v:groupContext="shape" transform="translate(453.069,-213.049)">
			<title>Cercle.93</title>
			<v:userDefs>
				<v:ud v:nameU="visVersion" v:val="VT0(15):26"/>
			</v:userDefs>
			<path d="M0 292.09 A3.54331 3.54331 0 0 1 7.09 292.09 A3.54331 3.54331 0 1 1 0 292.09 Z" class="st2"/>
		</g>
		<g id="shape94-62" v:mID="94" v:groupContext="shape" transform="translate(481.416,-120.923)">
			<title>Cercle.94</title>
			<v:userDefs>
				<v:ud v:nameU="visVersion" v:val="VT0(15):26"/>
			</v:userDefs>
			<path d="M0 292.09 A3.54331 3.54331 0 0 1 7.09 292.09 A3.54331 3.54331 0 1 1 0 292.09 Z" class="st2"/>
		</g>
		<g id="shape95-64" v:mID="95" v:groupContext="shape" transform="translate(353.22,-60.8009)">
			<title>Cercle.95</title>
			<v:userDefs>
				<v:ud v:nameU="visVersion" v:val="VT0(15):26"/>
			</v:userDefs>
			<path d="M0 292.09 A3.54331 3.54331 0 0 1 7.09 292.09 A3.54331 3.54331 0 1 1 0 292.09 Z" class="st2"/>
		</g>
		<g id="shape98-66" v:mID="98" v:groupContext="shape" v:layerMember="1" transform="translate(165.425,-198.761)">
			<title>Lien dynamique</title>
			<path d="M0 295.63 L24.73 295.63 A11.3386 11.3386 -180 0 0 36.07 284.3 L36.07 260.8 A11.3386 11.3386 0 0 1 47.41 249.46
						 L55.02 249.46" class="st5"/>
		</g>
		<g id="shape99-72" v:mID="99" v:groupContext="shape" v:layerMember="1" transform="translate(296.641,-244.939)">
			<title>Lien dynamique.99</title>
			<path d="M0 295.63 L0 314.3 A11.3386 11.3386 0 0 1 -11.34 325.63 L-65.75 325.63 A11.3386 11.3386 -180 0 0 -77.09 336.97
						 L-77.09 359.28 A11.3386 11.3386 -180 0 0 -65.75 370.62 L-51.51 370.62" class="st5"/>
		</g>
		<g id="shape100-77" v:mID="100" v:groupContext="shape" v:layerMember="1" transform="translate(321.33,-169.958)">
			<title>Lien dynamique.100</title>
			<path d="M0 295.63 L0 334.13 A9.13033 9.13033 0 0 1 -9.13 343.26 L-18.26 343.26" class="st4"/>
			<path d="M-22.99 343.26 L-40.6 343.26 A11.3386 11.3386 -180 0 0 -51.94 354.6 L-51.94 392.68 A8.57252 8.57252 -180 0 0
						 -43.37 401.25 L-40.31 401.25" class="st7"/>
		</g>
		<g id="shape101-83" v:mID="101" v:groupContext="shape" v:layerMember="1" transform="translate(360.307,-64.3442)">
			<title>Lien dynamique.101</title>
			<path d="M0 295.63 L11.23 295.63 A11.2342 11.2342 -180 0 0 22.47 284.4 L22.47 246.85 A11.3386 11.3386 0 0 1 33.81 235.51
						 L48.73 235.51" class="st5"/>
		</g>
		<g id="shape102-88" v:mID="102" v:groupContext="shape" v:layerMember="1" transform="translate(484.959,-117.38)">
			<title>Lien dynamique.102</title>
			<path d="M0 288.55 L0 374.88 A11.3386 11.3386 0 0 1 -11.34 386.21 L-442.2 386.21 A11.3386 11.3386 0 0 1 -453.54 374.88
						 L-453.54 299.89 A11.3386 11.3386 0 0 1 -442.2 288.55 L-430.71 288.55" class="st5"/>
		</g>
		<g id="shape103-93" v:mID="103" v:groupContext="shape" v:layerMember="1" transform="translate(129.992,-124.466)">
			<title>Lien dynamique.103</title>
			<path d="M0 295.63 L0 306.26 A10.6299 10.6299 -180 0 0 10.63 316.89 L37 316.89" class="st5"/>
		</g>
		<g id="shape104-98" v:mID="104" v:groupContext="shape" v:layerMember="1" transform="translate(243.377,-103.206)">
			<title>Lien dynamique.104</title>
			<path d="M0 295.63 L23.65 295.63" class="st4"/>
			<path d="M28.37 295.63 L54.97 295.63" class="st4"/>
			<path d="M59.69 295.63 L99.85 295.63 A11.3386 11.3386 -180 0 0 111.19 284.3 L111.19 193.59 A11.3386 11.3386 0 0 1 122.53
						 182.25 L137.31 182.25" class="st7"/>
		</g>
		<g id="shape105-105" v:mID="105" v:groupContext="shape" v:layerMember="1" transform="translate(456.613,-216.592)">
			<title>Lien dynamique.105</title>
			<path d="M0 295.63 L0 322.7 A11.3386 11.3386 -180 0 0 11.34 334.04 L29.28 334.04" class="st5"/>
		</g>
		<g id="group108-110" transform="translate(94.7283,-184.588)" v:mID="108" v:groupContext="group">
			<title>Sheet.108</title>
			<g id="shape106-111" v:mID="106" v:groupContext="shape">
				<title>Carré.106</title>
				<v:userDefs>
					<v:ud v:nameU="visVersion" v:val="VT0(15):26"/>
				</v:userDefs>
				<rect x="0" y="267.288" width="28.3465" height="28.3465" class="st1"/>
			</g>
			<g id="shape107-113" v:mID="107" v:groupContext="shape" transform="translate(10.6299,-10.6299)">
				<title>Cercle.107</title>
				<v:userDefs>
					<v:ud v:nameU="visVersion" v:val="VT0(15):26"/>
				</v:userDefs>
				<path d="M0 292.09 A3.54331 3.54331 0 0 1 7.09 292.09 A3.54331 3.54331 0 1 1 0 292.09 Z" class="st2"/>
			</g>
		</g>
		<g id="group111-115" transform="translate(225.955,-230.765)" v:mID="111" v:groupContext="group">
			<title>Sheet.111</title>
			<g id="shape109-116" v:mID="109" v:groupContext="shape">
				<title>Carré.109</title>
				<v:userDefs>
					<v:ud v:nameU="visVersion" v:val="VT0(15):26"/>
				</v:userDefs>
				<rect x="0" y="267.288" width="28.3465" height="28.3465" class="st1"/>
			</g>
			<g id="shape110-118" v:mID="110" v:groupContext="shape" transform="translate(10.6299,-10.6299)">
				<title>Cercle.110</title>
				<v:userDefs>
					<v:ud v:nameU="visVersion" v:val="VT0(15):26"/>
				</v:userDefs>
				<path d="M0 292.09 A3.54331 3.54331 0 0 1 7.09 292.09 A3.54331 3.54331 0 1 1 0 292.09 Z" class="st2"/>
			</g>
		</g>
		<g id="group112-120" transform="translate(250.644,-155.784)" v:mID="112" v:groupContext="group">
			<title>Sheet.112</title>
			<g id="shape113-121" v:mID="113" v:groupContext="shape">
				<title>Carré.109</title>
				<v:userDefs>
					<v:ud v:nameU="visVersion" v:val="VT0(15):26"/>
				</v:userDefs>
				<rect x="0" y="267.288" width="28.3465" height="28.3465" class="st1"/>
			</g>
			<g id="shape114-123" v:mID="114" v:groupContext="shape" transform="translate(10.6299,-10.6299)">
				<title>Cercle.110</title>
				<v:userDefs>
					<v:ud v:nameU="visVersion" v:val="VT0(15):26"/>
				</v:userDefs>
				<path d="M0 292.09 A3.54331 3.54331 0 0 1 7.09 292.09 A3.54331 3.54331 0 1 1 0 292.09 Z" class="st2"/>
			</g>
		</g>
		<g id="shape118-125" v:mID="118" v:groupContext="shape" v:layerMember="1" transform="translate(108.902,-198.761)">
			<title>Lien dynamique.118</title>
			<path d="M0 295.63 L0 264.79 A11.3386 11.3386 -180 0 0 -11.34 253.45 L-39.44 253.45" class="st5"/>
		</g>
		<g id="shape119-130" v:mID="119" v:groupContext="shape" v:layerMember="1" transform="translate(264.817,-169.958)">
			<title>Lien dynamique.119</title>
			<path d="M0 295.63 L0 278.17 A11.3386 11.3386 -180 0 0 -11.34 266.83 L-42.9 266.83" class="st4"/>
			<path d="M-47.63 266.83 L-51.98 266.83 A11.3386 11.3386 0 0 1 -63.32 255.49 L-63.32 231.99 A11.3386 11.3386 0 0 1 -51.98
						 220.65 L-44.38 220.65" class="st7"/>
		</g>
		<g id="group122-136" transform="translate(286.534,-50.171)" v:mID="122" v:groupContext="group">
			<title>Sheet.122</title>
			<g id="shape123-137" v:mID="123" v:groupContext="shape">
				<title>Carré.67</title>
				<v:userDefs>
					<v:ud v:nameU="visVersion" v:val="VT0(15):26"/>
				</v:userDefs>
				<rect x="0" y="267.288" width="28.3465" height="28.3465" class="st1"/>
			</g>
			<g id="shape124-139" v:mID="124" v:groupContext="shape" transform="translate(10.6299,-10.6299)">
				<title>Cercle</title>
				<v:userDefs>
					<v:ud v:nameU="visVersion" v:val="VT0(15):26"/>
				</v:userDefs>
				<path d="M0 292.09 A3.54331 3.54331 0 0 1 7.09 292.09 A3.54331 3.54331 0 1 1 0 292.09 Z" class="st2"/>
			</g>
		</g>
		<g id="shape125-141" v:mID="125" v:groupContext="shape" v:layerMember="1" transform="translate(300.707,-67.8875)">
			<title>Lien dynamique.125</title>
			<path d="M0 295.63 L0 229.71 A11.3386 11.3386 -180 0 0 -11.34 218.37 L-69.81 218.37 A11.3386 11.3386 0 0 1 -81.15 207.03
						 L-81.15 204.9 A11.3386 11.3386 0 0 1 -69.81 193.56 L-55.58 193.56" class="st5"/>
		</g>
		<g id="group126-146" transform="translate(414.55,-110.293)" v:mID="126" v:groupContext="group">
			<title>Sheet.126</title>
			<g id="shape127-147" v:mID="127" v:groupContext="shape">
				<title>Carré.67</title>
				<v:userDefs>
					<v:ud v:nameU="visVersion" v:val="VT0(15):26"/>
				</v:userDefs>
				<rect x="0" y="267.288" width="28.3465" height="28.3465" class="st1"/>
			</g>
			<g id="shape128-149" v:mID="128" v:groupContext="shape" transform="translate(10.6299,-10.6299)">
				<title>Cercle</title>
				<v:userDefs>
					<v:ud v:nameU="visVersion" v:val="VT0(15):26"/>
				</v:userDefs>
				<path d="M0 292.09 A3.54331 3.54331 0 0 1 7.09 292.09 A3.54331 3.54331 0 1 1 0 292.09 Z" class="st2"/>
			</g>
		</g>
		<g id="shape129-151" v:mID="129" v:groupContext="shape" v:layerMember="1" transform="translate(428.724,-120.923)">
			<title>Lien dynamique.129</title>
			<path d="M0 295.63 L0 364.25 A11.3386 11.3386 0 0 1 -11.34 375.58 L-43.59 375.58" class="st4"/>
			<path d="M-48.31 375.58 L-148 375.58 A11.3386 11.3386 0 0 1 -159.33 364.25 L-159.33 360.79 A8.57252 8.57252 0 0 1 -150.76
						 352.21 L-147.7 352.21" class="st7"/>
		</g>
		<g id="group130-157" transform="translate(386.204,-202.419)" v:mID="130" v:groupContext="group">
			<title>Sheet.130</title>
			<g id="shape131-158" v:mID="131" v:groupContext="shape">
				<title>Carré.67</title>
				<v:userDefs>
					<v:ud v:nameU="visVersion" v:val="VT0(15):26"/>
				</v:userDefs>
				<rect x="0" y="267.288" width="28.3465" height="28.3465" class="st1"/>
			</g>
			<g id="shape132-160" v:mID="132" v:groupContext="shape" transform="translate(10.6299,-10.6299)">
				<title>Cercle</title>
				<v:userDefs>
					<v:ud v:nameU="visVersion" v:val="VT0(15):26"/>
				</v:userDefs>
				<path d="M0 292.09 A3.54331 3.54331 0 0 1 7.09 292.09 A3.54331 3.54331 0 1 1 0 292.09 Z" class="st2"/>
			</g>
		</g>
		<g id="group133-162" transform="translate(172.511,-89.0331)" v:mID="133" v:groupContext="group">
			<title>Sheet.133</title>
			<g id="shape134-163" v:mID="134" v:groupContext="shape">
				<title>Carré.67</title>
				<v:userDefs>
					<v:ud v:nameU="visVersion" v:val="VT0(15):26"/>
				</v:userDefs>
				<rect x="0" y="267.288" width="28.3465" height="28.3465" class="st1"/>
			</g>
			<g id="shape135-165" v:mID="135" v:groupContext="shape" transform="translate(10.6299,-10.6299)">
				<title>Cercle</title>
				<v:userDefs>
					<v:ud v:nameU="visVersion" v:val="VT0(15):26"/>
				</v:userDefs>
				<path d="M0 292.09 A3.54331 3.54331 0 0 1 7.09 292.09 A3.54331 3.54331 0 1 1 0 292.09 Z" class="st2"/>
			</g>
		</g>
		<g id="group136-167" transform="translate(59.7624,-110.293)" v:mID="136" v:groupContext="group">
			<title>Sheet.136</title>
			<g id="shape137-168" v:mID="137" v:groupContext="shape">
				<title>Carré.67</title>
				<v:userDefs>
					<v:ud v:nameU="visVersion" v:val="VT0(15):26"/>
				</v:userDefs>
				<rect x="0" y="267.288" width="28.3465" height="28.3465" class="st1"/>
			</g>
			<g id="shape138-170" v:mID="138" v:groupContext="shape" transform="translate(10.6299,-10.6299)">
				<title>Cercle</title>
				<v:userDefs>
					<v:ud v:nameU="visVersion" v:val="VT0(15):26"/>
				</v:userDefs>
				<path d="M0 292.09 A3.54331 3.54331 0 0 1 7.09 292.09 A3.54331 3.54331 0 1 1 0 292.09 Z" class="st2"/>
			</g>
		</g>
		<g id="shape139-172" v:mID="139" v:groupContext="shape" v:layerMember="1" transform="translate(186.684,-103.206)">
			<title>Lien dynamique.139</title>
			<path d="M0 295.63 L0 245.9 A11.3386 11.3386 -180 0 0 -11.34 234.56 L-143.93 234.56 A11.3386 11.3386 -180 0 0 -155.27
						 245.9 L-155.27 263.04 A11.3386 11.3386 -180 0 0 -143.93 274.37 L-132.44 274.37" class="st5"/>
		</g>
		<g id="shape140-177" v:mID="140" v:groupContext="shape" v:layerMember="1" transform="translate(73.9356,-131.553)">
			<title>Lien dynamique.140</title>
			<path d="M0 302.72 L0 381.96 A11.3386 11.3386 -180 0 0 11.34 393.3 L297.5 393.3 A11.3386 11.3386 -180 0 0 308.84 381.96
						 L308.84 314.06 A11.3386 11.3386 0 0 1 320.18 302.72 L335.1 302.72" class="st5"/>
		</g>
		<g id="shape141-182" v:mID="141" v:groupContext="shape" v:layerMember="1" transform="translate(400.377,-213.049)">
			<title>Lien dynamique.141</title>
			<path d="M0 295.63 L0 364.25 A11.3386 11.3386 0 0 1 -11.34 375.58 L-43.45 375.58" class="st4"/>
			<path d="M-48.17 375.58 L-76.68 375.58" class="st4"/>
			<path d="M-81.41 375.58 L-97.31 375.58" class="st4"/>
			<path d="M-102.03 375.58 L-211.33 375.58" class="st4"/>
			<path d="M-216.05 375.58 L-233.95 375.58 A11.3386 11.3386 -180 0 0 -245.29 386.92 L-245.29 396.77 A8.71123 8.71123 -180
						 0 0 -236.58 405.48 L-233.38 405.48" class="st7"/>
		</g>
		<g id="group142-191" transform="translate(35.5962,-226.772)" v:mID="142" v:groupContext="group">
			<title>Sheet.142</title>
			<g id="shape115-192" v:mID="115" v:groupContext="shape" transform="translate(6.96085E-07,-6.96085E-07)">
				<title>Carré.115</title>
				<v:userDefs>
					<v:ud v:nameU="visVersion" v:val="VT0(15):26"/>
				</v:userDefs>
				<rect x="0" y="267.288" width="28.3465" height="28.3465" class="st1"/>
			</g>
			<g id="shape116-194" v:mID="116" v:groupContext="shape" transform="translate(209.045,58.2428) rotate(45)">
				<title>Sheet.116</title>
				<path d="M0 295.63 L40.09 295.63" class="st4"/>
			</g>
			<g id="shape117-197" v:mID="117" v:groupContext="shape" transform="translate(237.391,476.333) rotate(135)">
				<title>Sheet.117</title>
				<path d="M0 295.63 L40.09 295.63" class="st4"/>
			</g>
		</g>
		<g id="shape143-200" v:mID="143" v:groupContext="shape" v:layerMember="1" transform="translate(240.128,-248.482)">
			<title>Lien dynamique.143</title>
			<path d="M0 295.63 L0 285.46 A10.1761 10.1761 -180 0 0 -10.18 275.28 L-204.62 275.28 A11.3386 11.3386 -180 0 0 -215.96
						 286.62 L-215.96 334.02 A11.3386 11.3386 -180 0 0 -204.62 345.35 L-150.92 345.35" class="st5"/>
		</g>
	</g>
</svg>
