<?xml version="1.0" encoding="UTF-8" standalone="no"?>
<!DOCTYPE svg PUBLIC "-//W3C//DTD SVG 1.1//EN" "http://www.w3.org/Graphics/SVG/1.1/DTD/svg11.dtd">
<!-- Generated by Microsoft Visio, SVG Export queue.svg Page-1 -->
<svg xmlns="http://www.w3.org/2000/svg" xmlns:xlink="http://www.w3.org/1999/xlink" xmlns:ev="http://www.w3.org/2001/xml-events"
		xmlns:v="http://schemas.microsoft.com/visio/2003/SVGExtensions/" width="6.96711in" height="2.42096in"
		viewBox="0 0 501.632 174.309" xml:space="preserve" color-interpolation-filters="sRGB" class="st8">
	<v:documentProperties v:langID="1036" v:metric="true" v:viewMarkup="false">
		<v:userDefs>
			<v:ud v:nameU="msvSubprocessMaster" v:prompt="" v:val="VT4(Rectangle)"/>
			<v:ud v:nameU="msvNoAutoConnect" v:val="VT0(1):26"/>
		</v:userDefs>
	</v:documentProperties>

	<style type="text/css">
	<![CDATA[
		.st1 {fill:#ffffff;stroke:#000000;stroke-linecap:round;stroke-linejoin:round;stroke-width:0.75}
		.st2 {fill:#000000;font-family:Calibri;font-size:0.833336em}
		.st3 {fill:none;stroke:none;stroke-linecap:round;stroke-linejoin:round;stroke-width:0.75}
		.st4 {fill:#000000;font-family:Calibri;font-size:1.00001em}
		.st5 {stroke:#000000;stroke-linecap:round;stroke-linejoin:round;stroke-width:0.237638}
		.st6 {marker-end:url(#mrkr13-45);stroke:#000000;stroke-linecap:round;stroke-linejoin:round;stroke-width:0.237638}
		.st7 {fill:#000000;fill-opacity:1;stroke:#000000;stroke-opacity:1;stroke-width:0.086174404659928}
		.st8 {fill:none;fill-rule:evenodd;font-size:12px;overflow:visible;stroke-linecap:square;stroke-miterlimit:3}
	]]>
	</style>

	<defs id="Markers">
		<g id="lend13">
			<path d="M 3 1 L 0 0 L 3 -1 L 3 1 " style="stroke:none"/>
		</g>
		<marker id="mrkr13-45" class="st7" v:arrowType="13" v:arrowSize="2" v:setback="33.2982" refX="-33.298210735586"
				orient="auto" markerUnits="strokeWidth" overflow="visible">
			<use xlink:href="#lend13" transform="scale(-11.604373757455,-11.604373757455) "/>
		</marker>
	</defs>
	<g v:mID="0" v:index="1" v:groupContext="foregroundPage">
		<v:userDefs>
			<v:ud v:nameU="msvThemeOrder" v:val="VT0(0):26"/>
		</v:userDefs>
		<title>Page 1</title>
		<v:pageProperties v:drawingScale="0.0393701" v:pageScale="0.0393701" v:drawingUnits="24" v:shadowOffsetX="8.50394"
				v:shadowOffsetY="-8.50394"/>
		<g id="shape1-1" v:mID="1" v:groupContext="shape" transform="translate(18.375,-18.375)">
			<title>Cercle.21</title>
			<desc>4</desc>
			<v:userDefs>
				<v:ud v:nameU="visVersion" v:val="VT0(15):26"/>
			</v:userDefs>
			<v:textBlock v:margins="rect(4,4,4,4)" v:tabSpace="42.5197"/>
			<v:textRect cx="17.0079" cy="157.301" width="29.77" height="25.5118"/>
			<path d="M0 157.3 A17.0079 17.0079 0 1 1 34.02 157.3 A17.0079 17.0079 0 0 1 0 157.3 Z" class="st1"/>
			<text x="14.47" y="160.3" class="st2" v:langID="1033"><v:paragraph v:horizAlign="1"/><v:tabList/>4</text>		</g>
		<g id="shape2-4" v:mID="2" v:groupContext="shape" transform="translate(60.8947,-18.375)">
			<title>Cercle.22</title>
			<desc>5</desc>
			<v:userDefs>
				<v:ud v:nameU="visVersion" v:val="VT0(15):26"/>
			</v:userDefs>
			<v:textBlock v:margins="rect(4,4,4,4)" v:tabSpace="42.5197"/>
			<v:textRect cx="17.0079" cy="157.301" width="29.77" height="25.5118"/>
			<path d="M0 157.3 A17.0079 17.0079 0 1 1 34.02 157.3 A17.0079 17.0079 0 0 1 0 157.3 Z" class="st1"/>
			<text x="14.47" y="160.3" class="st2" v:langID="1033"><v:paragraph v:horizAlign="1"/><v:tabList/>5</text>		</g>
		<g id="shape3-7" v:mID="3" v:groupContext="shape" transform="translate(103.414,-18.375)">
			<title>Cercle.23</title>
			<desc>6</desc>
			<v:userDefs>
				<v:ud v:nameU="visVersion" v:val="VT0(15):26"/>
			</v:userDefs>
			<v:textBlock v:margins="rect(4,4,4,4)" v:tabSpace="42.5197"/>
			<v:textRect cx="17.0079" cy="157.301" width="29.77" height="25.5118"/>
			<path d="M0 157.3 A17.0079 17.0079 0 1 1 34.02 157.3 A17.0079 17.0079 0 0 1 0 157.3 Z" class="st1"/>
			<text x="14.47" y="160.3" class="st2" v:langID="1033"><v:paragraph v:horizAlign="1"/><v:tabList/>6</text>		</g>
		<g id="shape4-10" v:mID="4" v:groupContext="shape" transform="translate(80.7372,-58.06)">
			<title>Cercle.24</title>
			<desc>3</desc>
			<v:userDefs>
				<v:ud v:nameU="visVersion" v:val="VT0(15):26"/>
			</v:userDefs>
			<v:textBlock v:margins="rect(4,4,4,4)" v:tabSpace="42.5197"/>
			<v:textRect cx="17.0079" cy="157.301" width="29.77" height="25.5118"/>
			<path d="M0 157.3 A17.0079 17.0079 0 1 1 34.02 157.3 A17.0079 17.0079 0 0 1 0 157.3 Z" class="st1"/>
			<text x="14.47" y="160.3" class="st2" v:langID="1033"><v:paragraph v:horizAlign="1"/><v:tabList/>3</text>		</g>
		<g id="shape5-13" v:mID="5" v:groupContext="shape" transform="translate(39.6348,-58.06)">
			<title>Cercle.25</title>
			<desc>2</desc>
			<v:userDefs>
				<v:ud v:nameU="visVersion" v:val="VT0(15):26"/>
			</v:userDefs>
			<v:textBlock v:margins="rect(4,4,4,4)" v:tabSpace="42.5197"/>
			<v:textRect cx="17.0079" cy="157.301" width="29.77" height="25.5118"/>
			<path d="M0 157.3 A17.0079 17.0079 0 1 1 34.02 157.3 A17.0079 17.0079 0 0 1 0 157.3 Z" class="st1"/>
			<text x="14.47" y="160.3" class="st2" v:langID="1033"><v:paragraph v:horizAlign="1"/><v:tabList/>2</text>		</g>
		<g id="shape6-16" v:mID="6" v:groupContext="shape" transform="translate(290.501,-110.58)">
			<title>Cercle.26</title>
			<desc>8</desc>
			<v:userDefs>
				<v:ud v:nameU="visVersion" v:val="VT0(15):26"/>
			</v:userDefs>
			<v:textBlock v:margins="rect(4,4,4,4)" v:tabSpace="42.5197"/>
			<v:textRect cx="17.0079" cy="157.301" width="29.77" height="25.5118"/>
			<path d="M0 157.3 A17.0079 17.0079 0 1 1 34.02 157.3 A17.0079 17.0079 0 0 1 0 157.3 Z" class="st1"/>
			<text x="14.47" y="160.3" class="st2" v:langID="1033"><v:paragraph v:horizAlign="1"/><v:tabList/>8</text>		</g>
		<g id="shape7-19" v:mID="7" v:groupContext="shape" transform="translate(247.981,-110.58)">
			<title>Cercle.27</title>
			<desc>9</desc>
			<v:userDefs>
				<v:ud v:nameU="visVersion" v:val="VT0(15):26"/>
			</v:userDefs>
			<v:textBlock v:margins="rect(4,4,4,4)" v:tabSpace="42.5197"/>
			<v:textRect cx="17.0079" cy="157.301" width="29.77" height="25.5118"/>
			<path d="M0 157.3 A17.0079 17.0079 0 1 1 34.02 157.3 A17.0079 17.0079 0 0 1 0 157.3 Z" class="st1"/>
			<text x="14.47" y="160.3" class="st2" v:langID="1033"><v:paragraph v:horizAlign="1"/><v:tabList/>9</text>		</g>
		<g id="shape8-22" v:mID="8" v:groupContext="shape" transform="translate(62.2618,-135.934)">
			<title>Sheet.8</title>
			<desc>push()</desc>
			<v:textBlock v:margins="rect(4,4,4,4)" v:tabSpace="42.5197"/>
			<v:textRect cx="76" cy="164.309" width="152.01" height="20"/>
			<rect x="0" y="154.309" width="152" height="20" class="st3"/>
			<text x="60.56" y="167.91" class="st4" v:langID="1033"><v:paragraph v:horizAlign="1"/><v:tabList/>push()</text>		</g>
		<g id="shape9-25" v:mID="9" v:groupContext="shape" transform="translate(406.721,-29.7136)">
			<title>Cercle.31</title>
			<desc>15</desc>
			<v:userDefs>
				<v:ud v:nameU="visVersion" v:val="VT0(15):26"/>
			</v:userDefs>
			<v:textBlock v:margins="rect(4,4,4,4)" v:tabSpace="42.5197"/>
			<v:textRect cx="17.0079" cy="157.301" width="29.77" height="25.5118"/>
			<path d="M0 157.3 A17.0079 17.0079 0 1 1 34.02 157.3 A17.0079 17.0079 0 0 1 0 157.3 Z" class="st1"/>
			<text x="11.94" y="160.3" class="st2" v:langID="1033"><v:paragraph v:horizAlign="1"/><v:tabList/>15</text>		</g>
		<g id="shape10-28" v:mID="10" v:groupContext="shape" transform="translate(449.241,-29.7136)">
			<title>Cercle.32</title>
			<desc>19</desc>
			<v:userDefs>
				<v:ud v:nameU="visVersion" v:val="VT0(15):26"/>
			</v:userDefs>
			<v:textBlock v:margins="rect(4,4,4,4)" v:tabSpace="42.5197"/>
			<v:textRect cx="17.0079" cy="157.301" width="29.77" height="25.5118"/>
			<path d="M0 157.3 A17.0079 17.0079 0 1 1 34.02 157.3 A17.0079 17.0079 0 0 1 0 157.3 Z" class="st1"/>
			<text x="11.94" y="160.3" class="st2" v:langID="1033"><v:paragraph v:horizAlign="1"/><v:tabList/>19</text>		</g>
		<g id="shape11-31" v:mID="11" v:groupContext="shape" transform="translate(283.068,-135.934)">
			<title>Sheet.11</title>
			<desc>pop()</desc>
			<v:textBlock v:margins="rect(4,4,4,4)" v:tabSpace="42.5197"/>
			<v:textRect cx="76" cy="164.309" width="152.01" height="20"/>
			<rect x="0" y="154.309" width="152" height="20" class="st3"/>
			<text x="62.89" y="167.91" class="st4" v:langID="1033"><v:paragraph v:horizAlign="1"/><v:tabList/>pop()</text>		</g>
		<g id="shape12-34" v:mID="12" v:groupContext="shape" transform="translate(194.123,-150.265)">
			<title>Sheet.12</title>
			<path d="M0 174.31 L136.06 174.31" class="st5"/>
		</g>
		<g id="shape13-37" v:mID="13" v:groupContext="shape" transform="translate(194.123,-104.91)">
			<title>Sheet.13</title>
			<path d="M0 174.31 L136.06 174.31" class="st5"/>
		</g>
		<g id="shape14-40" v:mID="14" v:groupContext="shape" transform="translate(36.7996,-69.5003) rotate(-26.5651)">
			<title>Sheet.14</title>
			<path d="M0 174.31 A81.3564 79.1686 0 0 1 81.53 170.24 L81.85 170.42" class="st6"/>
		</g>
		<g id="shape15-46" v:mID="15" v:groupContext="shape" transform="translate(418.495,-106.753) rotate(28.3008)">
			<title>Sheet.15</title>
			<path d="M0 174.31 A76.7097 76.7097 0 0 1 76.54 170.18 L76.85 170.36" class="st6"/>
		</g>
	</g>
</svg>
