<?xml version="1.0" encoding="UTF-8" standalone="no"?>
<!DOCTYPE svg PUBLIC "-//W3C//DTD SVG 1.1//EN" "http://www.w3.org/Graphics/SVG/1.1/DTD/svg11.dtd">
<!-- Generated by Microsoft Visio, SVG Export simple-insert.svg Page-1 -->
<svg xmlns="http://www.w3.org/2000/svg" xmlns:xlink="http://www.w3.org/1999/xlink" xmlns:ev="http://www.w3.org/2001/xml-events"
		xmlns:v="http://schemas.microsoft.com/visio/2003/SVGExtensions/" width="10.4824in" height="4.50927in"
		viewBox="0 0 754.733 324.667" xml:space="preserve" color-interpolation-filters="sRGB" class="st15">
	<v:documentProperties v:langID="1036" v:metric="true" v:viewMarkup="false">
		<v:userDefs>
			<v:ud v:nameU="msvSubprocessMaster" v:prompt="" v:val="VT4(Rectangle)"/>
			<v:ud v:nameU="msvNoAutoConnect" v:val="VT0(1):26"/>
		</v:userDefs>
	</v:documentProperties>

	<style type="text/css">
	<![CDATA[
		.st1 {fill:#ffffff;stroke:#000000;stroke-linecap:round;stroke-linejoin:round;stroke-width:0.75}
		.st2 {fill:#000000;font-family:Calibri;font-size:0.833336em}
		.st3 {fill:#000000;stroke:#000000;stroke-linecap:round;stroke-linejoin:round;stroke-width:0.75}
		.st4 {stroke:#000000;stroke-linecap:round;stroke-linejoin:round;stroke-width:0.237638}
		.st5 {marker-end:url(#mrkr4-66);stroke:#000000;stroke-linecap:round;stroke-linejoin:round;stroke-width:0.237638}
		.st6 {fill:#000000;fill-opacity:1;stroke:#000000;stroke-opacity:1;stroke-width:0.086174404659928}
		.st7 {marker-end:url(#mrkr4-87);stroke:#000000;stroke-linecap:round;stroke-linejoin:round;stroke-width:0.237638}
		.st8 {fill:none;stroke:none;stroke-linecap:round;stroke-linejoin:round;stroke-width:0.75}
		.st9 {fill:#000000;font-family:Calibri;font-size:1.00001em;font-weight:bold}
		.st10 {fill:#7f7f7f;font-family:Calibri;font-size:0.833336em}
		.st11 {fill:#ffffff;stroke:#923931;stroke-linecap:round;stroke-linejoin:round;stroke-width:1.5}
		.st12 {fill:#000000;stroke:#923931;stroke-linecap:round;stroke-linejoin:round;stroke-width:1.5}
		.st13 {marker-end:url(#mrkr4-153);stroke:#913730;stroke-linecap:round;stroke-linejoin:round;stroke-width:0.237638}
		.st14 {fill:#913730;fill-opacity:1;stroke:#913730;stroke-opacity:1;stroke-width:0.086174404659928}
		.st15 {fill:none;fill-rule:evenodd;font-size:12px;overflow:visible;stroke-linecap:square;stroke-miterlimit:3}
	]]>
	</style>

	<defs id="Markers">
		<g id="lend4">
			<path d="M 2 1 L 0 0 L 2 -1 L 2 1 " style="stroke:none"/>
		</g>
		<marker id="mrkr4-66" class="st6" v:arrowType="4" v:arrowSize="2" v:setback="23.2087" refX="-23.208747514911" orient="auto"
				markerUnits="strokeWidth" overflow="visible">
			<use xlink:href="#lend4" transform="scale(-11.604373757455,-11.604373757455) "/>
		</marker>
		<marker id="mrkr4-87" class="st6" v:arrowType="4" v:arrowSize="2" v:setback="0" refX="-0" orient="auto"
				markerUnits="strokeWidth" overflow="visible">
			<use xlink:href="#lend4" transform="scale(-11.604373757455,-11.604373757455) "/>
		</marker>
		<marker id="mrkr4-153" class="st14" v:arrowType="4" v:arrowSize="2" v:setback="23.2087" refX="-23.208747514911"
				orient="auto" markerUnits="strokeWidth" overflow="visible">
			<use xlink:href="#lend4" transform="scale(-11.604373757455,-11.604373757455) "/>
		</marker>
	</defs>
	<g v:mID="0" v:index="1" v:groupContext="foregroundPage">
		<v:userDefs>
			<v:ud v:nameU="msvThemeOrder" v:val="VT0(0):26"/>
		</v:userDefs>
		<title>Page 1</title>
		<v:pageProperties v:drawingScale="0.0393701" v:pageScale="0.0393701" v:drawingUnits="24" v:shadowOffsetX="8.50394"
				v:shadowOffsetY="-8.50394"/>
		<v:layer v:name="Diagramme de flux" v:index="0"/>
		<v:layer v:name="Lien" v:index="1"/>
		<g id="shape66-1" v:mID="66" v:groupContext="shape" transform="translate(249.512,-221.711)">
			<title>Carré</title>
			<desc>12</desc>
			<v:userDefs>
				<v:ud v:nameU="visVersion" v:val="VT0(15):26"/>
			</v:userDefs>
			<v:textBlock v:margins="rect(4,4,4,4)" v:tabSpace="42.5197"/>
			<v:textRect cx="14.1732" cy="310.494" width="28.35" height="28.3465"/>
			<rect x="0" y="296.321" width="28.3465" height="28.3465" class="st1"/>
			<text x="9.1" y="313.49" class="st2" v:langID="1033"><v:paragraph v:horizAlign="1"/><v:tabList/>12</text>		</g>
		<g id="shape67-4" v:mID="67" v:groupContext="shape" transform="translate(277.858,-221.711)">
			<title>Carré.67</title>
			<v:userDefs>
				<v:ud v:nameU="visVersion" v:val="VT0(15):26"/>
			</v:userDefs>
			<rect x="0" y="296.321" width="28.3465" height="28.3465" class="st1"/>
		</g>
		<g id="shape68-6" v:mID="68" v:groupContext="shape" transform="translate(417.393,-102.191)">
			<title>Carré.68</title>
			<desc>6</desc>
			<v:userDefs>
				<v:ud v:nameU="visVersion" v:val="VT0(15):26"/>
			</v:userDefs>
			<v:textBlock v:margins="rect(4,4,4,4)" v:tabSpace="42.5197"/>
			<v:textRect cx="14.1732" cy="310.494" width="28.35" height="28.3465"/>
			<rect x="0" y="296.321" width="28.3465" height="28.3465" class="st1"/>
			<text x="11.64" y="313.49" class="st2" v:langID="1033"><v:paragraph v:horizAlign="1"/><v:tabList/>6</text>		</g>
		<g id="shape69-9" v:mID="69" v:groupContext="shape" transform="translate(445.739,-102.191)">
			<title>Carré.69</title>
			<v:userDefs>
				<v:ud v:nameU="visVersion" v:val="VT0(15):26"/>
			</v:userDefs>
			<rect x="0" y="296.321" width="28.3465" height="28.3465" class="st1"/>
		</g>
		<g id="shape70-11" v:mID="70" v:groupContext="shape" transform="translate(513.771,-105.025)">
			<title>Carré.70</title>
			<desc>24</desc>
			<v:userDefs>
				<v:ud v:nameU="visVersion" v:val="VT0(15):26"/>
			</v:userDefs>
			<v:textBlock v:margins="rect(4,4,4,4)" v:tabSpace="42.5197"/>
			<v:textRect cx="14.1732" cy="310.494" width="28.35" height="28.3465"/>
			<rect x="0" y="296.321" width="28.3465" height="28.3465" class="st1"/>
			<text x="9.1" y="313.49" class="st2" v:langID="1033"><v:paragraph v:horizAlign="1"/><v:tabList/>24</text>		</g>
		<g id="shape71-14" v:mID="71" v:groupContext="shape" transform="translate(542.117,-105.025)">
			<title>Carré.71</title>
			<v:userDefs>
				<v:ud v:nameU="visVersion" v:val="VT0(15):26"/>
			</v:userDefs>
			<rect x="0" y="296.321" width="28.3465" height="28.3465" class="st1"/>
		</g>
		<g id="shape72-16" v:mID="72" v:groupContext="shape" transform="translate(349.361,-258.096)">
			<title>Carré.72</title>
			<desc>22</desc>
			<v:userDefs>
				<v:ud v:nameU="visVersion" v:val="VT0(15):26"/>
			</v:userDefs>
			<v:textBlock v:margins="rect(4,4,4,4)" v:tabSpace="42.5197"/>
			<v:textRect cx="14.1732" cy="310.494" width="28.35" height="28.3465"/>
			<rect x="0" y="296.321" width="28.3465" height="28.3465" class="st1"/>
			<text x="9.1" y="313.49" class="st2" v:langID="1033"><v:paragraph v:horizAlign="1"/><v:tabList/>22</text>		</g>
		<g id="shape73-19" v:mID="73" v:groupContext="shape" transform="translate(377.708,-258.096)">
			<title>Carré.73</title>
			<v:userDefs>
				<v:ud v:nameU="visVersion" v:val="VT0(15):26"/>
			</v:userDefs>
			<rect x="0" y="296.321" width="28.3465" height="28.3465" class="st1"/>
		</g>
		<g id="shape74-21" v:mID="74" v:groupContext="shape" transform="translate(405.417,-192.907)">
			<title>Carré.74</title>
			<desc>42</desc>
			<v:userDefs>
				<v:ud v:nameU="visVersion" v:val="VT0(15):26"/>
			</v:userDefs>
			<v:textBlock v:margins="rect(4,4,4,4)" v:tabSpace="42.5197"/>
			<v:textRect cx="14.1732" cy="310.494" width="28.35" height="28.3465"/>
			<rect x="0" y="296.321" width="28.3465" height="28.3465" class="st1"/>
			<text x="9.1" y="313.49" class="st2" v:langID="1033"><v:paragraph v:horizAlign="1"/><v:tabList/>42</text>		</g>
		<g id="shape75-24" v:mID="75" v:groupContext="shape" transform="translate(433.764,-192.907)">
			<title>Carré.75</title>
			<v:userDefs>
				<v:ud v:nameU="visVersion" v:val="VT0(15):26"/>
			</v:userDefs>
			<rect x="0" y="296.321" width="28.3465" height="28.3465" class="st1"/>
		</g>
		<g id="shape76-26" v:mID="76" v:groupContext="shape" transform="translate(496.763,-229.75)">
			<title>Carré.76</title>
			<desc>99</desc>
			<v:userDefs>
				<v:ud v:nameU="visVersion" v:val="VT0(15):26"/>
			</v:userDefs>
			<v:textBlock v:margins="rect(4,4,4,4)" v:tabSpace="42.5197"/>
			<v:textRect cx="14.1732" cy="310.494" width="28.35" height="28.3465"/>
			<rect x="0" y="296.321" width="28.3465" height="28.3465" class="st1"/>
			<text x="9.1" y="313.49" class="st2" v:langID="1033"><v:paragraph v:horizAlign="1"/><v:tabList/>99</text>		</g>
		<g id="shape77-29" v:mID="77" v:groupContext="shape" transform="translate(525.109,-229.75)">
			<title>Carré.77</title>
			<v:userDefs>
				<v:ud v:nameU="visVersion" v:val="VT0(15):26"/>
			</v:userDefs>
			<rect x="0" y="296.321" width="28.3465" height="28.3465" class="st1"/>
		</g>
		<g id="shape78-31" v:mID="78" v:groupContext="shape" transform="translate(298.338,-144.733)">
			<title>Carré.78</title>
			<desc>15</desc>
			<v:userDefs>
				<v:ud v:nameU="visVersion" v:val="VT0(15):26"/>
			</v:userDefs>
			<v:textBlock v:margins="rect(4,4,4,4)" v:tabSpace="42.5197"/>
			<v:textRect cx="14.1732" cy="310.494" width="28.35" height="28.3465"/>
			<rect x="0" y="296.321" width="28.3465" height="28.3465" class="st1"/>
			<text x="9.1" y="313.49" class="st2" v:langID="1033"><v:paragraph v:horizAlign="1"/><v:tabList/>15</text>		</g>
		<g id="shape80-34" v:mID="80" v:groupContext="shape" transform="translate(544.952,-173.057)">
			<title>Carré.80</title>
			<desc>3</desc>
			<v:userDefs>
				<v:ud v:nameU="visVersion" v:val="VT0(15):26"/>
			</v:userDefs>
			<v:textBlock v:margins="rect(4,4,4,4)" v:tabSpace="42.5197"/>
			<v:textRect cx="14.1732" cy="310.494" width="28.35" height="28.3465"/>
			<rect x="0" y="296.321" width="28.3465" height="28.3465" class="st1"/>
			<text x="11.64" y="313.49" class="st2" v:langID="1033"><v:paragraph v:horizAlign="1"/><v:tabList/>3</text>		</g>
		<g id="shape81-37" v:mID="81" v:groupContext="shape" transform="translate(573.298,-173.057)">
			<title>Carré.81</title>
			<v:userDefs>
				<v:ud v:nameU="visVersion" v:val="VT0(15):26"/>
			</v:userDefs>
			<rect x="0" y="296.321" width="28.3465" height="28.3465" class="st1"/>
		</g>
		<g id="shape83-39" v:mID="83" v:groupContext="shape" transform="translate(288.488,-232.341)">
			<title>Cercle</title>
			<v:userDefs>
				<v:ud v:nameU="visVersion" v:val="VT0(15):26"/>
			</v:userDefs>
			<path d="M0 321.12 A3.54331 3.54331 0 0 1 7.09 321.12 A3.54331 3.54331 0 1 1 0 321.12 Z" class="st3"/>
		</g>
		<g id="shape86-41" v:mID="86" v:groupContext="shape" transform="translate(388.338,-268.726)">
			<title>Cercle.86</title>
			<v:userDefs>
				<v:ud v:nameU="visVersion" v:val="VT0(15):26"/>
			</v:userDefs>
			<path d="M0 321.12 A3.54331 3.54331 0 0 1 7.09 321.12 A3.54331 3.54331 0 1 1 0 321.12 Z" class="st3"/>
		</g>
		<g id="shape87-43" v:mID="87" v:groupContext="shape" transform="translate(552.747,-115.655)">
			<title>Cercle.87</title>
			<v:userDefs>
				<v:ud v:nameU="visVersion" v:val="VT0(15):26"/>
			</v:userDefs>
			<path d="M0 321.12 A3.54331 3.54331 0 0 1 7.09 321.12 A3.54331 3.54331 0 1 1 0 321.12 Z" class="st3"/>
		</g>
		<g id="shape88-45" v:mID="88" v:groupContext="shape" transform="translate(326.587,-144.71)">
			<title>Carré.88</title>
			<v:userDefs>
				<v:ud v:nameU="visVersion" v:val="VT0(15):26"/>
			</v:userDefs>
			<rect x="0" y="296.321" width="28.3465" height="28.3465" class="st1"/>
		</g>
		<g id="shape89-47" v:mID="89" v:groupContext="shape" transform="translate(556.161,-77.964) rotate(45)">
			<title>Sheet.89</title>
			<path d="M0 324.67 L40.09 324.67" class="st4"/>
		</g>
		<g id="shape90-50" v:mID="90" v:groupContext="shape" transform="translate(584.507,381.185) rotate(135)">
			<title>Sheet.90</title>
			<path d="M0 324.67 L40.09 324.67" class="st4"/>
		</g>
		<g id="shape91-53" v:mID="91" v:groupContext="shape" transform="translate(456.369,-112.821)">
			<title>Cercle.91</title>
			<v:userDefs>
				<v:ud v:nameU="visVersion" v:val="VT0(15):26"/>
			</v:userDefs>
			<path d="M0 321.12 A3.54331 3.54331 0 0 1 7.09 321.12 A3.54331 3.54331 0 1 1 0 321.12 Z" class="st3"/>
		</g>
		<g id="shape92-55" v:mID="92" v:groupContext="shape" transform="translate(444.394,-203.537)">
			<title>Cercle.92</title>
			<v:userDefs>
				<v:ud v:nameU="visVersion" v:val="VT0(15):26"/>
			</v:userDefs>
			<path d="M0 321.12 A3.54331 3.54331 0 0 1 7.09 321.12 A3.54331 3.54331 0 1 1 0 321.12 Z" class="st3"/>
		</g>
		<g id="shape94-57" v:mID="94" v:groupContext="shape" transform="translate(583.928,-183.687)">
			<title>Cercle.94</title>
			<v:userDefs>
				<v:ud v:nameU="visVersion" v:val="VT0(15):26"/>
			</v:userDefs>
			<path d="M0 321.12 A3.54331 3.54331 0 0 1 7.09 321.12 A3.54331 3.54331 0 1 1 0 321.12 Z" class="st3"/>
		</g>
		<g id="shape95-59" v:mID="95" v:groupContext="shape" transform="translate(535.739,-240.38)">
			<title>Cercle.95</title>
			<v:userDefs>
				<v:ud v:nameU="visVersion" v:val="VT0(15):26"/>
			</v:userDefs>
			<path d="M0 321.12 A3.54331 3.54331 0 0 1 7.09 321.12 A3.54331 3.54331 0 1 1 0 321.12 Z" class="st3"/>
		</g>
		<g id="shape98-61" v:mID="98" v:groupContext="shape" v:layerMember="1" transform="translate(292.031,-235.884)">
			<title>Lien dynamique</title>
			<path d="M0 324.67 L23.31 324.67 A11.3386 11.3386 -180 0 0 34.65 313.33 L34.65 299.62 A11.3386 11.3386 0 0 1 45.99 288.28
						 L51.81 288.28" class="st5"/>
		</g>
		<g id="shape99-67" v:mID="99" v:groupContext="shape" v:layerMember="1" transform="translate(391.562,-272.269)">
			<title>Lien dynamique.99</title>
			<path d="M0.32 324.67 L0.32 345.42 A7.4051 7.4051 0 0 1 -7.09 352.82 L-7.09 352.82 A7.4051 7.4051 -180 0 0 -14.49 360.23
						 L-14.49 378.52 A11.3386 11.3386 -180 0 0 -3.15 389.86 L8.34 389.86" class="st5"/>
		</g>
		<g id="shape100-72" v:mID="100" v:groupContext="shape" v:layerMember="1" transform="translate(447.937,-207.081)">
			<title>Lien dynamique.100</title>
			<path d="M0 324.67 L20.48 324.67 A11.3386 11.3386 -180 0 0 31.82 313.33 L31.82 296.33 A8.50394 8.50394 0 0 1 40.32 287.82
						 L43.31 287.82" class="st5"/>
		</g>
		<g id="shape101-77" v:mID="101" v:groupContext="shape" v:layerMember="1" transform="translate(539.282,-243.923)">
			<title>Lien dynamique.101</title>
			<path d="M0 324.67 L0 340.26 A9.92126 9.92126 -180 0 0 9.92 350.18 L11.34 350.18 A8.50394 8.50394 0 0 1 19.84 358.68
						 L19.84 361.67" class="st5"/>
		</g>
		<g id="shape102-82" v:mID="102" v:groupContext="shape" v:layerMember="1" transform="translate(587.471,-187.23)">
			<title>Lien dynamique.102</title>
			<path d="M0 324.67 L0 356.56 A11.3386 11.3386 0 0 1 -11.34 367.9 L-54.21 367.9 A5.31496 5.31496 -180 0 0 -59.53 373.21
						 L-59.53 378.53" class="st7"/>
		</g>
		<g id="shape103-88" v:mID="103" v:groupContext="shape" v:layerMember="1" transform="translate(556.29,-117.781)">
			<title>Lien dynamique.103</title>
			<path d="M0 323.25 L0 348.76 A11.3386 11.3386 0 0 1 -11.34 360.1 L-54.99 360.1 A11.3386 11.3386 0 0 1 -66.33 348.76 L-66.33
						 302.84 A11.3386 11.3386 -180 0 0 -77.67 291.5 L-114.52 291.5 A10.2047 10.2047 -180 0 0 -124.72 301.71 L-124.72
						 306.4" class="st5"/>
		</g>
		<g id="shape105-93" v:mID="105" v:groupContext="shape" transform="translate(179.282,-221.246)">
			<title>Carré.105</title>
			<v:userDefs>
				<v:ud v:nameU="visVersion" v:val="VT0(15):26"/>
			</v:userDefs>
			<rect x="0" y="296.321" width="28.3465" height="28.3465" class="st1"/>
		</g>
		<g id="shape106-95" v:mID="106" v:groupContext="shape" transform="translate(189.912,-231.876)">
			<title>Cercle.106</title>
			<v:userDefs>
				<v:ud v:nameU="visVersion" v:val="VT0(15):26"/>
			</v:userDefs>
			<path d="M0 321.12 A3.54331 3.54331 0 0 1 7.09 321.12 A3.54331 3.54331 0 1 1 0 321.12 Z" class="st3"/>
		</g>
		<g id="shape107-97" v:mID="107" v:groupContext="shape" transform="translate(179.282,-144.71)">
			<title>Carré.107</title>
			<v:userDefs>
				<v:ud v:nameU="visVersion" v:val="VT0(15):26"/>
			</v:userDefs>
			<rect x="0" y="296.321" width="28.3465" height="28.3465" class="st1"/>
		</g>
		<g id="shape108-99" v:mID="108" v:groupContext="shape" transform="translate(189.912,-155.34)">
			<title>Cercle.108</title>
			<v:userDefs>
				<v:ud v:nameU="visVersion" v:val="VT0(15):26"/>
			</v:userDefs>
			<path d="M0 321.12 A3.54331 3.54331 0 0 1 7.09 321.12 A3.54331 3.54331 0 1 1 0 321.12 Z" class="st3"/>
		</g>
		<g id="shape109-101" v:mID="109" v:groupContext="shape" transform="translate(125.04,-225.419)">
			<title>Sheet.109</title>
			<desc>head</desc>
			<v:textBlock v:margins="rect(4,4,4,4)" v:tabSpace="42.5197"/>
			<v:textRect cx="27.1575" cy="314.667" width="54.32" height="20"/>
			<rect x="0" y="304.667" width="54.315" height="20" class="st8"/>
			<text x="25.47" y="318.27" class="st9" v:langID="1033"><v:paragraph v:horizAlign="2"/><v:tabList/>head</text>		</g>
		<g id="shape111-104" v:mID="111" v:groupContext="shape" transform="translate(123.851,-148.884)">
			<title>Sheet.111</title>
			<desc>tail</desc>
			<v:textBlock v:margins="rect(4,4,4,4)" v:tabSpace="42.5197"/>
			<v:textRect cx="27.1575" cy="314.667" width="54.32" height="20"/>
			<rect x="0" y="304.667" width="54.315" height="20" class="st8"/>
			<text x="34.34" y="318.27" class="st9" v:langID="1033"><v:paragraph v:horizAlign="2"/><v:tabList/>tail</text>		</g>
		<g id="shape112-107" v:mID="112" v:groupContext="shape" v:layerMember="1" transform="translate(207.629,-228.565)">
			<title>Lien dynamique.112</title>
			<path d="M0 317.81 L10.63 317.81 L10.63 317.35 L36.37 317.35" class="st5"/>
		</g>
		<g id="shape113-112" v:mID="113" v:groupContext="shape" v:layerMember="1" transform="translate(207.629,-151.808)">
			<title>Lien dynamique.113</title>
			<path d="M0 317.59 L10.63 317.59 L10.63 317.57 L85.19 317.57" class="st5"/>
		</g>
		<g id="shape114-117" v:mID="114" v:groupContext="shape" transform="translate(245.947,-250.938)">
			<title>Sheet.114</title>
			<desc>Élément 0</desc>
			<v:textBlock v:margins="rect(4,4,4,4)" v:tabSpace="42.5197"/>
			<v:textRect cx="31.0107" cy="314.667" width="62.03" height="20"/>
			<rect x="0" y="304.667" width="62.0215" height="20" class="st8"/>
			<text x="10.49" y="317.67" class="st10" v:langID="1033"><v:paragraph v:horizAlign="1"/><v:tabList/>Élément 0</text>		</g>
		<g id="shape116-120" v:mID="116" v:groupContext="shape" transform="translate(346.697,-286.292)">
			<title>Sheet.116</title>
			<desc>Élément 1</desc>
			<v:textBlock v:margins="rect(4,4,4,4)" v:tabSpace="42.5197"/>
			<v:textRect cx="31.0107" cy="314.667" width="62.03" height="20"/>
			<rect x="0" y="304.667" width="62.0215" height="20" class="st8"/>
			<text x="10.49" y="317.67" class="st10" v:langID="1033"><v:paragraph v:horizAlign="1"/><v:tabList/>Élément 1</text>		</g>
		<g id="shape117-123" v:mID="117" v:groupContext="shape" transform="translate(402.193,-221.095)">
			<title>Sheet.117</title>
			<desc>Élément 2</desc>
			<v:textBlock v:margins="rect(4,4,4,4)" v:tabSpace="42.5197"/>
			<v:textRect cx="31.0107" cy="314.667" width="62.03" height="20"/>
			<rect x="0" y="304.667" width="62.0215" height="20" class="st8"/>
			<text x="10.49" y="317.67" class="st10" v:langID="1033"><v:paragraph v:horizAlign="1"/><v:tabList/>Élément 2</text>		</g>
		<g id="shape118-126" v:mID="118" v:groupContext="shape" transform="translate(495.396,-257.946)">
			<title>Sheet.118</title>
			<desc>Élément 3</desc>
			<v:textBlock v:margins="rect(4,4,4,4)" v:tabSpace="42.5197"/>
			<v:textRect cx="31.0107" cy="314.667" width="62.03" height="20"/>
			<rect x="0" y="304.667" width="62.0215" height="20" class="st8"/>
			<text x="10.49" y="317.67" class="st10" v:langID="1033"><v:paragraph v:horizAlign="1"/><v:tabList/>Élément 3</text>		</g>
		<g id="shape119-129" v:mID="119" v:groupContext="shape" transform="translate(479.925,-177.23)">
			<title>Sheet.119</title>
			<desc>Élément 4</desc>
			<v:textBlock v:margins="rect(4,4,4,4)" v:tabSpace="42.5197"/>
			<v:textRect cx="31.0107" cy="314.667" width="62.03" height="20"/>
			<rect x="0" y="304.667" width="62.0215" height="20" class="st8"/>
			<text x="10.49" y="317.67" class="st10" v:langID="1033"><v:paragraph v:horizAlign="1"/><v:tabList/>Élément 4</text>		</g>
		<g id="shape120-132" v:mID="120" v:groupContext="shape" transform="translate(570.464,-109.199)">
			<title>Sheet.120</title>
			<desc>Élément 5</desc>
			<v:textBlock v:margins="rect(4,4,4,4)" v:tabSpace="42.5197"/>
			<v:textRect cx="31.0107" cy="314.667" width="62.03" height="20"/>
			<rect x="0" y="304.667" width="62.0215" height="20" class="st8"/>
			<text x="10.49" y="317.67" class="st10" v:langID="1033"><v:paragraph v:horizAlign="1"/><v:tabList/>Élément 5</text>		</g>
		<g id="shape121-135" v:mID="121" v:groupContext="shape" transform="translate(355.371,-106.364)">
			<title>Sheet.121</title>
			<desc>Élément 6</desc>
			<v:textBlock v:margins="rect(4,4,4,4)" v:tabSpace="42.5197"/>
			<v:textRect cx="31.0107" cy="314.667" width="62.03" height="20"/>
			<rect x="0" y="304.667" width="62.0215" height="20" class="st8"/>
			<text x="10.49" y="317.67" class="st10" v:langID="1033"><v:paragraph v:horizAlign="1"/><v:tabList/>Élément 6</text>		</g>
		<g id="shape122-138" v:mID="122" v:groupContext="shape" transform="translate(296.07,-174.245)">
			<title>Sheet.122</title>
			<desc>Élément 7</desc>
			<v:textBlock v:margins="rect(4,4,4,4)" v:tabSpace="42.5197"/>
			<v:textRect cx="31.0107" cy="314.667" width="62.03" height="20"/>
			<rect x="0" y="304.667" width="62.0215" height="20" class="st8"/>
			<text x="10.49" y="317.67" class="st10" v:langID="1033"><v:paragraph v:horizAlign="1"/><v:tabList/>Élément 7</text>		</g>
		<g id="shape128-141" v:mID="128" v:groupContext="shape" transform="translate(335.855,-46.8433)">
			<title>Carré.128</title>
			<desc>66</desc>
			<v:userDefs>
				<v:ud v:nameU="visVersion" v:val="VT0(15):26"/>
			</v:userDefs>
			<v:textBlock v:margins="rect(4,4,4,4)" v:tabSpace="42.5197"/>
			<v:textRect cx="14.1732" cy="310.494" width="28.35" height="28.3465"/>
			<rect x="0" y="296.321" width="28.3465" height="28.3465" class="st11"/>
			<text x="9.1" y="313.49" class="st2" v:langID="1033"><v:paragraph v:horizAlign="1"/><v:tabList/>66</text>		</g>
		<g id="shape129-144" v:mID="129" v:groupContext="shape" transform="translate(364.202,-46.8433)">
			<title>Carré.129</title>
			<v:userDefs>
				<v:ud v:nameU="visVersion" v:val="VT0(15):26"/>
			</v:userDefs>
			<rect x="0" y="296.321" width="28.3465" height="28.3465" class="st11"/>
		</g>
		<g id="shape130-146" v:mID="130" v:groupContext="shape" transform="translate(374.832,-57.4733)">
			<title>Cercle.130</title>
			<v:userDefs>
				<v:ud v:nameU="visVersion" v:val="VT0(15):26"/>
			</v:userDefs>
			<path d="M0 321.12 A3.54331 3.54331 0 0 1 7.09 321.12 A3.54331 3.54331 0 1 1 0 321.12 Z" class="st12"/>
		</g>
		<g id="shape131-148" v:mID="131" v:groupContext="shape" v:layerMember="1" transform="translate(459.912,-116.364)">
			<title>Lien dynamique.131</title>
			<path d="M0 324.67 L0 341.68 A11.3386 11.3386 0 0 1 -11.34 353.01 L-103.47 353.01 A6.4138 6.4138 -180 0 0 -109.88 359.43
						 L-109.88 360.33" class="st13"/>
		</g>
		<g id="shape132-154" v:mID="132" v:groupContext="shape" v:layerMember="1" transform="translate(378.375,-61.0166)">
			<title>Lien dynamique.132</title>
			<path d="M0 324.67 L0 350.18 A11.3386 11.3386 0 0 1 -11.34 361.52 L-54.53 361.52 A11.3386 11.3386 0 0 1 -65.86 350.18
						 L-65.86 246.47" class="st13"/>
		</g>
	</g>
</svg>
