<?xml version="1.0" encoding="UTF-8" standalone="no"?>
<!DOCTYPE svg PUBLIC "-//W3C//DTD SVG 1.1//EN" "http://www.w3.org/Graphics/SVG/1.1/DTD/svg11.dtd">
<!-- Generated by Microsoft Visio, SVG Export simple.svg Page-1 -->
<svg xmlns="http://www.w3.org/2000/svg" xmlns:xlink="http://www.w3.org/1999/xlink" xmlns:ev="http://www.w3.org/2001/xml-events"
		xmlns:v="http://schemas.microsoft.com/visio/2003/SVGExtensions/" width="10.3451in" height="3.70118in"
		viewBox="0 0 744.845 266.485" xml:space="preserve" color-interpolation-filters="sRGB" class="st11">
	<v:documentProperties v:langID="1036" v:metric="true" v:viewMarkup="false">
		<v:userDefs>
			<v:ud v:nameU="msvSubprocessMaster" v:prompt="" v:val="VT4(Rectangle)"/>
			<v:ud v:nameU="msvNoAutoConnect" v:val="VT0(1):26"/>
		</v:userDefs>
	</v:documentProperties>

	<style type="text/css">
	<![CDATA[
		.st1 {fill:#ffffff;stroke:#000000;stroke-linecap:round;stroke-linejoin:round;stroke-width:0.75}
		.st2 {fill:#000000;font-family:Calibri;font-size:0.833336em}
		.st3 {fill:#000000;stroke:#000000;stroke-linecap:round;stroke-linejoin:round;stroke-width:0.75}
		.st4 {stroke:#000000;stroke-linecap:round;stroke-linejoin:round;stroke-width:0.237638}
		.st5 {marker-end:url(#mrkr4-66);stroke:#000000;stroke-linecap:round;stroke-linejoin:round;stroke-width:0.237638}
		.st6 {fill:#000000;fill-opacity:1;stroke:#000000;stroke-opacity:1;stroke-width:0.086174404659928}
		.st7 {marker-end:url(#mrkr4-87);stroke:#000000;stroke-linecap:round;stroke-linejoin:round;stroke-width:0.237638}
		.st8 {fill:none;stroke:none;stroke-linecap:round;stroke-linejoin:round;stroke-width:0.75}
		.st9 {fill:#000000;font-family:Calibri;font-size:1.00001em;font-weight:bold}
		.st10 {fill:#7f7f7f;font-family:Calibri;font-size:0.833336em}
		.st11 {fill:none;fill-rule:evenodd;font-size:12px;overflow:visible;stroke-linecap:square;stroke-miterlimit:3}
	]]>
	</style>

	<defs id="Markers">
		<g id="lend4">
			<path d="M 2 1 L 0 0 L 2 -1 L 2 1 " style="stroke:none"/>
		</g>
		<marker id="mrkr4-66" class="st6" v:arrowType="4" v:arrowSize="2" v:setback="23.2087" refX="-23.208747514911" orient="auto"
				markerUnits="strokeWidth" overflow="visible">
			<use xlink:href="#lend4" transform="scale(-11.604373757455,-11.604373757455) "/>
		</marker>
		<marker id="mrkr4-87" class="st6" v:arrowType="4" v:arrowSize="2" v:setback="0" refX="-0" orient="auto"
				markerUnits="strokeWidth" overflow="visible">
			<use xlink:href="#lend4" transform="scale(-11.604373757455,-11.604373757455) "/>
		</marker>
	</defs>
	<g v:mID="0" v:index="1" v:groupContext="foregroundPage">
		<v:userDefs>
			<v:ud v:nameU="msvThemeOrder" v:val="VT0(0):26"/>
		</v:userDefs>
		<title>Page 1</title>
		<v:pageProperties v:drawingScale="0.0393701" v:pageScale="0.0393701" v:drawingUnits="24" v:shadowOffsetX="8.50394"
				v:shadowOffsetY="-8.50394"/>
		<v:layer v:name="Diagramme de flux" v:index="0"/>
		<v:layer v:name="Lien" v:index="1"/>
		<g id="shape66-1" v:mID="66" v:groupContext="shape" transform="translate(248.145,-163.529)">
			<title>Carré</title>
			<desc>12</desc>
			<v:userDefs>
				<v:ud v:nameU="visVersion" v:val="VT0(15):26"/>
			</v:userDefs>
			<v:textBlock v:margins="rect(4,4,4,4)" v:tabSpace="42.5197"/>
			<v:textRect cx="14.1732" cy="252.312" width="28.35" height="28.3465"/>
			<rect x="0" y="238.139" width="28.3465" height="28.3465" class="st1"/>
			<text x="9.1" y="255.31" class="st2" v:langID="1033"><v:paragraph v:horizAlign="1"/><v:tabList/>12</text>		</g>
		<g id="shape67-4" v:mID="67" v:groupContext="shape" transform="translate(276.491,-163.529)">
			<title>Carré.67</title>
			<v:userDefs>
				<v:ud v:nameU="visVersion" v:val="VT0(15):26"/>
			</v:userDefs>
			<rect x="0" y="238.139" width="28.3465" height="28.3465" class="st1"/>
		</g>
		<g id="shape68-6" v:mID="68" v:groupContext="shape" transform="translate(416.026,-44.0087)">
			<title>Carré.68</title>
			<desc>6</desc>
			<v:userDefs>
				<v:ud v:nameU="visVersion" v:val="VT0(15):26"/>
			</v:userDefs>
			<v:textBlock v:margins="rect(4,4,4,4)" v:tabSpace="42.5197"/>
			<v:textRect cx="14.1732" cy="252.312" width="28.35" height="28.3465"/>
			<rect x="0" y="238.139" width="28.3465" height="28.3465" class="st1"/>
			<text x="11.64" y="255.31" class="st2" v:langID="1033"><v:paragraph v:horizAlign="1"/><v:tabList/>6</text>		</g>
		<g id="shape69-9" v:mID="69" v:groupContext="shape" transform="translate(444.372,-44.0087)">
			<title>Carré.69</title>
			<v:userDefs>
				<v:ud v:nameU="visVersion" v:val="VT0(15):26"/>
			</v:userDefs>
			<rect x="0" y="238.139" width="28.3465" height="28.3465" class="st1"/>
		</g>
		<g id="shape70-11" v:mID="70" v:groupContext="shape" transform="translate(512.404,-46.8433)">
			<title>Carré.70</title>
			<desc>24</desc>
			<v:userDefs>
				<v:ud v:nameU="visVersion" v:val="VT0(15):26"/>
			</v:userDefs>
			<v:textBlock v:margins="rect(4,4,4,4)" v:tabSpace="42.5197"/>
			<v:textRect cx="14.1732" cy="252.312" width="28.35" height="28.3465"/>
			<rect x="0" y="238.139" width="28.3465" height="28.3465" class="st1"/>
			<text x="9.1" y="255.31" class="st2" v:langID="1033"><v:paragraph v:horizAlign="1"/><v:tabList/>24</text>		</g>
		<g id="shape71-14" v:mID="71" v:groupContext="shape" transform="translate(540.75,-46.8433)">
			<title>Carré.71</title>
			<v:userDefs>
				<v:ud v:nameU="visVersion" v:val="VT0(15):26"/>
			</v:userDefs>
			<rect x="0" y="238.139" width="28.3465" height="28.3465" class="st1"/>
		</g>
		<g id="shape72-16" v:mID="72" v:groupContext="shape" transform="translate(347.994,-199.914)">
			<title>Carré.72</title>
			<desc>22</desc>
			<v:userDefs>
				<v:ud v:nameU="visVersion" v:val="VT0(15):26"/>
			</v:userDefs>
			<v:textBlock v:margins="rect(4,4,4,4)" v:tabSpace="42.5197"/>
			<v:textRect cx="14.1732" cy="252.312" width="28.35" height="28.3465"/>
			<rect x="0" y="238.139" width="28.3465" height="28.3465" class="st1"/>
			<text x="9.1" y="255.31" class="st2" v:langID="1033"><v:paragraph v:horizAlign="1"/><v:tabList/>22</text>		</g>
		<g id="shape73-19" v:mID="73" v:groupContext="shape" transform="translate(376.341,-199.914)">
			<title>Carré.73</title>
			<v:userDefs>
				<v:ud v:nameU="visVersion" v:val="VT0(15):26"/>
			</v:userDefs>
			<rect x="0" y="238.139" width="28.3465" height="28.3465" class="st1"/>
		</g>
		<g id="shape74-21" v:mID="74" v:groupContext="shape" transform="translate(404.05,-134.725)">
			<title>Carré.74</title>
			<desc>42</desc>
			<v:userDefs>
				<v:ud v:nameU="visVersion" v:val="VT0(15):26"/>
			</v:userDefs>
			<v:textBlock v:margins="rect(4,4,4,4)" v:tabSpace="42.5197"/>
			<v:textRect cx="14.1732" cy="252.312" width="28.35" height="28.3465"/>
			<rect x="0" y="238.139" width="28.3465" height="28.3465" class="st1"/>
			<text x="9.1" y="255.31" class="st2" v:langID="1033"><v:paragraph v:horizAlign="1"/><v:tabList/>42</text>		</g>
		<g id="shape75-24" v:mID="75" v:groupContext="shape" transform="translate(432.397,-134.725)">
			<title>Carré.75</title>
			<v:userDefs>
				<v:ud v:nameU="visVersion" v:val="VT0(15):26"/>
			</v:userDefs>
			<rect x="0" y="238.139" width="28.3465" height="28.3465" class="st1"/>
		</g>
		<g id="shape76-26" v:mID="76" v:groupContext="shape" transform="translate(495.396,-171.568)">
			<title>Carré.76</title>
			<desc>99</desc>
			<v:userDefs>
				<v:ud v:nameU="visVersion" v:val="VT0(15):26"/>
			</v:userDefs>
			<v:textBlock v:margins="rect(4,4,4,4)" v:tabSpace="42.5197"/>
			<v:textRect cx="14.1732" cy="252.312" width="28.35" height="28.3465"/>
			<rect x="0" y="238.139" width="28.3465" height="28.3465" class="st1"/>
			<text x="9.1" y="255.31" class="st2" v:langID="1033"><v:paragraph v:horizAlign="1"/><v:tabList/>99</text>		</g>
		<g id="shape77-29" v:mID="77" v:groupContext="shape" transform="translate(523.742,-171.568)">
			<title>Carré.77</title>
			<v:userDefs>
				<v:ud v:nameU="visVersion" v:val="VT0(15):26"/>
			</v:userDefs>
			<rect x="0" y="238.139" width="28.3465" height="28.3465" class="st1"/>
		</g>
		<g id="shape78-31" v:mID="78" v:groupContext="shape" transform="translate(296.97,-86.5511)">
			<title>Carré.78</title>
			<desc>15</desc>
			<v:userDefs>
				<v:ud v:nameU="visVersion" v:val="VT0(15):26"/>
			</v:userDefs>
			<v:textBlock v:margins="rect(4,4,4,4)" v:tabSpace="42.5197"/>
			<v:textRect cx="14.1732" cy="252.312" width="28.35" height="28.3465"/>
			<rect x="0" y="238.139" width="28.3465" height="28.3465" class="st1"/>
			<text x="9.1" y="255.31" class="st2" v:langID="1033"><v:paragraph v:horizAlign="1"/><v:tabList/>15</text>		</g>
		<g id="shape80-34" v:mID="80" v:groupContext="shape" transform="translate(543.585,-114.875)">
			<title>Carré.80</title>
			<desc>3</desc>
			<v:userDefs>
				<v:ud v:nameU="visVersion" v:val="VT0(15):26"/>
			</v:userDefs>
			<v:textBlock v:margins="rect(4,4,4,4)" v:tabSpace="42.5197"/>
			<v:textRect cx="14.1732" cy="252.312" width="28.35" height="28.3465"/>
			<rect x="0" y="238.139" width="28.3465" height="28.3465" class="st1"/>
			<text x="11.64" y="255.31" class="st2" v:langID="1033"><v:paragraph v:horizAlign="1"/><v:tabList/>3</text>		</g>
		<g id="shape81-37" v:mID="81" v:groupContext="shape" transform="translate(571.931,-114.875)">
			<title>Carré.81</title>
			<v:userDefs>
				<v:ud v:nameU="visVersion" v:val="VT0(15):26"/>
			</v:userDefs>
			<rect x="0" y="238.139" width="28.3465" height="28.3465" class="st1"/>
		</g>
		<g id="shape83-39" v:mID="83" v:groupContext="shape" transform="translate(287.121,-174.159)">
			<title>Cercle</title>
			<v:userDefs>
				<v:ud v:nameU="visVersion" v:val="VT0(15):26"/>
			</v:userDefs>
			<path d="M0 262.94 A3.54331 3.54331 0 0 1 7.09 262.94 A3.54331 3.54331 0 1 1 0 262.94 Z" class="st3"/>
		</g>
		<g id="shape86-41" v:mID="86" v:groupContext="shape" transform="translate(386.97,-210.544)">
			<title>Cercle.86</title>
			<v:userDefs>
				<v:ud v:nameU="visVersion" v:val="VT0(15):26"/>
			</v:userDefs>
			<path d="M0 262.94 A3.54331 3.54331 0 0 1 7.09 262.94 A3.54331 3.54331 0 1 1 0 262.94 Z" class="st3"/>
		</g>
		<g id="shape87-43" v:mID="87" v:groupContext="shape" transform="translate(551.38,-57.4733)">
			<title>Cercle.87</title>
			<v:userDefs>
				<v:ud v:nameU="visVersion" v:val="VT0(15):26"/>
			</v:userDefs>
			<path d="M0 262.94 A3.54331 3.54331 0 0 1 7.09 262.94 A3.54331 3.54331 0 1 1 0 262.94 Z" class="st3"/>
		</g>
		<g id="shape88-45" v:mID="88" v:groupContext="shape" transform="translate(325.219,-86.5284)">
			<title>Carré.88</title>
			<v:userDefs>
				<v:ud v:nameU="visVersion" v:val="VT0(15):26"/>
			</v:userDefs>
			<rect x="0" y="238.139" width="28.3465" height="28.3465" class="st1"/>
		</g>
		<g id="shape89-47" v:mID="89" v:groupContext="shape" transform="translate(513.653,-36.8231) rotate(45)">
			<title>Sheet.89</title>
			<path d="M0 266.49 L40.09 266.49" class="st4"/>
		</g>
		<g id="shape90-50" v:mID="90" v:groupContext="shape" transform="translate(541.999,340.044) rotate(135)">
			<title>Sheet.90</title>
			<path d="M0 266.49 L40.09 266.49" class="st4"/>
		</g>
		<g id="shape91-53" v:mID="91" v:groupContext="shape" transform="translate(455.002,-54.6386)">
			<title>Cercle.91</title>
			<v:userDefs>
				<v:ud v:nameU="visVersion" v:val="VT0(15):26"/>
			</v:userDefs>
			<path d="M0 262.94 A3.54331 3.54331 0 0 1 7.09 262.94 A3.54331 3.54331 0 1 1 0 262.94 Z" class="st3"/>
		</g>
		<g id="shape92-55" v:mID="92" v:groupContext="shape" transform="translate(443.026,-145.355)">
			<title>Cercle.92</title>
			<v:userDefs>
				<v:ud v:nameU="visVersion" v:val="VT0(15):26"/>
			</v:userDefs>
			<path d="M0 262.94 A3.54331 3.54331 0 0 1 7.09 262.94 A3.54331 3.54331 0 1 1 0 262.94 Z" class="st3"/>
		</g>
		<g id="shape94-57" v:mID="94" v:groupContext="shape" transform="translate(582.561,-125.505)">
			<title>Cercle.94</title>
			<v:userDefs>
				<v:ud v:nameU="visVersion" v:val="VT0(15):26"/>
			</v:userDefs>
			<path d="M0 262.94 A3.54331 3.54331 0 0 1 7.09 262.94 A3.54331 3.54331 0 1 1 0 262.94 Z" class="st3"/>
		</g>
		<g id="shape95-59" v:mID="95" v:groupContext="shape" transform="translate(534.372,-182.198)">
			<title>Cercle.95</title>
			<v:userDefs>
				<v:ud v:nameU="visVersion" v:val="VT0(15):26"/>
			</v:userDefs>
			<path d="M0 262.94 A3.54331 3.54331 0 0 1 7.09 262.94 A3.54331 3.54331 0 1 1 0 262.94 Z" class="st3"/>
		</g>
		<g id="shape98-61" v:mID="98" v:groupContext="shape" v:layerMember="1" transform="translate(290.664,-177.702)">
			<title>Lien dynamique</title>
			<path d="M0 266.49 L23.31 266.49 A11.3386 11.3386 -180 0 0 34.65 255.15 L34.65 241.44 A11.3386 11.3386 0 0 1 45.99 230.1
						 L51.81 230.1" class="st5"/>
		</g>
		<g id="shape99-67" v:mID="99" v:groupContext="shape" v:layerMember="1" transform="translate(390.195,-214.087)">
			<title>Lien dynamique.99</title>
			<path d="M0.32 266.49 L0.32 287.24 A7.4051 7.4051 0 0 1 -7.09 294.64 L-7.09 294.64 A7.4051 7.4051 -180 0 0 -14.49 302.05
						 L-14.49 320.34 A11.3386 11.3386 -180 0 0 -3.15 331.67 L8.34 331.67" class="st5"/>
		</g>
		<g id="shape100-72" v:mID="100" v:groupContext="shape" v:layerMember="1" transform="translate(446.57,-148.899)">
			<title>Lien dynamique.100</title>
			<path d="M0 266.49 L20.48 266.49 A11.3386 11.3386 -180 0 0 31.82 255.15 L31.82 238.15 A8.50394 8.50394 0 0 1 40.32 229.64
						 L43.31 229.64" class="st5"/>
		</g>
		<g id="shape101-77" v:mID="101" v:groupContext="shape" v:layerMember="1" transform="translate(537.915,-185.741)">
			<title>Lien dynamique.101</title>
			<path d="M0 266.49 L0 282.08 A9.92126 9.92126 -180 0 0 9.92 292 L11.34 292 A8.50394 8.50394 0 0 1 19.84 300.5 L19.84
						 303.49" class="st5"/>
		</g>
		<g id="shape102-82" v:mID="102" v:groupContext="shape" v:layerMember="1" transform="translate(586.104,-129.048)">
			<title>Lien dynamique.102</title>
			<path d="M0 266.49 L0 298.38 A11.3386 11.3386 0 0 1 -11.34 309.71 L-54.21 309.71 A5.31496 5.31496 -180 0 0 -59.53 315.03
						 L-59.53 320.34" class="st7"/>
		</g>
		<g id="shape103-88" v:mID="103" v:groupContext="shape" v:layerMember="1" transform="translate(554.923,-59.5993)">
			<title>Lien dynamique.103</title>
			<path d="M0 265.07 L0 290.58 A11.3386 11.3386 0 0 1 -11.34 301.92 L-54.99 301.92 A11.3386 11.3386 0 0 1 -66.33 290.58
						 L-66.33 244.66 A11.3386 11.3386 -180 0 0 -77.67 233.32 L-114.52 233.32 A10.2047 10.2047 -180 0 0 -124.72
						 243.52 L-124.72 248.21" class="st5"/>
		</g>
		<g id="shape104-93" v:mID="104" v:groupContext="shape" v:layerMember="1" transform="translate(458.545,-58.1819)">
			<title>Lien dynamique.104</title>
			<path d="M0 266.49 L0 283.49 A11.3386 11.3386 0 0 1 -11.34 294.83 L-136.06 294.83 A11.3386 11.3386 0 0 1 -147.4 283.49
						 L-147.4 243.63" class="st5"/>
		</g>
		<g id="shape105-98" v:mID="105" v:groupContext="shape" transform="translate(177.915,-163.064)">
			<title>Carré.105</title>
			<v:userDefs>
				<v:ud v:nameU="visVersion" v:val="VT0(15):26"/>
			</v:userDefs>
			<rect x="0" y="238.139" width="28.3465" height="28.3465" class="st1"/>
		</g>
		<g id="shape106-100" v:mID="106" v:groupContext="shape" transform="translate(188.545,-173.694)">
			<title>Cercle.106</title>
			<v:userDefs>
				<v:ud v:nameU="visVersion" v:val="VT0(15):26"/>
			</v:userDefs>
			<path d="M0 262.94 A3.54331 3.54331 0 0 1 7.09 262.94 A3.54331 3.54331 0 1 1 0 262.94 Z" class="st3"/>
		</g>
		<g id="shape107-102" v:mID="107" v:groupContext="shape" transform="translate(177.915,-86.5284)">
			<title>Carré.107</title>
			<v:userDefs>
				<v:ud v:nameU="visVersion" v:val="VT0(15):26"/>
			</v:userDefs>
			<rect x="0" y="238.139" width="28.3465" height="28.3465" class="st1"/>
		</g>
		<g id="shape108-104" v:mID="108" v:groupContext="shape" transform="translate(188.545,-97.1583)">
			<title>Cercle.108</title>
			<v:userDefs>
				<v:ud v:nameU="visVersion" v:val="VT0(15):26"/>
			</v:userDefs>
			<path d="M0 262.94 A3.54331 3.54331 0 0 1 7.09 262.94 A3.54331 3.54331 0 1 1 0 262.94 Z" class="st3"/>
		</g>
		<g id="shape109-106" v:mID="109" v:groupContext="shape" transform="translate(123.673,-167.237)">
			<title>Sheet.109</title>
			<desc>head</desc>
			<v:textBlock v:margins="rect(4,4,4,4)" v:tabSpace="42.5197"/>
			<v:textRect cx="27.1575" cy="256.485" width="54.32" height="20"/>
			<rect x="0" y="246.485" width="54.315" height="20" class="st8"/>
			<text x="25.47" y="260.09" class="st9" v:langID="1033"><v:paragraph v:horizAlign="2"/><v:tabList/>head</text>		</g>
		<g id="shape111-109" v:mID="111" v:groupContext="shape" transform="translate(122.484,-90.7016)">
			<title>Sheet.111</title>
			<desc>tail</desc>
			<v:textBlock v:margins="rect(4,4,4,4)" v:tabSpace="42.5197"/>
			<v:textRect cx="27.1575" cy="256.485" width="54.32" height="20"/>
			<rect x="0" y="246.485" width="54.315" height="20" class="st8"/>
			<text x="34.34" y="260.09" class="st9" v:langID="1033"><v:paragraph v:horizAlign="2"/><v:tabList/>tail</text>		</g>
		<g id="shape112-112" v:mID="112" v:groupContext="shape" v:layerMember="1" transform="translate(206.262,-170.383)">
			<title>Lien dynamique.112</title>
			<path d="M0 259.63 L10.63 259.63 L10.63 259.17 L36.37 259.17" class="st5"/>
		</g>
		<g id="shape113-117" v:mID="113" v:groupContext="shape" v:layerMember="1" transform="translate(206.262,-93.6264)">
			<title>Lien dynamique.113</title>
			<path d="M0 259.41 L10.63 259.41 L10.63 259.39 L85.19 259.39" class="st5"/>
		</g>
		<g id="shape114-122" v:mID="114" v:groupContext="shape" transform="translate(244.58,-192.756)">
			<title>Sheet.114</title>
			<desc>Élément 0</desc>
			<v:textBlock v:margins="rect(4,4,4,4)" v:tabSpace="42.5197"/>
			<v:textRect cx="31.0107" cy="256.485" width="62.03" height="20"/>
			<rect x="0" y="246.485" width="62.0215" height="20" class="st8"/>
			<text x="10.49" y="259.49" class="st10" v:langID="1033"><v:paragraph v:horizAlign="1"/><v:tabList/>Élément 0</text>		</g>
		<g id="shape116-125" v:mID="116" v:groupContext="shape" transform="translate(345.33,-228.11)">
			<title>Sheet.116</title>
			<desc>Élément 1</desc>
			<v:textBlock v:margins="rect(4,4,4,4)" v:tabSpace="42.5197"/>
			<v:textRect cx="31.0107" cy="256.485" width="62.03" height="20"/>
			<rect x="0" y="246.485" width="62.0215" height="20" class="st8"/>
			<text x="10.49" y="259.49" class="st10" v:langID="1033"><v:paragraph v:horizAlign="1"/><v:tabList/>Élément 1</text>		</g>
		<g id="shape117-128" v:mID="117" v:groupContext="shape" transform="translate(400.826,-162.913)">
			<title>Sheet.117</title>
			<desc>Élément 2</desc>
			<v:textBlock v:margins="rect(4,4,4,4)" v:tabSpace="42.5197"/>
			<v:textRect cx="31.0107" cy="256.485" width="62.03" height="20"/>
			<rect x="0" y="246.485" width="62.0215" height="20" class="st8"/>
			<text x="10.49" y="259.49" class="st10" v:langID="1033"><v:paragraph v:horizAlign="1"/><v:tabList/>Élément 2</text>		</g>
		<g id="shape118-131" v:mID="118" v:groupContext="shape" transform="translate(494.029,-199.764)">
			<title>Sheet.118</title>
			<desc>Élément 3</desc>
			<v:textBlock v:margins="rect(4,4,4,4)" v:tabSpace="42.5197"/>
			<v:textRect cx="31.0107" cy="256.485" width="62.03" height="20"/>
			<rect x="0" y="246.485" width="62.0215" height="20" class="st8"/>
			<text x="10.49" y="259.49" class="st10" v:langID="1033"><v:paragraph v:horizAlign="1"/><v:tabList/>Élément 3</text>		</g>
		<g id="shape119-134" v:mID="119" v:groupContext="shape" transform="translate(478.558,-119.048)">
			<title>Sheet.119</title>
			<desc>Élément 4</desc>
			<v:textBlock v:margins="rect(4,4,4,4)" v:tabSpace="42.5197"/>
			<v:textRect cx="31.0107" cy="256.485" width="62.03" height="20"/>
			<rect x="0" y="246.485" width="62.0215" height="20" class="st8"/>
			<text x="10.49" y="259.49" class="st10" v:langID="1033"><v:paragraph v:horizAlign="1"/><v:tabList/>Élément 4</text>		</g>
		<g id="shape120-137" v:mID="120" v:groupContext="shape" transform="translate(569.096,-51.0166)">
			<title>Sheet.120</title>
			<desc>Élément 5</desc>
			<v:textBlock v:margins="rect(4,4,4,4)" v:tabSpace="42.5197"/>
			<v:textRect cx="31.0107" cy="256.485" width="62.03" height="20"/>
			<rect x="0" y="246.485" width="62.0215" height="20" class="st8"/>
			<text x="10.49" y="259.49" class="st10" v:langID="1033"><v:paragraph v:horizAlign="1"/><v:tabList/>Élément 5</text>		</g>
		<g id="shape121-140" v:mID="121" v:groupContext="shape" transform="translate(354.004,-48.1819)">
			<title>Sheet.121</title>
			<desc>Élément 6</desc>
			<v:textBlock v:margins="rect(4,4,4,4)" v:tabSpace="42.5197"/>
			<v:textRect cx="31.0107" cy="256.485" width="62.03" height="20"/>
			<rect x="0" y="246.485" width="62.0215" height="20" class="st8"/>
			<text x="10.49" y="259.49" class="st10" v:langID="1033"><v:paragraph v:horizAlign="1"/><v:tabList/>Élément 6</text>		</g>
		<g id="shape122-143" v:mID="122" v:groupContext="shape" transform="translate(294.703,-116.063)">
			<title>Sheet.122</title>
			<desc>Élément 7</desc>
			<v:textBlock v:margins="rect(4,4,4,4)" v:tabSpace="42.5197"/>
			<v:textRect cx="31.0107" cy="256.485" width="62.03" height="20"/>
			<rect x="0" y="246.485" width="62.0215" height="20" class="st8"/>
			<text x="10.49" y="259.49" class="st10" v:langID="1033"><v:paragraph v:horizAlign="1"/><v:tabList/>Élément 7</text>		</g>
	</g>
</svg>
