<?xml version="1.0" encoding="UTF-8" standalone="no"?>
<!DOCTYPE svg PUBLIC "-//W3C//DTD SVG 1.1//EN" "http://www.w3.org/Graphics/SVG/1.1/DTD/svg11.dtd">
<!-- Generated by Microsoft Visio, SVG Export tree.svg Page-1 -->
<svg xmlns="http://www.w3.org/2000/svg" xmlns:xlink="http://www.w3.org/1999/xlink" xmlns:ev="http://www.w3.org/2001/xml-events"
		xmlns:v="http://schemas.microsoft.com/visio/2003/SVGExtensions/" width="10.6236in" height="5.03798in"
		viewBox="0 0 764.9 362.734" xml:space="preserve" color-interpolation-filters="sRGB" class="st10">
	<v:documentProperties v:langID="1033" v:metric="true" v:viewMarkup="false">
		<v:userDefs>
			<v:ud v:nameU="msvSubprocessMaster" v:prompt="" v:val="VT4(Rectangle)"/>
			<v:ud v:nameU="msvNoAutoConnect" v:val="VT0(1):26"/>
		</v:userDefs>
	</v:documentProperties>

	<style type="text/css">
	<![CDATA[
		.st1 {fill:#ffffff;stroke:#000000;stroke-linecap:round;stroke-linejoin:round;stroke-width:0.75}
		.st2 {fill:#000000;font-family:Calibri;font-size:0.833336em}
		.st3 {marker-end:url(#mrkr4-27);stroke:#000000;stroke-linecap:round;stroke-linejoin:round;stroke-width:0.237638}
		.st4 {fill:#000000;fill-opacity:1;stroke:#000000;stroke-opacity:1;stroke-width:0.086174404659928}
		.st5 {fill:#000000;stroke:#000000;stroke-linecap:round;stroke-linejoin:round;stroke-width:0.75}
		.st6 {fill:none;stroke:none;stroke-linecap:round;stroke-linejoin:round;stroke-width:0.75}
		.st7 {fill:#000000;font-family:Calibri;font-size:1.00001em;font-weight:bold}
		.st8 {marker-end:url(#mrkr4-165);stroke:#000000;stroke-linecap:round;stroke-linejoin:round;stroke-width:0.237638}
		.st9 {stroke:#000000;stroke-linecap:round;stroke-linejoin:round;stroke-width:0.237638}
		.st10 {fill:none;fill-rule:evenodd;font-size:12px;overflow:visible;stroke-linecap:square;stroke-miterlimit:3}
	]]>
	</style>

	<defs id="Markers">
		<g id="lend4">
			<path d="M 2 1 L 0 0 L 2 -1 L 2 1 " style="stroke:none"/>
		</g>
		<marker id="mrkr4-27" class="st4" v:arrowType="4" v:arrowSize="2" v:setback="23.2087" refX="-23.208747514911" orient="auto"
				markerUnits="strokeWidth" overflow="visible">
			<use xlink:href="#lend4" transform="scale(-11.604373757455,-11.604373757455) "/>
		</marker>
		<marker id="mrkr4-165" class="st4" v:arrowType="4" v:arrowSize="2" v:setback="0" refX="-0" orient="auto"
				markerUnits="strokeWidth" overflow="visible">
			<use xlink:href="#lend4" transform="scale(-11.604373757455,-11.604373757455) "/>
		</marker>
	</defs>
	<g v:mID="0" v:index="1" v:groupContext="foregroundPage">
		<v:userDefs>
			<v:ud v:nameU="msvThemeOrder" v:val="VT0(0):26"/>
		</v:userDefs>
		<title>Page-1</title>
		<v:pageProperties v:drawingScale="0.0393701" v:pageScale="0.0393701" v:drawingUnits="24" v:shadowOffsetX="8.50394"
				v:shadowOffsetY="-8.50394"/>
		<v:layer v:name="Connector" v:index="0"/>
		<v:layer v:name="Lien" v:index="1"/>
		<g id="shape1-1" v:mID="1" v:groupContext="shape" transform="translate(196.958,-304.674)">
			<title>Circle</title>
			<desc>54</desc>
			<v:userDefs>
				<v:ud v:nameU="visVersion" v:val="VT0(15):26"/>
			</v:userDefs>
			<v:textBlock v:margins="rect(4,4,4,4)" v:tabSpace="42.5197"/>
			<v:textRect cx="19.8425" cy="342.892" width="34.73" height="29.7638"/>
			<path d="M0 342.89 A19.8425 19.8425 0 0 1 39.69 342.89 A19.8425 19.8425 0 1 1 -0 342.89 Z" class="st1"/>
			<text x="14.77" y="345.89" class="st2" v:langID="1033"><v:paragraph v:horizAlign="1"/><v:tabList/>54</text>		</g>
		<g id="shape2-4" v:mID="2" v:groupContext="shape" transform="translate(106.249,-236.643)">
			<title>Circle.2</title>
			<desc>41</desc>
			<v:userDefs>
				<v:ud v:nameU="visVersion" v:val="VT0(15):26"/>
			</v:userDefs>
			<v:textBlock v:margins="rect(4,4,4,4)" v:tabSpace="42.5197"/>
			<v:textRect cx="19.8425" cy="342.892" width="34.73" height="29.7638"/>
			<path d="M0 342.89 A19.8425 19.8425 0 0 1 39.69 342.89 A19.8425 19.8425 0 1 1 -0 342.89 Z" class="st1"/>
			<text x="14.77" y="345.89" class="st2" v:langID="1033"><v:paragraph v:horizAlign="1"/><v:tabList/>41</text>		</g>
		<g id="shape3-7" v:mID="3" v:groupContext="shape" transform="translate(287.666,-236.643)">
			<title>Circle.3</title>
			<desc>32</desc>
			<v:userDefs>
				<v:ud v:nameU="visVersion" v:val="VT0(15):26"/>
			</v:userDefs>
			<v:textBlock v:margins="rect(4,4,4,4)" v:tabSpace="42.5197"/>
			<v:textRect cx="19.8425" cy="342.892" width="34.73" height="29.7638"/>
			<path d="M0 342.89 A19.8425 19.8425 0 0 1 39.69 342.89 A19.8425 19.8425 0 1 1 -0 342.89 Z" class="st1"/>
			<text x="14.77" y="345.89" class="st2" v:langID="1033"><v:paragraph v:horizAlign="1"/><v:tabList/>32</text>		</g>
		<g id="shape4-10" v:mID="4" v:groupContext="shape" transform="translate(60.8947,-162.942)">
			<title>Circle.4</title>
			<desc>25</desc>
			<v:userDefs>
				<v:ud v:nameU="visVersion" v:val="VT0(15):26"/>
			</v:userDefs>
			<v:textBlock v:margins="rect(4,4,4,4)" v:tabSpace="42.5197"/>
			<v:textRect cx="19.8425" cy="342.892" width="34.73" height="29.7638"/>
			<path d="M0 342.89 A19.8425 19.8425 0 0 1 39.69 342.89 A19.8425 19.8425 0 1 1 -0 342.89 Z" class="st1"/>
			<text x="14.77" y="345.89" class="st2" v:langID="1033"><v:paragraph v:horizAlign="1"/><v:tabList/>25</text>		</g>
		<g id="shape5-13" v:mID="5" v:groupContext="shape" transform="translate(152.312,-162.942)">
			<title>Circle.5</title>
			<desc>37</desc>
			<v:userDefs>
				<v:ud v:nameU="visVersion" v:val="VT0(15):26"/>
			</v:userDefs>
			<v:textBlock v:margins="rect(4,4,4,4)" v:tabSpace="42.5197"/>
			<v:textRect cx="19.8425" cy="342.892" width="34.73" height="29.7638"/>
			<path d="M0 342.89 A19.8425 19.8425 0 0 1 39.69 342.89 A19.8425 19.8425 0 1 1 -0 342.89 Z" class="st1"/>
			<text x="14.77" y="345.89" class="st2" v:langID="1033"><v:paragraph v:horizAlign="1"/><v:tabList/>37</text>		</g>
		<g id="shape6-16" v:mID="6" v:groupContext="shape" transform="translate(243.729,-162.942)">
			<title>Circle.6</title>
			<desc>9</desc>
			<v:userDefs>
				<v:ud v:nameU="visVersion" v:val="VT0(15):26"/>
			</v:userDefs>
			<v:textBlock v:margins="rect(4,4,4,4)" v:tabSpace="42.5197"/>
			<v:textRect cx="19.8425" cy="342.892" width="34.73" height="29.7638"/>
			<path d="M0 342.89 A19.8425 19.8425 0 0 1 39.69 342.89 A19.8425 19.8425 0 1 1 -0 342.89 Z" class="st1"/>
			<text x="17.31" y="345.89" class="st2" v:langID="1033"><v:paragraph v:horizAlign="1"/><v:tabList/>9</text>		</g>
		<g id="shape7-19" v:mID="7" v:groupContext="shape" transform="translate(335.147,-162.942)">
			<title>Circle.7</title>
			<desc>19</desc>
			<v:userDefs>
				<v:ud v:nameU="visVersion" v:val="VT0(15):26"/>
			</v:userDefs>
			<v:textBlock v:margins="rect(4,4,4,4)" v:tabSpace="42.5197"/>
			<v:textRect cx="19.8425" cy="342.892" width="34.73" height="29.7638"/>
			<path d="M0 342.89 A19.8425 19.8425 0 0 1 39.69 342.89 A19.8425 19.8425 0 1 1 -0 342.89 Z" class="st1"/>
			<text x="14.77" y="345.89" class="st2" v:langID="1033"><v:paragraph v:horizAlign="1"/><v:tabList/>19</text>		</g>
		<g id="shape8-22" v:mID="8" v:groupContext="shape" v:layerMember="0" transform="translate(200.926,-312.611)">
			<title>Dynamic connector</title>
			<path d="M0 362.73 L-54.55 403.65" class="st3"/>
		</g>
		<g id="shape9-28" v:mID="9" v:groupContext="shape" v:layerMember="0" transform="translate(232.674,-312.611)">
			<title>Dynamic connector.9</title>
			<path d="M0 362.73 L54.55 403.65" class="st3"/>
		</g>
		<g id="shape10-33" v:mID="10" v:groupContext="shape" v:layerMember="0" transform="translate(115.692,-239.586)">
			<title>Dynamic connector.10</title>
			<path d="M0 362.73 L-21.66 397.94" class="st3"/>
		</g>
		<g id="shape11-38" v:mID="11" v:groupContext="shape" v:layerMember="0" transform="translate(136.608,-239.659)">
			<title>Dynamic connector.11</title>
			<path d="M0 362.73 L22.11 398.11" class="st3"/>
		</g>
		<g id="shape12-43" v:mID="12" v:groupContext="shape" v:layerMember="0" transform="translate(297.348,-239.442)">
			<title>Dynamic connector.12</title>
			<path d="M0 362.73 L-20.79 397.61" class="st3"/>
		</g>
		<g id="shape13-48" v:mID="13" v:groupContext="shape" v:layerMember="0" transform="translate(318.255,-239.805)">
			<title>Dynamic connector.13</title>
			<path d="M0 362.73 L23 398.44" class="st3"/>
		</g>
		<g id="shape35-53" v:mID="35" v:groupContext="shape" transform="translate(18.375,-101.997)">
			<title>Circle.35</title>
			<desc>17</desc>
			<v:userDefs>
				<v:ud v:nameU="visVersion" v:val="VT0(15):26"/>
			</v:userDefs>
			<v:textBlock v:margins="rect(4,4,4,4)" v:tabSpace="42.5197"/>
			<v:textRect cx="19.8425" cy="342.892" width="34.73" height="29.7638"/>
			<path d="M0 342.89 A19.8425 19.8425 0 0 1 39.69 342.89 A19.8425 19.8425 0 1 1 -0 342.89 Z" class="st1"/>
			<text x="14.77" y="345.89" class="st2" v:langID="1033"><v:paragraph v:horizAlign="1"/><v:tabList/>17</text>		</g>
		<g id="shape36-56" v:mID="36" v:groupContext="shape" transform="translate(94.9104,-101.997)">
			<title>Circle.36</title>
			<desc>3</desc>
			<v:userDefs>
				<v:ud v:nameU="visVersion" v:val="VT0(15):26"/>
			</v:userDefs>
			<v:textBlock v:margins="rect(4,4,4,4)" v:tabSpace="42.5197"/>
			<v:textRect cx="19.8425" cy="342.892" width="34.73" height="29.7638"/>
			<path d="M0 342.89 A19.8425 19.8425 0 0 1 39.69 342.89 A19.8425 19.8425 0 1 1 -0 342.89 Z" class="st1"/>
			<text x="17.31" y="345.89" class="st2" v:langID="1033"><v:paragraph v:horizAlign="1"/><v:tabList/>3</text>		</g>
		<g id="shape37-59" v:mID="37" v:groupContext="shape" v:layerMember="0" transform="translate(69.3837,-166.511)">
			<title>Dynamic connector.37</title>
			<path d="M0 362.73 L-16.66 386.61" class="st3"/>
		</g>
		<g id="shape38-64" v:mID="38" v:groupContext="shape" v:layerMember="0" transform="translate(90.4078,-165.458)">
			<title>Dynamic connector.38</title>
			<path d="M0 362.73 L11.99 384.21" class="st3"/>
		</g>
		<g id="group39-69" transform="translate(516.827,-285.655)" v:mID="39" v:groupContext="group">
			<title>Sheet.39</title>
			<g id="shape40-70" v:mID="40" v:groupContext="shape">
				<title>Carré.67</title>
				<v:userDefs>
					<v:ud v:nameU="visVersion" v:val="VT0(15):26"/>
				</v:userDefs>
				<rect x="0" y="334.388" width="28.3465" height="28.3465" class="st1"/>
			</g>
			<g id="shape41-72" v:mID="41" v:groupContext="shape" transform="translate(10.6299,-10.6299)">
				<title>Cercle</title>
				<v:userDefs>
					<v:ud v:nameU="visVersion" v:val="VT0(15):26"/>
				</v:userDefs>
				<path d="M0 359.19 A3.54331 3.54331 0 0 1 7.09 359.19 A3.54331 3.54331 0 1 1 0 359.19 Z" class="st5"/>
			</g>
		</g>
		<g id="group43-74" transform="translate(545.173,-285.655)" v:mID="43" v:groupContext="group">
			<title>Sheet.43</title>
			<g id="shape44-75" v:mID="44" v:groupContext="shape">
				<title>Carré.106</title>
				<v:userDefs>
					<v:ud v:nameU="visVersion" v:val="VT0(15):26"/>
				</v:userDefs>
				<rect x="0" y="334.388" width="28.3465" height="28.3465" class="st1"/>
			</g>
			<g id="shape45-77" v:mID="45" v:groupContext="shape" transform="translate(10.6299,-10.6299)">
				<title>Cercle.107</title>
				<v:userDefs>
					<v:ud v:nameU="visVersion" v:val="VT0(15):26"/>
				</v:userDefs>
				<path d="M0 359.19 A3.54331 3.54331 0 0 1 7.09 359.19 A3.54331 3.54331 0 1 1 0 359.19 Z" class="st5"/>
			</g>
		</g>
		<g id="shape54-79" v:mID="54" v:groupContext="shape" transform="translate(449.271,-313.178)">
			<title>Carré.105</title>
			<v:userDefs>
				<v:ud v:nameU="visVersion" v:val="VT0(15):26"/>
			</v:userDefs>
			<rect x="0" y="334.388" width="28.3465" height="28.3465" class="st1"/>
		</g>
		<g id="shape55-81" v:mID="55" v:groupContext="shape" transform="translate(459.901,-323.808)">
			<title>Cercle.106</title>
			<v:userDefs>
				<v:ud v:nameU="visVersion" v:val="VT0(15):26"/>
			</v:userDefs>
			<path d="M0 359.19 A3.54331 3.54331 0 0 1 7.09 359.19 A3.54331 3.54331 0 1 1 0 359.19 Z" class="st5"/>
		</g>
		<g id="shape56-83" v:mID="56" v:groupContext="shape" transform="translate(395.029,-316.759)">
			<title>Sheet.56</title>
			<desc>root</desc>
			<v:textBlock v:margins="rect(4,4,4,4)" v:tabSpace="42.5197"/>
			<v:textRect cx="27.1575" cy="352.734" width="54.32" height="20"/>
			<rect x="0" y="342.734" width="54.315" height="20" class="st6"/>
			<text x="28.99" y="356.33" class="st7" v:langID="1033"><v:paragraph v:horizAlign="2"/><v:tabList/>root</text>		</g>
		<g id="shape57-86" v:mID="57" v:groupContext="shape" transform="translate(516.827,-314.093)">
			<title>Rectangle</title>
			<desc>54</desc>
			<v:userDefs>
				<v:ud v:nameU="visVersion" v:val="VT0(15):26"/>
			</v:userDefs>
			<v:textBlock v:margins="rect(4,4,4,4)" v:tabSpace="42.5197"/>
			<v:textRect cx="28.3465" cy="348.561" width="56.7" height="28.3465"/>
			<rect x="0" y="334.388" width="56.6929" height="28.3465" class="st1"/>
			<text x="23.28" y="351.56" class="st2" v:langID="1033"><v:paragraph v:horizAlign="1"/><v:tabList/>54</text>		</g>
		<g id="group58-89" transform="translate(525.422,-199.792)" v:mID="58" v:groupContext="group">
			<title>Sheet.58</title>
			<g id="shape59-90" v:mID="59" v:groupContext="shape">
				<title>Carré.67</title>
				<v:userDefs>
					<v:ud v:nameU="visVersion" v:val="VT0(15):26"/>
				</v:userDefs>
				<rect x="0" y="334.388" width="28.3465" height="28.3465" class="st1"/>
			</g>
			<g id="shape60-92" v:mID="60" v:groupContext="shape" transform="translate(10.6299,-10.6299)">
				<title>Cercle</title>
				<v:userDefs>
					<v:ud v:nameU="visVersion" v:val="VT0(15):26"/>
				</v:userDefs>
				<path d="M0 359.19 A3.54331 3.54331 0 0 1 7.09 359.19 A3.54331 3.54331 0 1 1 0 359.19 Z" class="st5"/>
			</g>
		</g>
		<g id="group61-94" transform="translate(553.769,-199.792)" v:mID="61" v:groupContext="group">
			<title>Sheet.61</title>
			<g id="shape62-95" v:mID="62" v:groupContext="shape">
				<title>Carré.106</title>
				<v:userDefs>
					<v:ud v:nameU="visVersion" v:val="VT0(15):26"/>
				</v:userDefs>
				<rect x="0" y="334.388" width="28.3465" height="28.3465" class="st1"/>
			</g>
			<g id="shape63-97" v:mID="63" v:groupContext="shape" transform="translate(10.6299,-10.6299)">
				<title>Cercle.107</title>
				<v:userDefs>
					<v:ud v:nameU="visVersion" v:val="VT0(15):26"/>
				</v:userDefs>
				<path d="M0 359.19 A3.54331 3.54331 0 0 1 7.09 359.19 A3.54331 3.54331 0 1 1 0 359.19 Z" class="st5"/>
			</g>
		</g>
		<g id="shape64-99" v:mID="64" v:groupContext="shape" transform="translate(525.422,-228.23)">
			<title>Rectangle.64</title>
			<desc>41</desc>
			<v:userDefs>
				<v:ud v:nameU="visVersion" v:val="VT0(15):26"/>
			</v:userDefs>
			<v:textBlock v:margins="rect(4,4,4,4)" v:tabSpace="42.5197"/>
			<v:textRect cx="28.3465" cy="348.561" width="56.7" height="28.3465"/>
			<rect x="0" y="334.388" width="56.6929" height="28.3465" class="st1"/>
			<text x="23.28" y="351.56" class="st2" v:langID="1033"><v:paragraph v:horizAlign="1"/><v:tabList/>41</text>		</g>
		<g id="group65-102" transform="translate(599.123,-225.213)" v:mID="65" v:groupContext="group">
			<title>Sheet.65</title>
			<g id="shape66-103" v:mID="66" v:groupContext="shape">
				<title>Carré.67</title>
				<v:userDefs>
					<v:ud v:nameU="visVersion" v:val="VT0(15):26"/>
				</v:userDefs>
				<rect x="0" y="334.388" width="28.3465" height="28.3465" class="st1"/>
			</g>
			<g id="shape67-105" v:mID="67" v:groupContext="shape" transform="translate(10.6299,-10.6299)">
				<title>Cercle</title>
				<v:userDefs>
					<v:ud v:nameU="visVersion" v:val="VT0(15):26"/>
				</v:userDefs>
				<path d="M0 359.19 A3.54331 3.54331 0 0 1 7.09 359.19 A3.54331 3.54331 0 1 1 0 359.19 Z" class="st5"/>
			</g>
		</g>
		<g id="group68-107" transform="translate(627.47,-225.213)" v:mID="68" v:groupContext="group">
			<title>Sheet.68</title>
			<g id="shape69-108" v:mID="69" v:groupContext="shape">
				<title>Carré.106</title>
				<v:userDefs>
					<v:ud v:nameU="visVersion" v:val="VT0(15):26"/>
				</v:userDefs>
				<rect x="0" y="334.388" width="28.3465" height="28.3465" class="st1"/>
			</g>
			<g id="shape70-110" v:mID="70" v:groupContext="shape" transform="translate(10.6299,-10.6299)">
				<title>Cercle.107</title>
				<v:userDefs>
					<v:ud v:nameU="visVersion" v:val="VT0(15):26"/>
				</v:userDefs>
				<path d="M0 359.19 A3.54331 3.54331 0 0 1 7.09 359.19 A3.54331 3.54331 0 1 1 0 359.19 Z" class="st5"/>
			</g>
		</g>
		<g id="shape71-112" v:mID="71" v:groupContext="shape" transform="translate(599.123,-253.651)">
			<title>Rectangle.71</title>
			<desc>32</desc>
			<v:userDefs>
				<v:ud v:nameU="visVersion" v:val="VT0(15):26"/>
			</v:userDefs>
			<v:textBlock v:margins="rect(4,4,4,4)" v:tabSpace="42.5197"/>
			<v:textRect cx="28.3465" cy="348.561" width="56.7" height="28.3465"/>
			<rect x="0" y="334.388" width="56.6929" height="28.3465" class="st1"/>
			<text x="23.28" y="351.56" class="st2" v:langID="1033"><v:paragraph v:horizAlign="1"/><v:tabList/>32</text>		</g>
		<g id="shape72-115" v:mID="72" v:groupContext="shape" v:layerMember="0" transform="translate(531,-299.828)">
			<title>Dynamic connector.72</title>
			<path d="M0 362.73 L0 374.26 A11.3386 11.3386 -180 0 0 11.34 385.59 L12.57 385.59 A10.1956 10.1956 0 0 1 22.77 395.79
						 L22.77 400.47" class="st3"/>
		</g>
		<g id="shape73-120" v:mID="73" v:groupContext="shape" v:layerMember="0" transform="translate(559.347,-299.828)">
			<title>Dynamic connector.73</title>
			<path d="M0 362.73 L59.21 362.73 A8.91542 8.91542 0 0 1 68.12 371.65 L68.12 375.05" class="st3"/>
		</g>
		<g id="shape89-125" v:mID="89" v:groupContext="shape" transform="translate(18.375,-41.0522)">
			<title>Circle.89</title>
			<desc>7</desc>
			<v:userDefs>
				<v:ud v:nameU="visVersion" v:val="VT0(15):26"/>
			</v:userDefs>
			<v:textBlock v:margins="rect(4,4,4,4)" v:tabSpace="42.5197"/>
			<v:textRect cx="19.8425" cy="342.892" width="34.73" height="29.7638"/>
			<path d="M0 342.89 A19.8425 19.8425 0 0 1 39.69 342.89 A19.8425 19.8425 0 1 1 -0 342.89 Z" class="st1"/>
			<text x="17.31" y="345.89" class="st2" v:langID="1033"><v:paragraph v:horizAlign="1"/><v:tabList/>7</text>		</g>
		<g id="shape90-128" v:mID="90" v:groupContext="shape" v:layerMember="0" transform="translate(31.1309,-101.997)">
			<title>Dynamic connector.90</title>
			<path d="M7.09 362.73 L7.09 378.48" class="st3"/>
		</g>
		<g id="group99-133" transform="translate(440.383,-199.701)" v:mID="99" v:groupContext="group">
			<title>Sheet.99</title>
			<g id="shape100-134" v:mID="100" v:groupContext="shape">
				<title>Carré.67</title>
				<v:userDefs>
					<v:ud v:nameU="visVersion" v:val="VT0(15):26"/>
				</v:userDefs>
				<rect x="0" y="334.388" width="28.3465" height="28.3465" class="st1"/>
			</g>
			<g id="shape101-136" v:mID="101" v:groupContext="shape" transform="translate(10.6299,-10.6299)">
				<title>Cercle</title>
				<v:userDefs>
					<v:ud v:nameU="visVersion" v:val="VT0(15):26"/>
				</v:userDefs>
				<path d="M0 359.19 A3.54331 3.54331 0 0 1 7.09 359.19 A3.54331 3.54331 0 1 1 0 359.19 Z" class="st5"/>
			</g>
		</g>
		<g id="group102-138" transform="translate(468.729,-199.701)" v:mID="102" v:groupContext="group">
			<title>Sheet.102</title>
			<g id="shape103-139" v:mID="103" v:groupContext="shape">
				<title>Carré.106</title>
				<v:userDefs>
					<v:ud v:nameU="visVersion" v:val="VT0(15):26"/>
				</v:userDefs>
				<rect x="0" y="334.388" width="28.3465" height="28.3465" class="st1"/>
			</g>
			<g id="shape104-141" v:mID="104" v:groupContext="shape" transform="translate(10.6299,-10.6299)">
				<title>Cercle.107</title>
				<v:userDefs>
					<v:ud v:nameU="visVersion" v:val="VT0(15):26"/>
				</v:userDefs>
				<path d="M0 359.19 A3.54331 3.54331 0 0 1 7.09 359.19 A3.54331 3.54331 0 1 1 0 359.19 Z" class="st5"/>
			</g>
		</g>
		<g id="shape105-143" v:mID="105" v:groupContext="shape" transform="translate(440.383,-228.139)">
			<title>Rectangle.105</title>
			<desc>25</desc>
			<v:userDefs>
				<v:ud v:nameU="visVersion" v:val="VT0(15):26"/>
			</v:userDefs>
			<v:textBlock v:margins="rect(4,4,4,4)" v:tabSpace="42.5197"/>
			<v:textRect cx="28.3465" cy="348.561" width="56.7" height="28.3465"/>
			<rect x="0" y="334.388" width="56.6929" height="28.3465" class="st1"/>
			<text x="23.28" y="351.56" class="st2" v:langID="1033"><v:paragraph v:horizAlign="1"/><v:tabList/>25</text>		</g>
		<g id="group106-146" transform="translate(440.383,-109.084)" v:mID="106" v:groupContext="group">
			<title>Sheet.106</title>
			<g id="shape107-147" v:mID="107" v:groupContext="shape">
				<title>Carré.67</title>
				<v:userDefs>
					<v:ud v:nameU="visVersion" v:val="VT0(15):26"/>
				</v:userDefs>
				<rect x="0" y="334.388" width="28.3465" height="28.3465" class="st1"/>
			</g>
			<g id="shape108-149" v:mID="108" v:groupContext="shape" transform="translate(10.6299,-10.6299)">
				<title>Cercle</title>
				<v:userDefs>
					<v:ud v:nameU="visVersion" v:val="VT0(15):26"/>
				</v:userDefs>
				<path d="M0 359.19 A3.54331 3.54331 0 0 1 7.09 359.19 A3.54331 3.54331 0 1 1 0 359.19 Z" class="st5"/>
			</g>
		</g>
		<g id="shape112-151" v:mID="112" v:groupContext="shape" transform="translate(440.383,-137.522)">
			<title>Rectangle.112</title>
			<desc>17</desc>
			<v:userDefs>
				<v:ud v:nameU="visVersion" v:val="VT0(15):26"/>
			</v:userDefs>
			<v:textBlock v:margins="rect(4,4,4,4)" v:tabSpace="42.5197"/>
			<v:textRect cx="28.3465" cy="348.561" width="56.7" height="28.3465"/>
			<rect x="0" y="334.388" width="56.6929" height="28.3465" class="st1"/>
			<text x="23.28" y="351.56" class="st2" v:langID="1033"><v:paragraph v:horizAlign="1"/><v:tabList/>17</text>		</g>
		<g id="shape119-154" v:mID="119" v:groupContext="shape" transform="translate(519.753,-120.422)">
			<title>Rectangle.119</title>
			<desc>3</desc>
			<v:userDefs>
				<v:ud v:nameU="visVersion" v:val="VT0(15):26"/>
			</v:userDefs>
			<v:textBlock v:margins="rect(4,4,4,4)" v:tabSpace="42.5197"/>
			<v:textRect cx="28.3465" cy="348.561" width="56.7" height="28.3465"/>
			<rect x="0" y="334.388" width="56.6929" height="28.3465" class="st1"/>
			<text x="25.81" y="351.56" class="st2" v:langID="1033"><v:paragraph v:horizAlign="1"/><v:tabList/>3</text>		</g>
		<g id="shape126-157" v:mID="126" v:groupContext="shape" transform="translate(689.832,-313.27)">
			<title>Rectangle.126</title>
			<desc>19</desc>
			<v:userDefs>
				<v:ud v:nameU="visVersion" v:val="VT0(15):26"/>
			</v:userDefs>
			<v:textBlock v:margins="rect(4,4,4,4)" v:tabSpace="42.5197"/>
			<v:textRect cx="28.3465" cy="348.561" width="56.7" height="28.3465"/>
			<rect x="0" y="334.388" width="56.6929" height="28.3465" class="st1"/>
			<text x="23.28" y="351.56" class="st2" v:langID="1033"><v:paragraph v:horizAlign="1"/><v:tabList/>19</text>		</g>
		<g id="shape134-160" v:mID="134" v:groupContext="shape" v:layerMember="0" transform="translate(641.643,-239.386)">
			<title>Dynamic connector.134</title>
			<path d="M0 362.73 L26.22 362.73 A11.3386 11.3386 -180 0 0 37.56 351.4 L37.56 279.99 A5.31496 5.31496 0 0 1 42.87 274.68
						 L48.19 274.68" class="st8"/>
		</g>
		<g id="shape142-166" v:mID="142" v:groupContext="shape" transform="translate(689.832,-194.123)">
			<title>Rectangle.142</title>
			<desc>9</desc>
			<v:userDefs>
				<v:ud v:nameU="visVersion" v:val="VT0(15):26"/>
			</v:userDefs>
			<v:textBlock v:margins="rect(4,4,4,4)" v:tabSpace="42.5197"/>
			<v:textRect cx="28.3465" cy="348.561" width="56.7" height="28.3465"/>
			<rect x="0" y="334.388" width="56.6929" height="28.3465" class="st1"/>
			<text x="25.81" y="351.56" class="st2" v:langID="1033"><v:paragraph v:horizAlign="1"/><v:tabList/>9</text>		</g>
		<g id="shape143-169" v:mID="143" v:groupContext="shape" v:layerMember="0" transform="translate(613.296,-239.386)">
			<title>Dynamic connector.143</title>
			<path d="M0 362.73 L0 382.49 A11.3386 11.3386 -180 0 0 11.34 393.82 L71.02 393.82" class="st3"/>
		</g>
		<g id="shape150-174" v:mID="150" v:groupContext="shape" transform="translate(599.123,-148.86)">
			<title>Rectangle.150</title>
			<desc>37</desc>
			<v:userDefs>
				<v:ud v:nameU="visVersion" v:val="VT0(15):26"/>
			</v:userDefs>
			<v:textBlock v:margins="rect(4,4,4,4)" v:tabSpace="42.5197"/>
			<v:textRect cx="28.3465" cy="348.561" width="56.7" height="28.3465"/>
			<rect x="0" y="334.388" width="56.6929" height="28.3465" class="st1"/>
			<text x="23.28" y="351.56" class="st2" v:langID="1033"><v:paragraph v:horizAlign="1"/><v:tabList/>37</text>		</g>
		<g id="shape151-177" v:mID="151" v:groupContext="shape" v:layerMember="0" transform="translate(567.942,-213.966)">
			<title>Dynamic connector.151</title>
			<path d="M0 362.73 L0 377.52 A11.3386 11.3386 -180 0 0 11.34 388.86 L54.21 388.86 A5.31496 5.31496 0 0 1 59.53 394.18
						 L59.53 399.49" class="st8"/>
		</g>
		<g id="shape152-182" v:mID="152" v:groupContext="shape" v:layerMember="0" transform="translate(539.595,-213.966)">
			<title>Dynamic connector.152</title>
			<path d="M0 362.73 L-20.55 362.73 A11.3386 11.3386 0 0 1 -31.89 351.4 L-31.89 339.7 A5.31496 5.31496 -180 0 0 -37.2 334.39
						 L-42.52 334.39" class="st8"/>
		</g>
		<g id="shape153-187" v:mID="153" v:groupContext="shape" v:layerMember="0" transform="translate(454.556,-213.874)">
			<title>Dynamic connector.153</title>
			<path d="M0 362.73 L0 393.02 A7.08661 7.08661 -180 0 0 7.09 400.11 L8.86 400.11 A5.31496 5.31496 0 0 1 14.17 405.43 L14.17
						 410.74" class="st8"/>
		</g>
		<g id="shape154-192" v:mID="154" v:groupContext="shape" v:layerMember="0" transform="translate(482.903,-213.874)">
			<title>Dynamic connector.154</title>
			<path d="M0 362.73 L0 388.77 A11.3386 11.3386 -180 0 0 11.34 400.11 L53.86 400.11 A11.3386 11.3386 0 0 1 65.2 411.45
						 L65.2 422.32" class="st3"/>
		</g>
		<g id="shape161-197" v:mID="161" v:groupContext="shape" transform="translate(463.06,-46.8129)">
			<title>Rectangle.161</title>
			<desc>7</desc>
			<v:userDefs>
				<v:ud v:nameU="visVersion" v:val="VT0(15):26"/>
			</v:userDefs>
			<v:textBlock v:margins="rect(4,4,4,4)" v:tabSpace="42.5197"/>
			<v:textRect cx="28.3465" cy="348.561" width="56.7" height="28.3465"/>
			<rect x="0" y="334.388" width="56.6929" height="28.3465" class="st1"/>
			<text x="25.81" y="351.56" class="st2" v:langID="1033"><v:paragraph v:horizAlign="1"/><v:tabList/>7</text>		</g>
		<g id="shape162-200" v:mID="162" v:groupContext="shape" v:layerMember="0" transform="translate(454.556,-123.257)">
			<title>Dynamic connector.162</title>
			<path d="M0 362.73 L0 383.14 A11.3386 11.3386 -180 0 0 11.34 394.48 L28.68 394.48 A8.17475 8.17475 0 0 1 36.85 402.66
						 L36.85 405.32" class="st3"/>
		</g>
		<g id="group163-205" transform="translate(491.407,-18.375)" v:mID="163" v:groupContext="group">
			<title>Sheet.163</title>
			<g id="shape164-206" v:mID="164" v:groupContext="shape" transform="translate(6.96085E-07,-6.96085E-07)">
				<title>Carré.88</title>
				<v:userDefs>
					<v:ud v:nameU="visVersion" v:val="VT0(15):26"/>
				</v:userDefs>
				<rect x="0" y="334.388" width="28.3465" height="28.3465" class="st1"/>
			</g>
			<g id="shape165-208" v:mID="165" v:groupContext="shape" transform="translate(256.492,77.896) rotate(45)">
				<title>Sheet.165</title>
				<path d="M0 362.73 L40.09 362.73" class="st9"/>
			</g>
			<g id="shape166-211" v:mID="166" v:groupContext="shape" transform="translate(284.838,590.88) rotate(135)">
				<title>Sheet.166</title>
				<path d="M0 362.73 L40.09 362.73" class="st9"/>
			</g>
		</g>
		<g id="group167-214" transform="translate(463.06,-18.375)" v:mID="167" v:groupContext="group">
			<title>Sheet.167</title>
			<g id="shape168-215" v:mID="168" v:groupContext="shape" transform="translate(6.96085E-07,-6.96085E-07)">
				<title>Carré.88</title>
				<v:userDefs>
					<v:ud v:nameU="visVersion" v:val="VT0(15):26"/>
				</v:userDefs>
				<rect x="0" y="334.388" width="28.3465" height="28.3465" class="st1"/>
			</g>
			<g id="shape169-217" v:mID="169" v:groupContext="shape" transform="translate(256.492,77.896) rotate(45)">
				<title>Sheet.169</title>
				<path d="M0 362.73 L40.09 362.73" class="st9"/>
			</g>
			<g id="shape170-220" v:mID="170" v:groupContext="shape" transform="translate(284.838,590.88) rotate(135)">
				<title>Sheet.170</title>
				<path d="M0 362.73 L40.09 362.73" class="st9"/>
			</g>
		</g>
		<g id="group179-223" transform="translate(519.753,-92.0758)" v:mID="179" v:groupContext="group">
			<title>Sheet.179</title>
			<g id="group171-224" transform="translate(28.3465,-5.68434E-14)" v:mID="171" v:groupContext="group">
				<title>Sheet.171</title>
				<g id="shape172-225" v:mID="172" v:groupContext="shape" transform="translate(6.96085E-07,-6.96085E-07)">
					<title>Carré.88</title>
					<v:userDefs>
						<v:ud v:nameU="visVersion" v:val="VT0(15):26"/>
					</v:userDefs>
					<rect x="0" y="334.388" width="28.3465" height="28.3465" class="st1"/>
				</g>
				<g id="shape173-227" v:mID="173" v:groupContext="shape" transform="translate(256.492,77.896) rotate(45)">
					<title>Sheet.173</title>
					<path d="M0 362.73 L40.09 362.73" class="st9"/>
				</g>
				<g id="shape174-230" v:mID="174" v:groupContext="shape" transform="translate(284.838,590.88) rotate(135)">
					<title>Sheet.174</title>
					<path d="M0 362.73 L40.09 362.73" class="st9"/>
				</g>
			</g>
			<g id="group175-233" v:mID="175" v:groupContext="group">
				<title>Sheet.175</title>
				<g id="shape176-234" v:mID="176" v:groupContext="shape" transform="translate(6.96085E-07,-6.96085E-07)">
					<title>Carré.88</title>
					<v:userDefs>
						<v:ud v:nameU="visVersion" v:val="VT0(15):26"/>
					</v:userDefs>
					<rect x="0" y="334.388" width="28.3465" height="28.3465" class="st1"/>
				</g>
				<g id="shape177-236" v:mID="177" v:groupContext="shape" transform="translate(256.492,77.896) rotate(45)">
					<title>Sheet.177</title>
					<path d="M0 362.73 L40.09 362.73" class="st9"/>
				</g>
				<g id="shape178-239" v:mID="178" v:groupContext="shape" transform="translate(284.838,590.88) rotate(135)">
					<title>Sheet.178</title>
					<path d="M0 362.73 L40.09 362.73" class="st9"/>
				</g>
			</g>
		</g>
		<g id="group180-242" transform="translate(627.47,-120.422)" v:mID="180" v:groupContext="group">
			<title>Sheet.180</title>
			<g id="shape181-243" v:mID="181" v:groupContext="shape" transform="translate(6.96085E-07,-6.96085E-07)">
				<title>Carré.88</title>
				<v:userDefs>
					<v:ud v:nameU="visVersion" v:val="VT0(15):26"/>
				</v:userDefs>
				<rect x="0" y="334.388" width="28.3465" height="28.3465" class="st1"/>
			</g>
			<g id="shape182-245" v:mID="182" v:groupContext="shape" transform="translate(256.492,77.896) rotate(45)">
				<title>Sheet.182</title>
				<path d="M0 362.73 L40.09 362.73" class="st9"/>
			</g>
			<g id="shape183-248" v:mID="183" v:groupContext="shape" transform="translate(284.838,590.88) rotate(135)">
				<title>Sheet.183</title>
				<path d="M0 362.73 L40.09 362.73" class="st9"/>
			</g>
		</g>
		<g id="group184-251" transform="translate(599.123,-120.422)" v:mID="184" v:groupContext="group">
			<title>Sheet.184</title>
			<g id="shape185-252" v:mID="185" v:groupContext="shape" transform="translate(6.96085E-07,-6.96085E-07)">
				<title>Carré.88</title>
				<v:userDefs>
					<v:ud v:nameU="visVersion" v:val="VT0(15):26"/>
				</v:userDefs>
				<rect x="0" y="334.388" width="28.3465" height="28.3465" class="st1"/>
			</g>
			<g id="shape186-254" v:mID="186" v:groupContext="shape" transform="translate(256.492,77.896) rotate(45)">
				<title>Sheet.186</title>
				<path d="M0 362.73 L40.09 362.73" class="st9"/>
			</g>
			<g id="shape187-257" v:mID="187" v:groupContext="shape" transform="translate(284.838,590.88) rotate(135)">
				<title>Sheet.187</title>
				<path d="M0 362.73 L40.09 362.73" class="st9"/>
			</g>
		</g>
		<g id="group188-260" transform="translate(718.178,-165.777)" v:mID="188" v:groupContext="group">
			<title>Sheet.188</title>
			<g id="shape189-261" v:mID="189" v:groupContext="shape" transform="translate(6.96085E-07,-6.96085E-07)">
				<title>Carré.88</title>
				<v:userDefs>
					<v:ud v:nameU="visVersion" v:val="VT0(15):26"/>
				</v:userDefs>
				<rect x="0" y="334.388" width="28.3465" height="28.3465" class="st1"/>
			</g>
			<g id="shape190-263" v:mID="190" v:groupContext="shape" transform="translate(256.492,77.896) rotate(45)">
				<title>Sheet.190</title>
				<path d="M0 362.73 L40.09 362.73" class="st9"/>
			</g>
			<g id="shape191-266" v:mID="191" v:groupContext="shape" transform="translate(284.838,590.88) rotate(135)">
				<title>Sheet.191</title>
				<path d="M0 362.73 L40.09 362.73" class="st9"/>
			</g>
		</g>
		<g id="group192-269" transform="translate(689.832,-165.777)" v:mID="192" v:groupContext="group">
			<title>Sheet.192</title>
			<g id="shape193-270" v:mID="193" v:groupContext="shape" transform="translate(6.96085E-07,-6.96085E-07)">
				<title>Carré.88</title>
				<v:userDefs>
					<v:ud v:nameU="visVersion" v:val="VT0(15):26"/>
				</v:userDefs>
				<rect x="0" y="334.388" width="28.3465" height="28.3465" class="st1"/>
			</g>
			<g id="shape194-272" v:mID="194" v:groupContext="shape" transform="translate(256.492,77.896) rotate(45)">
				<title>Sheet.194</title>
				<path d="M0 362.73 L40.09 362.73" class="st9"/>
			</g>
			<g id="shape195-275" v:mID="195" v:groupContext="shape" transform="translate(284.838,590.88) rotate(135)">
				<title>Sheet.195</title>
				<path d="M0 362.73 L40.09 362.73" class="st9"/>
			</g>
		</g>
		<g id="group196-278" transform="translate(718.178,-284.832)" v:mID="196" v:groupContext="group">
			<title>Sheet.196</title>
			<g id="shape197-279" v:mID="197" v:groupContext="shape" transform="translate(6.96085E-07,-6.96085E-07)">
				<title>Carré.88</title>
				<v:userDefs>
					<v:ud v:nameU="visVersion" v:val="VT0(15):26"/>
				</v:userDefs>
				<rect x="0" y="334.388" width="28.3465" height="28.3465" class="st1"/>
			</g>
			<g id="shape198-281" v:mID="198" v:groupContext="shape" transform="translate(256.492,77.896) rotate(45)">
				<title>Sheet.198</title>
				<path d="M0 362.73 L40.09 362.73" class="st9"/>
			</g>
			<g id="shape199-284" v:mID="199" v:groupContext="shape" transform="translate(284.838,590.88) rotate(135)">
				<title>Sheet.199</title>
				<path d="M0 362.73 L40.09 362.73" class="st9"/>
			</g>
		</g>
		<g id="group200-287" transform="translate(689.832,-284.832)" v:mID="200" v:groupContext="group">
			<title>Sheet.200</title>
			<g id="shape201-288" v:mID="201" v:groupContext="shape" transform="translate(6.96085E-07,-6.96085E-07)">
				<title>Carré.88</title>
				<v:userDefs>
					<v:ud v:nameU="visVersion" v:val="VT0(15):26"/>
				</v:userDefs>
				<rect x="0" y="334.388" width="28.3465" height="28.3465" class="st1"/>
			</g>
			<g id="shape202-290" v:mID="202" v:groupContext="shape" transform="translate(256.492,77.896) rotate(45)">
				<title>Sheet.202</title>
				<path d="M0 362.73 L40.09 362.73" class="st9"/>
			</g>
			<g id="shape203-293" v:mID="203" v:groupContext="shape" transform="translate(284.838,590.88) rotate(135)">
				<title>Sheet.203</title>
				<path d="M0 362.73 L40.09 362.73" class="st9"/>
			</g>
		</g>
		<g id="group208-296" transform="translate(468.729,-109.084)" v:mID="208" v:groupContext="group">
			<title>Sheet.208</title>
			<g id="shape209-297" v:mID="209" v:groupContext="shape" transform="translate(6.96085E-07,-6.96085E-07)">
				<title>Carré.88</title>
				<v:userDefs>
					<v:ud v:nameU="visVersion" v:val="VT0(15):26"/>
				</v:userDefs>
				<rect x="0" y="334.388" width="28.3465" height="28.3465" class="st1"/>
			</g>
			<g id="shape210-299" v:mID="210" v:groupContext="shape" transform="translate(256.492,77.896) rotate(45)">
				<title>Sheet.210</title>
				<path d="M0 362.73 L40.09 362.73" class="st9"/>
			</g>
			<g id="shape211-302" v:mID="211" v:groupContext="shape" transform="translate(284.838,590.88) rotate(135)">
				<title>Sheet.211</title>
				<path d="M0 362.73 L40.09 362.73" class="st9"/>
			</g>
		</g>
		<g id="shape213-305" v:mID="213" v:groupContext="shape" v:layerMember="0" transform="translate(463.444,-320.722)">
			<title>Dynamic connector.213</title>
			<path d="M0 356.1 L47.87 355.28" class="st3"/>
		</g>
	</g>
</svg>
