<?xml version="1.0" encoding="UTF-8" standalone="no"?>
<!DOCTYPE svg PUBLIC "-//W3C//DTD SVG 1.1//EN" "http://www.w3.org/Graphics/SVG/1.1/DTD/svg11.dtd">
<!-- Generated by Microsoft Visio, SVG Export build-steps.svg Page-1 -->
<svg xmlns="http://www.w3.org/2000/svg" xmlns:xlink="http://www.w3.org/1999/xlink" xmlns:ev="http://www.w3.org/2001/xml-events"
		xmlns:v="http://schemas.microsoft.com/visio/2003/SVGExtensions/" width="6.65285in" height="6.83905in"
		viewBox="0 0 479.005 492.412" xml:space="preserve" color-interpolation-filters="sRGB" class="st11">
	<v:documentProperties v:langID="1036" v:metric="true" v:viewMarkup="false">
		<v:userDefs>
			<v:ud v:nameU="msvSubprocessMaster" v:prompt="" v:val="VT4(Rectangle)"/>
			<v:ud v:nameU="msvNoAutoConnect" v:val="VT0(1):26"/>
		</v:userDefs>
	</v:documentProperties>

	<style type="text/css">
	<![CDATA[
		.st1 {stroke:#000000;stroke-dasharray:1.66346,1.18819;stroke-linecap:round;stroke-linejoin:round;stroke-width:0.237638}
		.st2 {fill:#d8d8d8;stroke:#000000;stroke-linecap:round;stroke-linejoin:round;stroke-width:0.75}
		.st3 {fill:#ffffff}
		.st4 {fill:#d8d8d8;stroke:none;stroke-linecap:round;stroke-linejoin:round;stroke-width:0.75}
		.st5 {fill:#000000;font-family:Calibri;font-size:0.833336em;font-style:italic}
		.st6 {marker-end:url(#mrkr4-99);stroke:#000000;stroke-linecap:round;stroke-linejoin:round;stroke-width:0.237638}
		.st7 {fill:#000000;fill-opacity:1;stroke:#000000;stroke-opacity:1;stroke-width:0.086174404659928}
		.st8 {fill:none;stroke:none;stroke-linecap:round;stroke-linejoin:round;stroke-width:0.75}
		.st9 {fill:#000000;font-family:Calibri;font-size:1.00001em}
		.st10 {font-size:1em}
		.st11 {fill:none;fill-rule:evenodd;font-size:12px;overflow:visible;stroke-linecap:square;stroke-miterlimit:3}
	]]>
	</style>

	<defs id="Markers">
		<g id="lend4">
			<path d="M 2 1 L 0 0 L 2 -1 L 2 1 " style="stroke:none"/>
		</g>
		<marker id="mrkr4-99" class="st7" v:arrowType="4" v:arrowSize="2" v:setback="23.2087" refX="-23.208747514911" orient="auto"
				markerUnits="strokeWidth" overflow="visible">
			<use xlink:href="#lend4" transform="scale(-11.604373757455,-11.604373757455) "/>
		</marker>
	</defs>
	<g v:mID="0" v:index="1" v:groupContext="foregroundPage">
		<v:userDefs>
			<v:ud v:nameU="msvThemeOrder" v:val="VT0(0):26"/>
		</v:userDefs>
		<title>Page 1</title>
		<v:pageProperties v:drawingScale="0.0393701" v:pageScale="0.0393701" v:drawingUnits="24" v:shadowOffsetX="8.50394"
				v:shadowOffsetY="-8.50394"/>
		<v:layer v:name="Diagramme de flux" v:index="0"/>
		<v:layer v:name="Lien" v:index="1"/>
		<g id="shape86-1" v:mID="86" v:groupContext="shape" transform="translate(151.43,-60.8661)">
			<title>Sheet.86</title>
			<path d="M0 492.41 L198.57 492.41" class="st1"/>
		</g>
		<g id="shape84-4" v:mID="84" v:groupContext="shape" transform="translate(42.7805,-188.425)">
			<title>Sheet.84</title>
			<path d="M0 492.41 L307.49 492.41" class="st1"/>
		</g>
		<g id="shape82-7" v:mID="82" v:groupContext="shape" transform="translate(43.0413,-321.811)">
			<title>Sheet.82</title>
			<path d="M0 492.41 L307.49 492.41" class="st1"/>
		</g>
		<g id="shape80-10" v:mID="80" v:groupContext="shape" transform="translate(41.624,-449.253)">
			<title>Sheet.80</title>
			<path d="M0 492.41 L307.49 492.41" class="st1"/>
		</g>
		<g id="group4-13" transform="translate(41.6333,-424.47)" v:mID="4" v:groupContext="group" v:layerMember="0">
			<v:userDefs>
				<v:ud v:nameU="visVersion" v:prompt="" v:val="VT0(15):26"/>
				<v:ud v:nameU="ConnGap" v:prompt="" v:val="VT0(0.00012908222537757):24"/>
			</v:userDefs>
			<title>Document.4</title>
			<g id="shape5-14" v:mID="5" v:groupContext="shape" v:layerMember="0">
				<title>Sheet.5</title>
				<path d="M35.69 452.29 L26.82 442.84 L0 442.84 L0 492.41 L35.69 492.41 L35.69 452.29 Z" class="st2"/>
			</g>
			<g id="shape6-16" v:mID="6" v:groupContext="shape" v:layerMember="0" transform="translate(6.50566,-9.97147)">
				<title>Sheet.6</title>
				<v:userDefs>
					<v:ud v:nameU="SurroundingRegionColor" v:prompt="" v:val="VT0(1):26"/>
					<v:ud v:nameU="SurroundingRegionColor" v:prompt="" v:val="VT5(#d8d8d8)"/>
				</v:userDefs>
				<path d="M13.38 492.41 L22.49 492.41 L22.49 491.15 L13.38 491.15 L13.38 492.41 ZM0 486.51 L22.49 486.51 L22.49 485.25
							 L0 485.25 L0 486.51 ZM0 480.6 L22.49 480.6 L22.49 479.34 L0 479.34 L0 480.6 ZM0 474.7 L22.49 474.7 L22.49
							 473.44 L0 473.44 L0 474.7 ZM0 468.79 L9.11 468.79 L9.11 467.53 L0 467.53 L0 468.79 ZM0 462.88 L9.11
							 462.88 L9.11 461.63 L0 461.63 L0 462.88 ZM20.05 453.15 L20.05 462.28 L28.64 462.28 L20.05 453.15 Z"
						class="st3"/>
			</g>
		</g>
		<g id="shape10-19" v:mID="10" v:groupContext="shape" transform="translate(18.375,-365.912)">
			<title>Rectangle</title>
			<desc>preprocessing</desc>
			<v:userDefs>
				<v:ud v:nameU="visVersion" v:val="VT0(15):26"/>
			</v:userDefs>
			<v:textBlock v:margins="rect(4,4,4,4)" v:tabSpace="42.5197"/>
			<v:textRect cx="41.1024" cy="473.763" width="82.21" height="37.298"/>
			<rect x="0" y="455.114" width="82.2047" height="37.298" class="st4"/>
			<text x="12.93" y="476.76" class="st5" v:langID="1033"><v:paragraph v:horizAlign="1"/><v:tabList/>preprocessing</text>		</g>
		<g id="shape11-22" v:mID="11" v:groupContext="shape" transform="translate(18.375,-236.527)">
			<title>Rectangle.11</title>
			<desc>Compilation</desc>
			<v:userDefs>
				<v:ud v:nameU="visVersion" v:val="VT0(15):26"/>
			</v:userDefs>
			<v:textBlock v:margins="rect(4,4,4,4)" v:tabSpace="42.5197"/>
			<v:textRect cx="41.1024" cy="473.763" width="82.21" height="37.298"/>
			<rect x="0" y="455.114" width="82.2047" height="37.298" class="st4"/>
			<text x="16.57" y="476.76" class="st5" v:langID="1033"><v:paragraph v:horizAlign="1"/><v:tabList/>Compilation</text>		</g>
		<g id="group12-25" transform="translate(41.6333,-295.085)" v:mID="12" v:groupContext="group" v:layerMember="0">
			<v:userDefs>
				<v:ud v:nameU="visVersion" v:prompt="" v:val="VT0(15):26"/>
				<v:ud v:nameU="ConnGap" v:prompt="" v:val="VT0(0.00012908222537757):24"/>
			</v:userDefs>
			<title>Document.12</title>
			<g id="shape13-26" v:mID="13" v:groupContext="shape" v:layerMember="0">
				<title>Sheet.13</title>
				<path d="M35.69 452.29 L26.82 442.84 L0 442.84 L0 492.41 L35.69 492.41 L35.69 452.29 Z" class="st2"/>
			</g>
			<g id="shape14-28" v:mID="14" v:groupContext="shape" v:layerMember="0" transform="translate(6.50566,-9.97147)">
				<title>Sheet.14</title>
				<v:userDefs>
					<v:ud v:nameU="SurroundingRegionColor" v:prompt="" v:val="VT0(1):26"/>
					<v:ud v:nameU="SurroundingRegionColor" v:prompt="" v:val="VT5(#d8d8d8)"/>
				</v:userDefs>
				<path d="M13.38 492.41 L22.49 492.41 L22.49 491.15 L13.38 491.15 L13.38 492.41 ZM0 486.51 L22.49 486.51 L22.49 485.25
							 L0 485.25 L0 486.51 ZM0 480.6 L22.49 480.6 L22.49 479.34 L0 479.34 L0 480.6 ZM0 474.7 L22.49 474.7 L22.49
							 473.44 L0 473.44 L0 474.7 ZM0 468.79 L9.11 468.79 L9.11 467.53 L0 467.53 L0 468.79 ZM0 462.88 L9.11
							 462.88 L9.11 461.63 L0 461.63 L0 462.88 ZM20.05 453.15 L20.05 462.28 L28.64 462.28 L20.05 453.15 Z"
						class="st3"/>
			</g>
		</g>
		<g id="group33-31" transform="translate(145.098,-424.47)" v:mID="33" v:groupContext="group" v:layerMember="0">
			<v:userDefs>
				<v:ud v:nameU="visVersion" v:prompt="" v:val="VT0(15):26"/>
				<v:ud v:nameU="ConnGap" v:prompt="" v:val="VT0(0.00012908222537757):24"/>
			</v:userDefs>
			<title>Document.33</title>
			<g id="shape34-32" v:mID="34" v:groupContext="shape" v:layerMember="0">
				<title>Sheet.34</title>
				<path d="M35.69 452.29 L26.82 442.84 L0 442.84 L0 492.41 L35.69 492.41 L35.69 452.29 Z" class="st2"/>
			</g>
			<g id="shape35-34" v:mID="35" v:groupContext="shape" v:layerMember="0" transform="translate(6.50566,-9.97147)">
				<title>Sheet.35</title>
				<v:userDefs>
					<v:ud v:nameU="SurroundingRegionColor" v:prompt="" v:val="VT0(1):26"/>
					<v:ud v:nameU="SurroundingRegionColor" v:prompt="" v:val="VT5(#d8d8d8)"/>
				</v:userDefs>
				<path d="M13.38 492.41 L22.49 492.41 L22.49 491.15 L13.38 491.15 L13.38 492.41 ZM0 486.51 L22.49 486.51 L22.49 485.25
							 L0 485.25 L0 486.51 ZM0 480.6 L22.49 480.6 L22.49 479.34 L0 479.34 L0 480.6 ZM0 474.7 L22.49 474.7 L22.49
							 473.44 L0 473.44 L0 474.7 ZM0 468.79 L9.11 468.79 L9.11 467.53 L0 467.53 L0 468.79 ZM0 462.88 L9.11
							 462.88 L9.11 461.63 L0 461.63 L0 462.88 ZM20.05 453.15 L20.05 462.28 L28.64 462.28 L20.05 453.15 Z"
						class="st3"/>
			</g>
		</g>
		<g id="shape36-37" v:mID="36" v:groupContext="shape" transform="translate(121.84,-365.912)">
			<title>Rectangle.36</title>
			<desc>preprocessing</desc>
			<v:userDefs>
				<v:ud v:nameU="visVersion" v:val="VT0(15):26"/>
			</v:userDefs>
			<v:textBlock v:margins="rect(4,4,4,4)" v:tabSpace="42.5197"/>
			<v:textRect cx="41.1024" cy="473.763" width="82.21" height="37.298"/>
			<rect x="0" y="455.114" width="82.2047" height="37.298" class="st4"/>
			<text x="12.93" y="476.76" class="st5" v:langID="1033"><v:paragraph v:horizAlign="1"/><v:tabList/>preprocessing</text>		</g>
		<g id="shape37-40" v:mID="37" v:groupContext="shape" transform="translate(121.84,-236.527)">
			<title>Rectangle.37</title>
			<desc>Compilation</desc>
			<v:userDefs>
				<v:ud v:nameU="visVersion" v:val="VT0(15):26"/>
			</v:userDefs>
			<v:textBlock v:margins="rect(4,4,4,4)" v:tabSpace="42.5197"/>
			<v:textRect cx="41.1024" cy="473.763" width="82.21" height="37.298"/>
			<rect x="0" y="455.114" width="82.2047" height="37.298" class="st4"/>
			<text x="16.57" y="476.76" class="st5" v:langID="1033"><v:paragraph v:horizAlign="1"/><v:tabList/>Compilation</text>		</g>
		<g id="group38-43" transform="translate(145.098,-295.085)" v:mID="38" v:groupContext="group" v:layerMember="0">
			<v:userDefs>
				<v:ud v:nameU="visVersion" v:prompt="" v:val="VT0(15):26"/>
				<v:ud v:nameU="ConnGap" v:prompt="" v:val="VT0(0.00012908222537757):24"/>
			</v:userDefs>
			<title>Document.38</title>
			<g id="shape39-44" v:mID="39" v:groupContext="shape" v:layerMember="0">
				<title>Sheet.39</title>
				<path d="M35.69 452.29 L26.82 442.84 L0 442.84 L0 492.41 L35.69 492.41 L35.69 452.29 Z" class="st2"/>
			</g>
			<g id="shape40-46" v:mID="40" v:groupContext="shape" v:layerMember="0" transform="translate(6.50566,-9.97147)">
				<title>Sheet.40</title>
				<v:userDefs>
					<v:ud v:nameU="SurroundingRegionColor" v:prompt="" v:val="VT0(1):26"/>
					<v:ud v:nameU="SurroundingRegionColor" v:prompt="" v:val="VT5(#d8d8d8)"/>
				</v:userDefs>
				<path d="M13.38 492.41 L22.49 492.41 L22.49 491.15 L13.38 491.15 L13.38 492.41 ZM0 486.51 L22.49 486.51 L22.49 485.25
							 L0 485.25 L0 486.51 ZM0 480.6 L22.49 480.6 L22.49 479.34 L0 479.34 L0 480.6 ZM0 474.7 L22.49 474.7 L22.49
							 473.44 L0 473.44 L0 474.7 ZM0 468.79 L9.11 468.79 L9.11 467.53 L0 467.53 L0 468.79 ZM0 462.88 L9.11
							 462.88 L9.11 461.63 L0 461.63 L0 462.88 ZM20.05 453.15 L20.05 462.28 L28.64 462.28 L20.05 453.15 Z"
						class="st3"/>
			</g>
		</g>
		<g id="group42-49" transform="translate(248.562,-424.47)" v:mID="42" v:groupContext="group" v:layerMember="0">
			<v:userDefs>
				<v:ud v:nameU="visVersion" v:prompt="" v:val="VT0(15):26"/>
				<v:ud v:nameU="ConnGap" v:prompt="" v:val="VT0(0.00012908222537757):24"/>
			</v:userDefs>
			<title>Document.42</title>
			<g id="shape43-50" v:mID="43" v:groupContext="shape" v:layerMember="0">
				<title>Sheet.43</title>
				<path d="M35.69 452.29 L26.82 442.84 L0 442.84 L0 492.41 L35.69 492.41 L35.69 452.29 Z" class="st2"/>
			</g>
			<g id="shape44-52" v:mID="44" v:groupContext="shape" v:layerMember="0" transform="translate(6.50566,-9.97147)">
				<title>Sheet.44</title>
				<v:userDefs>
					<v:ud v:nameU="SurroundingRegionColor" v:prompt="" v:val="VT0(1):26"/>
					<v:ud v:nameU="SurroundingRegionColor" v:prompt="" v:val="VT5(#d8d8d8)"/>
				</v:userDefs>
				<path d="M13.38 492.41 L22.49 492.41 L22.49 491.15 L13.38 491.15 L13.38 492.41 ZM0 486.51 L22.49 486.51 L22.49 485.25
							 L0 485.25 L0 486.51 ZM0 480.6 L22.49 480.6 L22.49 479.34 L0 479.34 L0 480.6 ZM0 474.7 L22.49 474.7 L22.49
							 473.44 L0 473.44 L0 474.7 ZM0 468.79 L9.11 468.79 L9.11 467.53 L0 467.53 L0 468.79 ZM0 462.88 L9.11
							 462.88 L9.11 461.63 L0 461.63 L0 462.88 ZM20.05 453.15 L20.05 462.28 L28.64 462.28 L20.05 453.15 Z"
						class="st3"/>
			</g>
		</g>
		<g id="shape45-55" v:mID="45" v:groupContext="shape" transform="translate(225.304,-365.912)">
			<title>Rectangle.45</title>
			<desc>preprocessing</desc>
			<v:userDefs>
				<v:ud v:nameU="visVersion" v:val="VT0(15):26"/>
			</v:userDefs>
			<v:textBlock v:margins="rect(4,4,4,4)" v:tabSpace="42.5197"/>
			<v:textRect cx="41.1024" cy="473.763" width="82.21" height="37.298"/>
			<rect x="0" y="455.114" width="82.2047" height="37.298" class="st4"/>
			<text x="12.93" y="476.76" class="st5" v:langID="1033"><v:paragraph v:horizAlign="1"/><v:tabList/>preprocessing</text>		</g>
		<g id="shape46-58" v:mID="46" v:groupContext="shape" transform="translate(225.304,-236.527)">
			<title>Rectangle.46</title>
			<desc>Compilation</desc>
			<v:userDefs>
				<v:ud v:nameU="visVersion" v:val="VT0(15):26"/>
			</v:userDefs>
			<v:textBlock v:margins="rect(4,4,4,4)" v:tabSpace="42.5197"/>
			<v:textRect cx="41.1024" cy="473.763" width="82.21" height="37.298"/>
			<rect x="0" y="455.114" width="82.2047" height="37.298" class="st4"/>
			<text x="16.57" y="476.76" class="st5" v:langID="1033"><v:paragraph v:horizAlign="1"/><v:tabList/>Compilation</text>		</g>
		<g id="group47-61" transform="translate(248.562,-295.085)" v:mID="47" v:groupContext="group" v:layerMember="0">
			<v:userDefs>
				<v:ud v:nameU="visVersion" v:prompt="" v:val="VT0(15):26"/>
				<v:ud v:nameU="ConnGap" v:prompt="" v:val="VT0(0.00012908222537757):24"/>
			</v:userDefs>
			<title>Document.47</title>
			<g id="shape48-62" v:mID="48" v:groupContext="shape" v:layerMember="0">
				<title>Sheet.48</title>
				<path d="M35.69 452.29 L26.82 442.84 L0 442.84 L0 492.41 L35.69 492.41 L35.69 452.29 Z" class="st2"/>
			</g>
			<g id="shape49-64" v:mID="49" v:groupContext="shape" v:layerMember="0" transform="translate(6.50566,-9.97147)">
				<title>Sheet.49</title>
				<v:userDefs>
					<v:ud v:nameU="SurroundingRegionColor" v:prompt="" v:val="VT0(1):26"/>
					<v:ud v:nameU="SurroundingRegionColor" v:prompt="" v:val="VT5(#d8d8d8)"/>
				</v:userDefs>
				<path d="M13.38 492.41 L22.49 492.41 L22.49 491.15 L13.38 491.15 L13.38 492.41 ZM0 486.51 L22.49 486.51 L22.49 485.25
							 L0 485.25 L0 486.51 ZM0 480.6 L22.49 480.6 L22.49 479.34 L0 479.34 L0 480.6 ZM0 474.7 L22.49 474.7 L22.49
							 473.44 L0 473.44 L0 474.7 ZM0 468.79 L9.11 468.79 L9.11 467.53 L0 467.53 L0 468.79 ZM0 462.88 L9.11
							 462.88 L9.11 461.63 L0 461.63 L0 462.88 ZM20.05 453.15 L20.05 462.28 L28.64 462.28 L20.05 453.15 Z"
						class="st3"/>
			</g>
		</g>
		<g id="group51-67" transform="translate(41.3073,-166.262)" v:mID="51" v:groupContext="group" v:layerMember="0">
			<v:userDefs>
				<v:ud v:nameU="visVersion" v:prompt="" v:val="VT0(15):26"/>
				<v:ud v:nameU="ConnGap" v:prompt="" v:val="VT0(0.00012908222537757):24"/>
			</v:userDefs>
			<title>Document.51</title>
			<g id="shape52-68" v:mID="52" v:groupContext="shape" v:layerMember="0">
				<title>Sheet.52</title>
				<path d="M35.69 452.29 L26.82 442.84 L0 442.84 L0 492.41 L35.69 492.41 L35.69 452.29 Z" class="st2"/>
			</g>
			<g id="shape53-70" v:mID="53" v:groupContext="shape" v:layerMember="0" transform="translate(6.50566,-9.97147)">
				<title>Sheet.53</title>
				<v:userDefs>
					<v:ud v:nameU="SurroundingRegionColor" v:prompt="" v:val="VT0(1):26"/>
					<v:ud v:nameU="SurroundingRegionColor" v:prompt="" v:val="VT5(#d8d8d8)"/>
				</v:userDefs>
				<path d="M13.38 492.41 L22.49 492.41 L22.49 491.15 L13.38 491.15 L13.38 492.41 ZM0 486.51 L22.49 486.51 L22.49 485.25
							 L0 485.25 L0 486.51 ZM0 480.6 L22.49 480.6 L22.49 479.34 L0 479.34 L0 480.6 ZM0 474.7 L22.49 474.7 L22.49
							 473.44 L0 473.44 L0 474.7 ZM0 468.79 L9.11 468.79 L9.11 467.53 L0 467.53 L0 468.79 ZM0 462.88 L9.11
							 462.88 L9.11 461.63 L0 461.63 L0 462.88 ZM20.05 453.15 L20.05 462.28 L28.64 462.28 L20.05 453.15 Z"
						class="st3"/>
			</g>
		</g>
		<g id="group54-73" transform="translate(145.229,-166.262)" v:mID="54" v:groupContext="group" v:layerMember="0">
			<v:userDefs>
				<v:ud v:nameU="visVersion" v:prompt="" v:val="VT0(15):26"/>
				<v:ud v:nameU="ConnGap" v:prompt="" v:val="VT0(0.00012908222537757):24"/>
			</v:userDefs>
			<title>Document.54</title>
			<g id="shape55-74" v:mID="55" v:groupContext="shape" v:layerMember="0">
				<title>Sheet.55</title>
				<path d="M35.69 452.29 L26.82 442.84 L0 442.84 L0 492.41 L35.69 492.41 L35.69 452.29 Z" class="st2"/>
			</g>
			<g id="shape56-76" v:mID="56" v:groupContext="shape" v:layerMember="0" transform="translate(6.50566,-9.97147)">
				<title>Sheet.56</title>
				<v:userDefs>
					<v:ud v:nameU="SurroundingRegionColor" v:prompt="" v:val="VT0(1):26"/>
					<v:ud v:nameU="SurroundingRegionColor" v:prompt="" v:val="VT5(#d8d8d8)"/>
				</v:userDefs>
				<path d="M13.38 492.41 L22.49 492.41 L22.49 491.15 L13.38 491.15 L13.38 492.41 ZM0 486.51 L22.49 486.51 L22.49 485.25
							 L0 485.25 L0 486.51 ZM0 480.6 L22.49 480.6 L22.49 479.34 L0 479.34 L0 480.6 ZM0 474.7 L22.49 474.7 L22.49
							 473.44 L0 473.44 L0 474.7 ZM0 468.79 L9.11 468.79 L9.11 467.53 L0 467.53 L0 468.79 ZM0 462.88 L9.11
							 462.88 L9.11 461.63 L0 461.63 L0 462.88 ZM20.05 453.15 L20.05 462.28 L28.64 462.28 L20.05 453.15 Z"
						class="st3"/>
			</g>
		</g>
		<g id="group57-79" transform="translate(248.694,-166.262)" v:mID="57" v:groupContext="group" v:layerMember="0">
			<v:userDefs>
				<v:ud v:nameU="visVersion" v:prompt="" v:val="VT0(15):26"/>
				<v:ud v:nameU="ConnGap" v:prompt="" v:val="VT0(0.00012908222537757):24"/>
			</v:userDefs>
			<title>Document.57</title>
			<g id="shape58-80" v:mID="58" v:groupContext="shape" v:layerMember="0">
				<title>Sheet.58</title>
				<path d="M35.69 452.29 L26.82 442.84 L0 442.84 L0 492.41 L35.69 492.41 L35.69 452.29 Z" class="st2"/>
			</g>
			<g id="shape59-82" v:mID="59" v:groupContext="shape" v:layerMember="0" transform="translate(6.50566,-9.97147)">
				<title>Sheet.59</title>
				<v:userDefs>
					<v:ud v:nameU="SurroundingRegionColor" v:prompt="" v:val="VT0(1):26"/>
					<v:ud v:nameU="SurroundingRegionColor" v:prompt="" v:val="VT5(#d8d8d8)"/>
				</v:userDefs>
				<path d="M13.38 492.41 L22.49 492.41 L22.49 491.15 L13.38 491.15 L13.38 492.41 ZM0 486.51 L22.49 486.51 L22.49 485.25
							 L0 485.25 L0 486.51 ZM0 480.6 L22.49 480.6 L22.49 479.34 L0 479.34 L0 480.6 ZM0 474.7 L22.49 474.7 L22.49
							 473.44 L0 473.44 L0 474.7 ZM0 468.79 L9.11 468.79 L9.11 467.53 L0 467.53 L0 468.79 ZM0 462.88 L9.11
							 462.88 L9.11 461.63 L0 461.63 L0 462.88 ZM20.05 453.15 L20.05 462.28 L28.64 462.28 L20.05 453.15 Z"
						class="st3"/>
			</g>
		</g>
		<g id="shape60-85" v:mID="60" v:groupContext="shape" transform="translate(122.095,-108.265)">
			<title>Rectangle.60</title>
			<desc>Linkage</desc>
			<v:userDefs>
				<v:ud v:nameU="visVersion" v:val="VT0(15):26"/>
			</v:userDefs>
			<v:textBlock v:margins="rect(4,4,4,4)" v:tabSpace="42.5197"/>
			<v:textRect cx="41.1024" cy="473.763" width="82.21" height="37.298"/>
			<rect x="0" y="455.114" width="82.2047" height="37.298" class="st4"/>
			<text x="25.48" y="476.76" class="st5" v:langID="1033"><v:paragraph v:horizAlign="1"/><v:tabList/>Linkage</text>		</g>
		<g id="group61-88" transform="translate(145.523,-38)" v:mID="61" v:groupContext="group" v:layerMember="0">
			<v:userDefs>
				<v:ud v:nameU="visVersion" v:prompt="" v:val="VT0(15):26"/>
				<v:ud v:nameU="ConnGap" v:prompt="" v:val="VT0(0.00012908222537757):24"/>
			</v:userDefs>
			<title>Document.61</title>
			<g id="shape62-89" v:mID="62" v:groupContext="shape" v:layerMember="0">
				<title>Sheet.62</title>
				<path d="M35.69 452.29 L26.82 442.84 L0 442.84 L0 492.41 L35.69 492.41 L35.69 452.29 Z" class="st2"/>
			</g>
			<g id="shape63-91" v:mID="63" v:groupContext="shape" v:layerMember="0" transform="translate(6.50566,-9.97147)">
				<title>Sheet.63</title>
				<v:userDefs>
					<v:ud v:nameU="SurroundingRegionColor" v:prompt="" v:val="VT0(1):26"/>
					<v:ud v:nameU="SurroundingRegionColor" v:prompt="" v:val="VT5(#d8d8d8)"/>
				</v:userDefs>
				<path d="M13.38 492.41 L22.49 492.41 L22.49 491.15 L13.38 491.15 L13.38 492.41 ZM0 486.51 L22.49 486.51 L22.49 485.25
							 L0 485.25 L0 486.51 ZM0 480.6 L22.49 480.6 L22.49 479.34 L0 479.34 L0 480.6 ZM0 474.7 L22.49 474.7 L22.49
							 473.44 L0 473.44 L0 474.7 ZM0 468.79 L9.11 468.79 L9.11 467.53 L0 467.53 L0 468.79 ZM0 462.88 L9.11
							 462.88 L9.11 461.63 L0 461.63 L0 462.88 ZM20.05 453.15 L20.05 462.28 L28.64 462.28 L20.05 453.15 Z"
						class="st3"/>
			</g>
		</g>
		<g id="shape64-94" v:mID="64" v:groupContext="shape" v:layerMember="1" transform="translate(52.3907,-424.461)">
			<title>Lien dynamique</title>
			<path d="M7.09 492.41 L7.09 508.15" class="st6"/>
		</g>
		<g id="shape65-100" v:mID="65" v:groupContext="shape" v:layerMember="1" transform="translate(155.855,-424.461)">
			<title>Lien dynamique.65</title>
			<path d="M7.09 492.41 L7.09 508.15" class="st6"/>
		</g>
		<g id="shape66-105" v:mID="66" v:groupContext="shape" v:layerMember="1" transform="translate(259.32,-424.461)">
			<title>Lien dynamique.66</title>
			<path d="M7.09 492.41 L7.09 508.15" class="st6"/>
		</g>
		<g id="shape67-110" v:mID="67" v:groupContext="shape" v:layerMember="1" transform="translate(259.32,-365.912)">
			<title>Lien dynamique.67</title>
			<path d="M7.09 492.41 L7.09 508.15" class="st6"/>
		</g>
		<g id="shape68-115" v:mID="68" v:groupContext="shape" v:layerMember="1" transform="translate(155.855,-365.912)">
			<title>Lien dynamique.68</title>
			<path d="M7.09 492.41 L7.09 508.15" class="st6"/>
		</g>
		<g id="shape69-120" v:mID="69" v:groupContext="shape" v:layerMember="1" transform="translate(52.3907,-365.912)">
			<title>Lien dynamique.69</title>
			<path d="M7.09 492.41 L7.09 508.15" class="st6"/>
		</g>
		<g id="shape70-125" v:mID="70" v:groupContext="shape" v:layerMember="1" transform="translate(52.3907,-295.076)">
			<title>Lien dynamique.70</title>
			<path d="M7.09 492.41 L7.09 508.15" class="st6"/>
		</g>
		<g id="shape71-130" v:mID="71" v:groupContext="shape" v:layerMember="1" transform="translate(155.855,-295.076)">
			<title>Lien dynamique.71</title>
			<path d="M7.09 492.41 L7.09 508.15" class="st6"/>
		</g>
		<g id="shape72-135" v:mID="72" v:groupContext="shape" v:layerMember="1" transform="translate(259.32,-295.076)">
			<title>Lien dynamique.72</title>
			<path d="M7.09 492.41 L7.09 508.15" class="st6"/>
		</g>
		<g id="shape73-140" v:mID="73" v:groupContext="shape" v:layerMember="1" transform="translate(259.385,-236.527)">
			<title>Lien dynamique.73</title>
			<path d="M7.02 492.41 L7.02 503.04 L7.15 503.04 L7.15 507.59" class="st6"/>
		</g>
		<g id="shape74-145" v:mID="74" v:groupContext="shape" v:layerMember="1" transform="translate(155.921,-236.527)">
			<title>Lien dynamique.74</title>
			<path d="M7.02 492.41 L7.02 503.04 L7.15 503.04 L7.15 507.59" class="st6"/>
		</g>
		<g id="shape75-150" v:mID="75" v:groupContext="shape" v:layerMember="1" transform="translate(66.401,-236.527)">
			<title>Lien dynamique.75</title>
			<path d="M-6.92 492.41 L-6.92 503.04 L-7.25 503.04 L-7.25 507.59" class="st6"/>
		</g>
		<g id="shape76-155" v:mID="76" v:groupContext="shape" v:layerMember="1" transform="translate(266.538,-166.253)">
			<title>Lien dynamique.76</title>
			<path d="M0 492.41 L0 531.75 L-56.72 531.75" class="st6"/>
		</g>
		<g id="shape77-160" v:mID="77" v:groupContext="shape" v:layerMember="1" transform="translate(156.048,-166.253)">
			<title>Lien dynamique.77</title>
			<path d="M7.02 492.41 L7.02 503.03 L7.15 503.03 L7.15 507.59" class="st6"/>
		</g>
		<g id="shape78-165" v:mID="78" v:groupContext="shape" v:layerMember="1" transform="translate(59.1514,-166.253)">
			<title>Lien dynamique.78</title>
			<path d="M0 492.41 L0 531.75 L57.43 531.75" class="st6"/>
		</g>
		<g id="shape79-170" v:mID="79" v:groupContext="shape" v:layerMember="1" transform="translate(156.195,-108.265)">
			<title>Lien dynamique.79</title>
			<path d="M7 492.41 L7 503.04 L7.17 503.04 L7.17 507.59" class="st6"/>
		</g>
		<g id="shape81-175" v:mID="81" v:groupContext="shape" transform="translate(355.748,-439.253)">
			<title>Sheet.81</title>
			<desc>Code Source</desc>
			<v:textBlock v:margins="rect(4,4,4,4)" v:tabSpace="42.5197"/>
			<v:textRect cx="41.1024" cy="482.412" width="82.21" height="20"/>
			<rect x="0" y="472.412" width="82.2047" height="20" class="st8"/>
			<text x="4" y="486.01" class="st9" v:langID="1033"><v:paragraph/><v:tabList/>Code Source</text>		</g>
		<g id="shape83-178" v:mID="83" v:groupContext="shape" transform="translate(357.165,-311.811)">
			<title>Sheet.83</title>
			<desc>Code source Pré-processé</desc>
			<v:textBlock v:margins="rect(4,4,4,4)" v:tabSpace="42.5197"/>
			<v:textRect cx="41.1024" cy="482.412" width="82.21" height="20"/>
			<rect x="0" y="472.412" width="82.2047" height="20" class="st8"/>
			<text x="4" y="478.81" class="st9" v:langID="1033"><v:paragraph/><v:tabList/>Code source<v:newlineChar/><tspan x="4"
						dy="1.2em" class="st10">Pré</tspan>-processé</text>		</g>
		<g id="shape85-182" v:mID="85" v:groupContext="shape" transform="translate(356.905,-178.425)">
			<title>Sheet.85</title>
			<desc>Objets binaires</desc>
			<v:textBlock v:margins="rect(4,4,4,4)" v:tabSpace="42.5197"/>
			<v:textRect cx="41.1024" cy="482.412" width="82.21" height="20"/>
			<rect x="0" y="472.412" width="82.2047" height="20" class="st8"/>
			<text x="4" y="486.01" class="st9" v:langID="1033"><v:paragraph/><v:tabList/>Objets binaires</text>		</g>
		<g id="shape87-185" v:mID="87" v:groupContext="shape" transform="translate(356.644,-50.8661)">
			<title>Sheet.87</title>
			<desc>Exécutable binaire</desc>
			<v:textBlock v:margins="rect(4,4,4,4)" v:tabSpace="42.5197"/>
			<v:textRect cx="51.9931" cy="482.412" width="103.99" height="20"/>
			<rect x="0" y="472.412" width="103.986" height="20" class="st8"/>
			<text x="4" y="486.01" class="st9" v:langID="1033"><v:paragraph/><v:tabList/>Exécutable binaire</text>		</g>
	</g>
</svg>
