<?xml version="1.0" encoding="utf-8"?>
<!-- Generator: Adobe Illustrator 27.7.0, SVG Export Plug-In . SVG Version: 6.00 Build 0)  -->
<svg version="1.1" id="Layer_1" xmlns="http://www.w3.org/2000/svg" xmlns:xlink="http://www.w3.org/1999/xlink" x="0px" y="0px"
	 viewBox="0 0 949.5 566.2" style="enable-background:new 0 0 949.5 566.2;" xml:space="preserve">
<style type="text/css">
	.st0{stroke:#000000;stroke-miterlimit:10;}
	.st1{fill:#FFD966;}
	.st2{fill:#B5739D;}
	.st3{fill:#C78A5E;}
	.st4{fill:#231F20;}
	.st5{fill:#F8D033;}
	.st6{fill:#2D2D2D;}
	.st7{fill:#E98940;}
	.st8{fill:#FFB570;}
	.st9{fill:#F19C99;}
</style>
<path class="st0" d="M191.5,566.2c0-0.5,0-1,0-1.5c5.8-0.8,11.5-3.2,17.4-1c0.7,0.3,1,1.7,1.5,2.5L191.5,566.2z"/>
<path class="st0" d="M162.5,566.2c-0.1-0.3-0.2-0.6-0.4-0.8c4.6-0.3,9.3-0.6,13.9-0.8c0.1,0,0.3,1.1,0.4,1.7L162.5,566.2z"/>
<path class="st0" d="M304.4,540.4c-11-6.8-23.4-9-36.1-10.2v-1.1c2.5,0,4.9,0,7.4,0c2.7,0,5.5-0.3,8,0.4c6.4,1.8,12.6,4,18.9,6.1
	c0.8,0.3,1.4,1.3,2,2C304.5,538.6,304.4,539.5,304.4,540.4z"/>
<path class="st0" d="M230.7,548.2l1.7,1.8l-17.1,6.1l-0.6-1.6C219.8,551.7,224.8,548.9,230.7,548.2z"/>
<path class="st0" d="M256.5,557.1c-1.6,0.8-3.2,1.9-4.9,2.3c-4.4,1.1-8.9,1.9-13.5,2.2C244,559.1,249.8,556,256.5,557.1L256.5,557.1
	z"/>
<path class="st0" d="M307.6,542.9c-0.3-0.7-0.6-1.5-0.9-2.2l2.3,0.9L307.6,542.9z"/>
<path class="st0" d="M304.4,540.4c0-0.9,0.1-1.8,0.1-2.8l1.7,2.1L304.4,540.4z"/>
<polygon class="st0" points="239.2,545.6 239,545.9 238.8,545.7 238.9,545.4 "/>
<path class="st1" d="M800.1,372.2c1.1,0.9,2.2,1.8,3.2,2.8c3.8,4.7,7,5.7,11.8,2.9c2.5-1.7,5.8-1.9,8.5-0.5c4.2,2,8.2,4.2,12.4,6.4
	l-0.4,1.4c-3.9,1.2-7.7,2.5-11.6,3.4c-27.3,6.4-54.8,10.9-83,9.2c-27.6-1.7-54.4-7-79.3-19.5c-24.1-12.2-45.2-28-58.7-52.1
	c-3.4-6.1-5.5-13-8.3-19.9c6.5-0.2,8.1,0.8,10.1,5.3c3.5,8.3,12.3,11.9,22.6,8.7c0.3,5.6,2.5,10.3,7.6,13c6.1,3.1,9.4-1.8,13.9-5.5
	c0.2,3.3,0.4,5.8,0.5,8.4c0.3,6.2,4.1,10.1,9,13s10,1.1,12.8-3.8c1.7-2.7,3.1-5.5,4.2-8.5c1.3-3.9,3.8-4.1,7-3.1
	c6.5,2,13,4,19.5,5.9c13.2,4,26.4,7.8,39.6,11.8c9.6,2.9,19.2,6,28.8,9c2.8,0.9,3.7,2.2,2.1,5.1c-1.6,2.9-2.7,6-3.3,9.3
	c-0.9,5.1,2.6,9,7.8,9.2c6.6,0.3,11.5-3.7,16.7-6.9C795.8,375.7,798,374,800.1,372.2z"/>
<path class="st2" d="M418,557c1.8-3.9,2.1-7.5,6.4-8c0.9-0.3,1.7-0.9,2.1-1.8c2.4-7,5.6-13.9,6.7-21.1c0.7-4.8-1.4-10-2.7-15
	c-0.9-2.7-2-5.3-3.3-7.7c-1.6-3.4,0.1-5.3,2.9-6.8c0.3-0.1,0.7-0.2,1-0.3c9.1-3.4,9.4-4,6.4-13.4c-0.8-2.2-1.4-4.4-1.8-6.7
	c-1.2-7.1-1.2-7.2,5.5-9c2.1-0.6,4.2-0.9,6.4-0.9c9-0.1,18,0,27-0.3c7.5-0.2,14.9-1,22.4-1.4c5.4-0.3,10.9-0.4,16.3-0.4
	c5.9,0,7.9,2.7,7.2,8.6c-0.9,6.6-1.5,13.2-1.7,19.8c-0.1,8.1,1.7,9.5,9.7,9.6c1.8,0,3.6,0,6.2,0c-0.4,3.8-0.5,7.2-1.3,10.5
	c-3.1,14.2,2,26.3,9.7,37.8c1.8,2.7,3.2,5.6,5.1,8.8c-8.5,2.7-16.4,1.5-24.2,1.4c-12.1-0.2-24.2,0-36.3,0.1
	c-8.8,0-17.6,0.2-26.5,0.1c-5.8-0.1-11.6-0.4-17.4-0.9C435.3,559.2,427,558.1,418,557z M474.9,546.2c8.7-0.1,17.2-2.4,24.7-6.9
	c7.4-4.3,11.9-17.4,8.3-25.6c-4.2-9.7-10.4-16.5-20.2-20.1c-5.7-2-11.8-2.2-17.6-0.7c-6.2,1.4-11.7,4.1-15.9,9
	c-5.1,6-8.9,12.8-9.4,20.8c-0.3,5,0.2,10.4,4.7,14C457.5,542.9,466.1,547.4,474.9,546.2L474.9,546.2z"/>
<path class="st1" d="M801.9,137.9l-5.5,4.9l0.8,1.2c2-1.2,4.1-2.2,5.9-3.6c3.8-2.8,7.7-4.4,12.2-1.4l-21.2,7.8
	c0.3-0.5,0.7-1.3,0.8-1.5c-2-1.6-3.8-3.4-5.5-5.2c-1.6-2.1-1.1-3.8,1.8-4c3.4-0.1,6.8,0,10.2,0L801.9,137.9z"/>
<path class="st3" d="M710.7,264.6c0.5,3.9,1.3,7.7,1.5,11.5c0.5,10.6,0.8,21.1,1.2,31.7c-0.5-4.9-1-9.8-1.3-14.6
	C711.5,283.7,711.1,274.1,710.7,264.6z"/>
<path class="st3" d="M309,5.9l-24.4-0.5c2.2-0.5,4.4-0.8,6.6-1c4.5-0.1,8.9,0,13.4,0.2C306.1,4.7,307.5,5.5,309,5.9z"/>
<path class="st4" d="M425,530l-6.9,0.2l-0.3-1.8l7-1.2L425,530z"/>
<path class="st3" d="M322.1,6.8c-3.2,0-6.7,1.8-9.6-1L322.1,6.8z"/>
<path class="st1" d="M725.1,143.2l-0.7-1.5c-6.1,1.9-12.3,3.6-18.3,5.9c-1.2,0.4-2.3,2.8-2.3,4.3c0,5,0.6,10,0.9,15.1
	C708.6,156.9,715.8,148.5,725.1,143.2z"/>
<path class="st5" d="M740.5,206.2L740.5,206.2L740.5,206.2L740.5,206.2z"/>
<path class="st1" d="M706.7,182.1c-1.7,7.4-0.6,14.7,0.7,21.9l0.2,2.5c-0.1,1.5-0.2,3-0.2,4.5c0.7,15.4,1.5,30.9,2.3,46.3
	c0.2,0.9,0.4,1.9,0.8,2.8l0.3,4.6c0.5,3.9,1.3,7.7,1.5,11.5c0.5,10.6,0.8,21.1,1.2,31.7c0.3,3.5,0.7,7.1,1.1,11.5
	c1.6-0.9,3.1-2,4.5-3.2c1.7-1.6,2.9-3.6,4.6-5.2c8.8-8.6,17.5-17.3,26.6-25.7c11.8-10.8,23.5-21.6,35.8-31.6
	c20.1-16.3,40.3-32.4,58.5-50.8l21-19.5c0.8-1,1.7-2,2.7-2.8c6-4.9,12-9.9,18.1-14.7c1-0.6,2-1.1,3.1-1.4
	c-4.6-6.2-8.5-10.3-15.1-10.2c-1.6,0-3.3-1.5-5-2.2c-1.2-0.5-2.5-0.9-3.7-1.3l-9.5-3.6l-0.5,1.1l8.5,7c3.9,7,4.3,14.1,0.6,21.4
	c-0.2,0.6-0.4,1.3-0.5,1.9v0.4l-0.3,0.2c-0.2,0.2-0.4,0.4-0.4,0.7c-2.3,2.8-4.4,5.6-6.8,8.2c-5.6,6.1-13,9.5-20.1,13.2l-2.4,0.7
	l-0.2,0.2l-0.3-0.1c-6.8,0.7-13.6,2.4-20.2,1.8c-11.3-1-21.8-4.7-28.4-15.1c-1.5-2.4-3.1-2.5-5.3-0.7c-6.7,5.3-14.5,8-22.8,9.6
	l-2.3,0.3l-2.7,0.4c-4.2-0.1-8.4-0.2-12.7-0.2c-0.4,0-0.8,1.2-1.2,1.9c0.8,2.1,1.5,4.1,2.2,6.1c2.3,1.6,3.5,4.3,7,4.5
	c2.8,0.1,2.6,3.9-0.4,6.5c-2.5-0.7-5.4-0.6-4.1-5c0.5-1.6-1.6-4-2.5-6c-1.3-1.5-2.7-2.9-4-4.4s-2.4-4.1-4-4.6
	C722.9,194,714.1,189.8,706.7,182.1z"/>
<path class="st1" d="M937,223.8c-6.5-21.5-18.9-38.6-36.2-52.4c-6.7-5.3-6.9-5.2-13.3,0.3c-15.2,13.2-30.2,26.6-45.5,39.7
	c-19.8,17-40.2,33.3-59.6,50.8c-19,17.1-37.2,35.1-55.6,52.8c-3.5,3.3-6.3,7.3-9.8,10.5c-1.6,1.4-3.6,2-5.7,1.9
	c-0.9-0.1-1.7-3.2-1.9-5c-0.3-2.5,0-5-0.2-7.5c-1.6-22.6-3.2-45.2-4.8-67.8c-1.7-25.1-3.3-50.2-5-75.3c-0.4-6.6-1-13.1-1.6-20.3
	c-2.7,1-4.9,1.7-7,2.6c-23.8,10.4-44.2,25.8-61.9,44.5c-17.2,18-32.6,37.4-35,63.8c-1,10.6-1.7,21.1-0.7,31.9l9.6,2.8
	c3.5-13,19.3-29.5,27.9-29.2c-0.3,0.9-0.8,1.8-1.4,2.5c-3.5,3.1-6.9,6.3-10.5,9.2c-6.7,5.4-9.4,12.8-10.3,20.9
	c-0.7,5.8,1.6,10.8,6.3,14.5c4.5,3.6,7.9,3,10.1-2.3c1.7-4.3,3.2-8.7,4.5-13.2c0.9-3.1,3.2-4,5.7-3.4c0.9,0.2,1.3,3.2,1.4,5
	c0,1.4-1.1,2.8-1.2,4.3c-0.6,5.6-1.3,11.2-1.3,16.7c0,3,1.6,6,5.1,6.6s5-2.2,6.4-4.6c4.5-7.8,8.5-15.8,10.1-24.9
	c0.8-4.4,3.1-7,5.2-6c3.5,1.8,1.1,4.6,0.6,7c-2.2,9.9-4.7,19.7-6.3,29.7c-0.5,3.8,0,7.6,1.5,11.1c2.2,5.5,8,5.8,10.7,0.7
	c4.2-7.8,7.4-15.9,7.6-25c0.3-10.2-0.7-20.3-3.2-30.2c-0.8-3.4-1.5-6.8-2.3-10.7c5.6,1.2,6.5,5.1,7.5,8.7c3.1,11,4.7,22.1,3.8,33.6
	c-0.2,3.2,0.8,4.9,3.9,5.8c10.7,3.1,21.3,6.4,32,9.6c20,6.1,40.1,12.1,60.1,18.3c1.8,0.8,4,0.3,5.3-1.2c4.6-4.5,9.5-8.8,14.5-12.8
	c7.1-5.5,14.5-10.5,21.9-15.6c2.2-1.5,4.6-2.8,7.7,1.2c-1.1,0.7-2.3,1.3-3.4,2c-7,4.7-14.2,9.2-21.1,14.1
	c-9.8,6.8-18.1,15.2-23.8,25.8c-2.5,4.5-4.3,9.3-2.1,14.7c4.7,0.4,8.2-1.5,11.5-4.3c11.5-9.9,21.4-21.5,29.3-34.4
	c1.6-2.5,3.2-2.9,6.3-2.1c-0.4,1.7-0.5,3.3-1.2,4.6c-2.3,4.2-5.1,8.2-7.3,12.5c-2.2,4.3-4.1,8.7-5.5,13.3c-1,3.4,1.3,5,4.6,3.6
	c2.2-0.9,4.1-2.2,5.7-3.9c5.1-5.9,9.9-12,14.7-18.1c1.2-1.6,2-3.8,4.6-2.5c2.9,1.5,1,3.3,0.2,5c-2.2,4.6-4.4,9.3-6.5,14
	c-1.4,3.2-1.7,6.5,1.3,9.2s6,0.9,8.8-0.4c8-3.8,14.6-10.1,18.8-18c1.8-3.3,3.8-6.4,5.7-9.7l1.6,0.2c0.2,1.3,1,2.8,0.7,4
	c-0.8,2.7-2,5.2-3.6,7.5c-3.8,4.8-8,9.2-12.2,13.9c3.1,2.3,6.6,3.5,10.4,1.6c9.5-4.6,19.3-9,28.3-14.5c13.9-8.4,24.7-20.1,32.7-34.3
	c7.7-13.7,11.8-28.5,14.6-43.8C942.8,263.5,943,243.6,937,223.8z"/>
<path class="st3" d="M280.2,171.8l3.7-0.3c0,0.5,0,1,0,1.5l-3.7-0.4C280,172.3,280,172,280.2,171.8z"/>
<path class="st3" d="M425.8,520.7c-0.1-1-0.1-1.9-0.2-2.9C425.6,518.8,425.7,519.7,425.8,520.7z"/>
<path class="st3" d="M757.1,197.6l-2.3,0.3L757.1,197.6z"/>
<path class="st3" d="M408.9,545.6L408.9,545.6z"/>
<path class="st3" d="M337.2,233.4l-0.3,0.1c0-0.1-0.1-0.3-0.1-0.4c0-0.1,0.2-0.1,0.3-0.1L337.2,233.4z"/>
<path class="st0" d="M256.6,557.2l0.1-0.1L256.6,557.2L256.6,557.2z"/>
<path class="st4" d="M332.7,225.3L332.7,225.3L332.7,225.3z"/>
<path class="st0" d="M916.5,349.4c9-9.8,16.2-21.1,21.2-33.5c9.4-22.3,14.1-45.2,10.6-69.6c-2.7-18.4-6.2-36.4-17.6-51.8
	c-10.5-14.3-22.6-26.9-39.2-34.2c-2-0.7-3.9-1.7-5.7-3c-3.9-3.4-8.5-6-13.3-7.9c-4.6-1.7-9.2-3.4-14-4.7c-10.5-3-21-6-31.6-8.7
	c-4.2-1.1-8.5-1.5-13.8-2.3c2.3-2.1,3.8-3.3,5.3-4.7c6.4-6.1,12.7-12.3,14.9-21.3c0.3-1.8,0.5-3.6,0.8-5.4c-0.2-0.8-0.4-1.7-0.7-2.6
	c0.1-0.5,0.2-1,0.4-1.5c0.3-1.8,0.5-3.7,0.8-5.5c-0.3-0.3-0.7-0.7-1-1.1l-4.4-1.2l-1.5,0.1h-2.6l-2.1-1.1l-3.8-0.7l-9.7-2.2
	l-0.4,1.7l9.1,2.4l2.7,0.8c0.2,0.8,0.4,1.7,0.6,2.6c-2,3-0.7,4.6,2.3,5.7c2,1.7,6.2-0.2,6.8,4l-0.5,2.7c-0.1,0.5-0.3,0.9-0.4,1.4
	c-3.9,10.6-12,17.8-20.6,24.4c-1,0.8-2.8,0.9-4.2,0.9c-4.7,0-9.3,0-14-0.4c-1.7-0.2-3.3-1.1-4.4-2.4c-6.1-9.4-15.5-14.4-25.3-18.7
	c-4.4-1.9-9-3.6-14-1.6c0.4,5.9,4.7,9.1,8.3,5.8c2.7-2.5,4.8-1.7,7.1-0.6c3.2,1.5,6.2,3.2,9.1,5.1c4.3,3,8.5,6.2,11,11.6
	c-1.2,0.4-2.3,0.7-3.5,0.9c-9.3,0.4-18.6,0.6-27.9,1.1c-18.7,1.1-37,4.8-54.3,12c-32,13.4-60.2,32.5-83.5,58.4
	c-17.9,19.9-27.5,43.3-27.9,70.2c-0.1,5.5,0,10.9,0,16.6c-1.3,0-2.6-0.2-3.8-0.4c-13.5-4.5-27-9.3-40.7-13.6c-4-1.2-4.8-2.9-4.3-6.8
	c1.7-12.7-4.3-21.2-15.2-27.1c-6.6-3.5-14-5.4-21.5-5.5c-17.2-0.4-31.4,4.9-40,20.8c-1.5,2.8-3.2,2.7-5.7,1.9
	c-12.4-4.2-24.9-8.2-37.4-12.4c-6.4-2.1-12.8-4.3-20.1-6.8c1.8-1.6,2.9-2.5,4-3.4c17.1-13.8,33.9-27.9,47.1-45.8
	c11-14.9,17.9-31.4,17.9-50.4c0-11.2-2.9-21.7-7.1-31.9c-7-17.2-15.6-33.4-28.2-47.3c-13.5-15-29.3-27-46-38
	C359.8,8.3,332.9-0.4,303.1,0c-17.5,0.3-35,1.2-52.1,5.2c-19,4.3-36.4,12.5-53,22.5c-13.2,7.9-25.7,16.7-36.6,27.5
	c-11.8,11.9-23.1,24.2-34.8,36.2c-1.3,1.5-3,2.6-4.8,3.3c-4.4,1.4-9,2.3-13.4,3.4c-19.5,5-38.5,11.4-56.4,20.8
	c-2.3,1.3-5.1,1.5-7.6,0.3c-7-2.7-13.9-5.4-21-7.7c-3-0.9-6.1-1.3-9.2-1.2c-1.5,0.3-2.8,1.3-3.4,2.8c-0.2,1,1.3,3,2.5,3.5
	c4.5,2,9.2,3.7,13.9,5.4c3.4,1.3,6.8,2.7,10.9,4.3c-1.7,1.2-2.6,2-3.6,2.6c-7.3,4.7-13.1,11.4-16.7,19.3c-2.6,5.8-1.2,8.7,5,8.1
	c6.1-0.7,12-2.2,17.8-4.3c4.2-1.5,8-4.1,12.2-6.4c1,3.7-1.4,8.6,4.2,9.2c3.7,0.3,7.4-0.2,11.1-0.4c0.5,9.2,0.5,9.2,6.8,12.8
	c-0.1,0.9-0.3,1.9-0.7,2.8c-4.6,9.4-9.4,18.6-13.9,28c-5,10.5-10,21-14.5,31.7c-7,16.9-13.2,34.1-20.4,50.9
	c-8.3,19.1-13.6,39.3-15.7,60c-2.7,27.7-5.4,55.3-7.9,83c-0.7,6.7-1.2,13.3-1.6,20c-0.2,3.1,1.4,5.1,4.7,5.2s3.5-2.3,3.7-4.8
	c0.6-6.2,1.9-12.1,5.8-17.3c12.6-17.2,28-32.2,45.6-44.3c21.3-14.7,44.6-25.9,68-36.7c17.4-8.1,35.2-15.4,51.9-24.8
	c26.6-14.9,49.1-34.8,64.1-62c0.8-1.2,1.8-2.4,2.8-3.6c0,2.5,0.3,4,0,5.4c-2.4,11-4.5,22-7.3,32.9c-4.5,17.5-9.8,34.9-14.3,52.4
	c-3.7,14.7-6.9,29.5-9.8,44.4c-2,10.4-3.3,21-4.7,31.6c-0.3,1.9-0.8,5.1,2.3,5.1c1.6,0,3.4-2.1,4.8-3.5c0.6-0.6,0.7-1.8,0.9-2.8
	c1.1-6.4,3.9-12.4,8.1-17.4c5.6-6.6,11.2-13.2,16.3-20.1c20-27.2,39.9-54.5,59.8-81.7c2.5-3.4,5.1-6.7,7.6-10.1l1.1,0.4
	c0.1,1.6,0.2,3.2,0.3,4.8c0.4,14,0.7,28,1.3,42c1,21.1,2.6,42.2,3.2,63.4c0.8,27.1,1.2,54.3,1.1,81.4c0,19.5-1,39-1.6,58.5
	c-0.2,1.4-0.5,2.8-1,4.2l-5.7-4.8l-1.5,1.3l3.9,6.3l-0.9,1.1c-1.9-0.6-3.9-1-5.8-1.8c-21.5-8.2-43.4-8.7-65.6-2.9l-0.2,0.3l-0.2-0.2
	l-8.1,2.5l1.7,1.8c4.7-1,9.4-2.1,14.1-3c17.1-3.3,34-3.2,50.6,2.5c1.7,0.7,3.3,1.4,4.8,2.3c-1,1-1.6,1.3-2.2,1.2
	c-13.1-1.5-26.2-0.3-39.1,2.1c-1.4,0.3-2.7,1.4-4,2.1c1.2,0.1,2.4,0.2,3.6,0.1c4-0.6,7.9-1.5,12-1.9c4.3-0.4,8.6-0.5,13-0.5
	c9.3-0.1,18.7-0.2,27.5,3.6c1.3,0.7,2.5,1.5,3.6,2.3c-1.1,0.8-2.4,1.3-3.8,1.3c-1.3,0.2-2.7,0.2-4,0.4c-16.5,3.2-33.4,3.3-50,0.4
	c-1.1-0.1-2.3,0-3.4,0.2c-2.3,0.4-4.5,0.7-6.8,0.8c-5.8,0.1-11.6-0.2-17.4,0c-0.8,0-1.6,1.5-2.3,2.2h351c-0.5-0.8-0.9-2.1-1.6-2.3
	c-2.4-0.8-4.8-1.3-7.3-1.4c-11.1-0.3-17.8-7.3-23.3-15.6c-8.5-12.8-9.8-26.9-5.9-41.6c1.4-5.2,0.2-6.8-5.3-6.2
	c-2.4,0.3-4.8,0.9-7.3,0.9c-3,0-4.9-1.7-4.9-5c0-9.8,0.2-19.6,3.2-29.1c1.6-5.1,0.5-6.8-5-6.8c-8.8,0-17.7,0.1-26.5,0.7
	c-3.4,0.2-5-1-5.6-4c-1.5-8-3.1-16-4.5-24c-0.4-2.1-0.1-4.3-0.4-6.5c-0.6-4.2-1.4-8.2,4.3-9.9c1.4-0.4,2.2-2.7,3.2-4.3
	c2.1-3.3,3.6-7.1,6.2-10c5.9-6.8,12.1-13.3,18.5-19.5c2-2,4.9-3.2,7.6-4.1c4.2-1.5,7-7.1,5-10.7c-2-3.5-8.1-5-11.9-1.7
	c-5.1,4.5-10.6,3.7-16.4,3.6c-5.3-0.1-10.7-0.1-16-0.2c-5-0.1-9.9-4.5-10.3-9.5c-0.6-8.3-1-16.6-1.5-25.6c5.2-0.6,10.4-1.4,15.6-1.6
	c1.1,0,2.5,1.7,3.5,2.9c3,3.3,7.7,4.4,11.9,2.7c4-1.5,6.1-5,5.9-9.4c-0.1-3.1-1.3-5.7-4.5-6.4c-2.8-0.7-3.7-2.4-3.6-5
	c0.1-3.3,0-6.6,0-9.6c4.8-2,9.3-3.6,13.6-5.7c6.5-3.1,11.1-8.4,15.1-14.1c1.7-2.4,2.9-2.8,5.7-1.8c15.3,5.4,30.8,10.3,46.1,15.7
	c1.7,0.6,3.9,2.4,4.3,4c8.2,31.2,28.9,52.3,55.3,69c14.3,8.9,29.7,15.7,45.9,20.3c0.9,0.3,1.8,0.6,4,1.4
	c-29.7,18-55.3,39.8-81.1,63.1c5.7,8.2,11.4,17.2,17.8,25.6c16.2,21.3,32.8,42.3,49.2,63.5c1,1.4,1.7,2.9,2,4.5
	c-11.6-5.7-23.1-11.4-35.8-14.1s-25.4-3-38,1.4c17.9-1.6,35.4-1.1,51.7,7.1c0,0.6,0,1.1-0.1,1.7c-4.3-0.2-8.8,0.4-12.8-0.7
	c-8.2-2.3-16.1-0.4-24.2,0.5c-6.5,0.6-12.4,3-18.1,6.2c3.7-0.4,7.3-1.1,10.8-2c2.8-0.7,5.5-1.6,8.2-2.5l13.5-0.3v0.3l0.3-0.1
	c5.3,0.5,10.7,1,16,1.7c2.1,0.3,4.2,1,6,2.1c-10.4,1.3-19.2,5.6-27.1,11.9c-10.9-0.1-21.8-0.2-32.7-0.2c-0.7,0-1.3,0.6-2,0.9h42
	c1-1.1,1.8-2.5,3.1-3.1c10.7-5.4,23-6.5,34.5-3.2c4.1,1.1,8,2.9,11.9,4.5c0.2,0.1,0.1,0.7,0.1,1c-14.1,0-28.2-0.1-42.3,0
	c-1.4,0.1-2.8,0.4-4.2,0.9h176c-0.9-2.1-0.9-2.2-3.4-2.2c-4.9,0-9.8,0-14.7,0l-0.2-1.5l9.8-2.4l10.1-1.8c10.9-0.4,21.8-1.5,32.7-0.8
	c5.6,0.4,11,4,16.5,6.2c1.3,0.5,2,1.3,0.2,2.2c-0.6-0.2-1.3-0.4-1.9-0.4c-12.8,0-25.6,0-38.5,0c-0.5,0-1,0.6-1.5,0.9h46
	c-0.2-0.2-0.1-0.5,0.1-0.7c0,0,0.1,0,0.1-0.1c-5.1-7.7-13.5-8.8-21.6-10.6l-0.2-0.3l-0.2,0.3l-5.7-0.2l-10.1,0l-7.7,0.2l-0.2-0.2
	l-0.2,0.3h0h0l-6.8,0.7c-5.3-1.2-10.1,0.7-14.9,2.5l-3-0.2c13.2-7.8,27.7-13.2,42.8-16l3.3-1.2l5.7-0.8c3.4-0.4,6.9-0.7,10.3-1.2
	c6.2-0.9,12.3-1.9,18.5-2.9c-9.6-2.8-19.1,0.9-28.6,1c-0.4,0-0.9,0.8-1.3,1.2l-8.7,1.3l-1.4,0.5c-12.8,2.2-25,6.6-36.9,11.8
	c-1.6,0.6-3.1,1.1-4.8,1.5l-1-1.4c23-32.1,48.5-62.5,76.1-90.8c-27-23.2-55-44-87.5-60c0.7-0.4,1.4-0.8,2.1-1.2
	c1.1-0.3,2.3-0.5,3.4-0.7c18.3-2.7,36.1-7.4,53.8-12.7c2.4-0.7,4.9-0.7,7.3,0c19.5,5.5,39,11.2,58.4,16.7c2.7,0.8,5.5,0.7,9,1.1
	c-1.2-7.4-6.2-9.2-11-10.8c-13-4.1-26-8-39-12c-1.2-0.6-2.3-1.2-3.4-2c6-2.8,11.4-5.3,16.7-7.9C897.5,366.1,907.8,358.6,916.5,349.4
	z M126.5,96.8c3.1-3.8,6.7-7.2,10.2-10.7c8.4-8.3,16.6-16.9,25.4-24.8c15.8-14.2,32.3-27.4,51.2-37.4c0.9-0.4,1.8-0.7,2.8-1h0.2
	c4.4-2.1,8.7-4.6,13.3-6.2c8.5-3,17.1-6,26-7.9c8.5-1.8,17.3-2.1,26-3.1l3.1-0.2c2.2-0.5,4.4-0.8,6.6-1c4.5-0.1,8.9,0,13.4,0.2
	c1.5,0.1,3,0.9,4.5,1.3l3.5-0.1l9.6,1c0-0.2,0.3-0.3,0.5-0.3c0.1,0,0.1,0,0.2,0.1c8.7-0.4,16.6,2.6,24.5,5.4
	c16.9,6,32.1,15,46.5,25.5c23.3,17.2,42.6,37.8,54.6,64.6c5.7,12.9,11.2,25.9,10.4,40.1c-0.5,8.6-2.2,17.1-5.2,25.1
	c-7,18.9-19.4,34.2-34.3,47.6c-5.8,5.2-11.9,9.9-17.9,14.9c-0.2,0.3-0.4,0.5-0.7,0.6c-4,3.4-7.2,8.4-15,7.7l3.7-6.8l3.8-9.3
	c0.6-3,1.1-6.1,1.4-9.1c0.1-0.9-1.3-1.8-2-2.8c-1,0.9-2.5,1.5-3,2.6c-2.7,6.6-4.6,13.6-7.9,19.7c-2,3.7-6.1,6.4-9.7,8.9
	c-1.4,1-4.6,1.1-5.9,0.2s-1.7-3.8-1.6-5.8s1.6-3.9,2.5-5.8c0.6-0.9,1.1-2,1.5-3.1c0.2-1.8,0.3-3.7,0.3-5.6l-6.1,0.6l-0.2,0.3
	c-3,11.3-9.5,20.1-19,27.6c-2.3-4.5-3.6-8-2.2-12.6c3-9.4,7.6-17.9,12.4-26.4c0.4-0.9,0.8-1.9,1-2.9c-3.3-1.5-5.8-1.2-7.9,1.7
	c-1.5,1.7-3.1,3.4-4.9,4.9h-0.1c-1.5,4.9-4.3,8.7-9.2,10.6c0.8,4.5-2.5,7.2-4.9,9.8c-5.4,5.8-11.3,11.2-17.1,16.6
	c-1.6,1.4-3.8,2.1-6.4,2.4c1.4-16,10.6-27.3,20.9-38.2l1.3-1.2c5.1-3.6,10-7.6,15.3-10.8c7.7-4.7,15.8-8.9,23.7-13.4
	c0.6-0.3,0.8-1.4,1.1-2.1l-1.3-1.3c-4.9,1.9-10.1,3.3-14.6,5.9c-8.6,5-17.5,10.1-25,16.4c-6.2,5.2-11.6,5.2-18.5,2.7
	c-28.8-10.4-57.8-20.5-86.7-30.7c-1.4-0.5-2.6-1.3-5.1-2.5c2.5-0.8,5-1.4,7.6-1.9c11.5-1.4,23.1-3.6,34.6-3.7
	c5.8,0,11.5,0.3,17.3-0.6c0.2,0,0.3,0,0.5,0.1l4.9-0.5c-0.1-0.2-0.1-0.5,0-0.8l-0.3-0.2c-4.3,0.2-8.4,0.4-12.1-3
	c-1-0.9-4.6-0.6-5.7,0.4c-2.5,2.4-5.3,2.4-8.2,2.3c-3.3-0.1-6.6,0-9.9,0l-3.4,0.5l-23.6,2.7l-4.3,1.1c-4.6,2.4-8.8-0.3-12.9-1.5
	c-4.8-1.3-9.4-3.4-14.2-4.8c-2.7-0.8-3.4-2.3-3.3-4.7c0.4-7.8,0.1-15.6-3.2-22.9c-0.4-1,0.3-2.5,0.6-3.9l-5.5-3
	c-0.7,1.8-1.4,3.4-2.2,5.4c5.2,0.8,6.2,4.4,6.3,8.4c0.1,5.7,0,11.5,0,17.9c-7.5-2.5-14.5-4.8-21.5-7.3
	c-17.8-6.4-35.6-12.9-53.4-19.2c-5.3-1.9-5.4-2.3-2.7-7.1C108.1,120,117.1,108.2,126.5,96.8L126.5,96.8z M337.2,233.4l-0.3,0.1
	c0-0.1-0.1-0.3-0.1-0.4c0-0.1,0.2-0.1,0.3-0.1L337.2,233.4z M190.3,181.1l-13.3,4.4C178.7,175.8,180.8,175,190.3,181.1z
	 M173.7,209.5c-4.2-2-7-2-14.5-0.2c-1.7-3.1,0.5-4.9,2.6-6c4.5-2.3,9.1-4.9,14-5.9c11.3-2.3,22.8-3.1,34,1
	c8.7,3.2,16.4,8.1,22.4,15.2c6.5,7.7,6.4,19.7,0.9,29.6c-5.3,9.4-13.9,14.7-23.3,18.6c-18,7.5-36,6.1-52.9-3.1
	c-7-3.9-13.4-9.4-15.2-18.2c-1.4-6.6-0.5-12.5,5.6-16.7c2-1.6,4-3.2,5.8-5c4.6,8.6,12.8,11,21.2,6.5c3.2-1.6,5.1-5,4.8-8.6
	C178.7,213,176.6,211,173.7,209.5z M166.4,185.2c-4.8-1-9.3-3.2-13.1-6.3c-7.1-5.9-15.9-8.7-25.1-9.8c-4.9-0.6-9.9-1.2-14.8-1.7
	c-9.1-0.8-17.8,1.5-26.5,4c-2,0.6-4,0.7-7,1.2c0.7-2.6,0.9-4.2,1.6-5.6c3.1-6,6.5-11.9,9.6-17.9c1.4-2.7,2.8-3.2,5.9-2.1
	c14.7,5.4,29.5,10.3,44.2,15.4c10.5,3.7,20.9,7.5,31.4,11.2c2.5,0.9,3.6,2.3,2,4.9c-1,1.6-1.9,3.1-2.8,4.7
	C170.6,185.6,169,185.8,166.4,185.2z M72.7,142.4c-2.9,2.8-5.7,5.8-8.8,8.4c-1.1,0.5-2.5,0.5-3.5-0.2c-0.6-0.6-0.7-2.6-0.2-3.4
	c3-4.7,6.2-9.2,9.3-13.8c2.5-3.4,5.2-6.8,7.4-10.4c0.7-1.1,0.6-3.8,0-4.2c-1.3-0.7-3.2-0.4-4.8-0.3c-0.5,0-0.9,0.9-1.3,1.4
	c-2.3,2.9-4.6,5.9-7,8.8c-9.1,10.7-19.7,19.4-34,22c-1.9,0.4-3.9,0-6.6,0c3.5-6.9,8.3-11.4,13.2-15.7c11.9-10.5,26.2-16.7,41-21.8
	c11.3-3.9,22.5-8,33.8-11.9c2.4-0.9,5-1.2,7.5-1c-2.9,3.6-5.7,7.2-8.7,10.6c-12.3,14.1-21.4,30.3-29.8,47c-1,1.7-2.2,3.2-3.5,4.6
	l-1.7-0.9c0.4-2,1-3.9,1.8-5.7c4-7.6,8.4-15.1,12.3-22.7c1-2,1.1-4.4,1.6-6.6c-0.2,0-0.3-0.2-0.4-0.3c-3.6-0.7-5.8,0.9-7.6,3.9
	c-1.8,3.1-3.8,6.1-6,9C75.8,140.4,74.1,141.3,72.7,142.4L72.7,142.4z M63.9,204.9c1.8-4.4,3-9.1,4.7-13.6c2.3-5.9,6.9-9.5,12.4-12.4
	c20-10.5,40.3-9.4,60.8-1.7c3.2,1.2,5.9,3.4,9.8,5.7c-7.3,2.1-13.4,3.3-19,5.6c-11.6,4.7-22.4,11.1-31.5,19.8
	c-1.6,1.5-3.6,2.5-6.3,4.2l-0.6,4.2c3.6-1,5.7-2.2,7.6-5.9s6.8-6,10.5-8.8c1.6-1,3.3-2,5.1-2.8c0.3,0.7,0.7,1,0.6,1.2
	c-3,8.1-0.1,13.4,8.5,14.4c3.6,0.4,7.3,0.1,10.7-0.9c5.2-1.6,7.5-5.6,7.2-10.6c-0.3-4.7-2.5-7.2-8-8.9c-1.4-0.4-2.8-1-4-1.8
	c6.1-3,12.7-4.7,19.5-4.9c1.4,0,3.6,1.9,4.2,3.4c2,4.9,0.6,10.6-3.4,14.1c-5.7,4.6-10.3,10.4-13.6,17c-1.2,2-2.8,3.6-4.7,4.9
	c-6.7,4.9-14,8.9-22.6,9.3c-6.3,0.4-12.6,0.4-18.9,0.1c-10.9-0.7-19.7-6-26.4-14.3C62.4,217.6,61.4,210.8,63.9,204.9z M313.5,279.3
	c-3,1.7-5.5,4.6-7.7,7.3c-3.4,4.2-6.5,8.7-9.7,13.1c-2.1,3.5-4,7.2-6.4,10.5c-5.7,7.6-11.8,15.1-17.6,22.6c-2.3,3.2-4.5,6.5-6.8,9.8
	c-10.9,15.1-21.6,30.3-32.6,45.3c-3.5,4.8-7.6,9.1-12.2,14.6c-0.3-2.1-0.7-3-0.6-3.8c3.2-16.6,6.1-33.3,10-49.8
	c3.2-13.7,7.8-27.1,11.5-40.7c4.1-15.2,8.2-30.5,11.6-45.9c1.3-5.9,0.8-12.2,0.5-18.2c-0.4-2-1.7-3.8-3.6-4.6
	c-2.7-0.8-3.5,1.7-4.5,4.1c-7.3,16.7-17.7,31.2-29.8,44.7c-12.4,13.8-27.3,24.4-43.5,32.9c-16.4,8.7-33.6,16-50.4,24
	c-20.8,9.8-42,18.8-61.1,31.6c-8.3,5.8-16.1,12.3-23.2,19.4c-9.5,9.2-18.2,19.3-27.3,28.9c-0.9,0.7-1.8,1.3-2.8,1.8
	c0.5-5.2,0.8-9.4,1.3-13.5c0.9-8.8,1.9-17.5,2.8-26.3c2.4-23,4.2-46,7.6-68.9c1.7-11,5.9-21.8,9.9-32.3
	c7.9-20.4,16.4-40.6,24.7-60.8c1.2-3,2.8-5.8,4.6-9.5c7.2,18.6,21.8,23.9,39.1,24.8c10.4,0.6,20.6,0.2,30.2-4.6
	c1.8-0.9,4.2-0.5,6.6-0.7c0.4,1.1,0.8,2.3,1,3.5c0.9,12.2,9.1,18.7,18.8,23.8c14,7.4,28.9,10.5,44.4,7c16.8-3.8,32-10.6,40.2-27.2
	c8.4-16.9,4-28.4-9.6-39.5c-9.2-7.6-20.8-11.7-32.8-11.6c-7.7,0-15.4,0.6-24.2,1l13.3-5.6c0.1-0.1,0.4,0,0.5-0.1
	c10-6.1,19.4-1.1,28.6,2.1c22.7,7.9,45.3,16.2,68,24.2c8.9,3.2,17.9,6,27.9,9.4c-1.5,2.9-2.9,5.4-4,7.9c-2.8,6.3-5.7,12.6-8.2,19
	c-1.4,3.6,0,7,3,9.3c3,2.4,7.3,2.3,10.1-0.4c7.3-6.5,14.2-13.4,21.2-20.2c0.7-0.7,1.3-1.5,2-2.2c0.2-0.2,0.6-0.1,1.5-0.2
	c-0.6,3.1-1.1,6-1.8,8.9c-0.9,3.5-0.8,6.7,2.4,8.9c2.8,2,7.9,1.6,10.9-0.6c3.3-2.5,6.5-5.1,10.2-8c3.7,4.6,9.2,3.7,15.6,3.6
	c-1,1.9-1.2,3.6-2.2,4.3c-13.8,9.6-28.9,17.1-44.9,22.4C321.9,276.2,317.4,277.2,313.5,279.3L313.5,279.3z M355.8,555.7
	c-0.1,2-0.3,3.9-2.8,3.9c-9.9,0.1-19.9,0-30.1,0c0-4.8-0.1-9.7,0-14.7c1.5-48.8,0.4-97.5-1.4-146.3c-0.8-23-1.6-45.9-2.4-68.9
	c-0.5-14.3-1.1-28.6-1.5-42.9c0-1.5,0.7-4.1,1.8-4.5c10.7-4.8,21.6-9.2,33.5-14.2c0,9.5,0.1,18.3,0,27.1
	c-0.3,21.8-1.5,43.6-0.9,65.4c0.9,33.8,2.3,67.5,4.7,101.2C358.9,493.3,357.3,524.5,355.8,555.7L355.8,555.7z M363.8,536.3
	c-0.4-27-0.6-53.9-1.5-80.9c-1.1-34.1-3.7-68.2-4.2-102.3c-0.4-28.1,1.3-56.2,2-84.4c0.1-3.4,1.2-5.6,4.4-7.5
	c6.4-3.5,12.3-7.8,18.6-11.5c1.7-0.9,3.6-1.1,5.4-0.6c11.8,3.9,23.6,8,35.3,12.1c10,3.5,20,7,30.6,10.7c-0.1,1.7,0,3.4,0.3,5.1
	c1.1,5.1,1.1,11.2,4,15.1c6.1,8.5,6.2,17.9,7.2,27.4c0.1,1,0,2,0.2,3c0.9,5.9,0.9,5.9-5.2,6.4c-3,0.4-6,0.5-9,0.5
	c-2.4-0.1-4.7-0.6-6.9-1.5c-3.5-1.5-7.6-1.3-10.3,1.1c-2.5,2.3-2.4,5.2-0.5,8c1.5,2.1,2.7,4.4,3.3,6.9c2.6,12.2,5,24.4,7.4,36.6
	c0.2,1.2-0.4,2.5-0.4,3.8c0,1.5-0.4,3.8,0.5,4.5c1.4,1.1,3.5,1.5,5.4,1.7c1.2,0.1,2.5-1,3.7-1.2c6.4-1,7.6,0.2,6.4,6.6
	c-0.5,2.5-0.4,5-1.2,7.4c-1,3.4-2.4,6.7-4.2,9.8c-2.2,3.7-2,7.3,1,10.4c0.8,0.8,1.8,1.6,2,2.6c1.9,9.3,3.8,18.5,5.5,27.9
	c0.3,1.7-0.2,3.6-0.3,5.9c-5.9,0.3-11.7,0.5-17.5,0.9c-4.3,0.3-8.6,0.8-12.9,1.6c-5.5,1-6.9,3.4-5.2,8.8c1.4,4.5,3,8.8,4.3,13.3
	c0.5,2.1,0.9,4.2,1.1,6.4l-15.3,4.9c2.6,7.5,5.1,14.8,7.5,22.1c0.1,1,0.1,1.9,0.2,2.9l-1,6.5l0.2,2.8c-0.9,3-1.6,6-2.7,8.9
	c-3,7.7-3.1,7.6-11.2,6.8h-2.3c-5.9,0.4-11.9,0.6-17.8,1.2s-11.6,1.6-17.4,2.4c-0.2-0.5-0.4-0.9-0.5-1.4c7.1-3.2,14.2-6.8,21.4-9.6
	c7.7-3,15.6-5.4,23.5-8l-0.3-1.8c-14.1,3.1-27.9,7.3-40.8,13.9c-4.2,2.2-8.2,4.9-13.2,7.9C363.8,545,363.9,540.7,363.8,536.3
	L363.8,536.3z M370.1,560c0-0.4-0.1-0.9-0.1-1.3l28.8-2c0,0.5,0,0.9,0.1,1.4C389.5,562,379.7,559,370.1,560L370.1,560z M411.1,555.6
	v0.3l-0.3-0.2c-9.2-0.5-18.5-1.1-27.7-1.4c-2.4-0.1-4.8,0.8-7.1,1c-1.3,0-2.5-0.3-3.5-1c14.2-4.7,29.1-6.5,43.9-5.5L411.1,555.6z
	 M496.8,464.7c5.4-0.3,10.9-0.4,16.3-0.4c5.9,0,7.9,2.7,7.2,8.6c-0.9,6.6-1.5,13.2-1.7,19.8c-0.1,8.1,1.7,9.5,9.7,9.6
	c1.8,0,3.6,0,6.2,0c-0.4,3.8-0.5,7.2-1.3,10.5c-3.1,14.2,2,26.3,9.7,37.8c1.8,2.7,3.2,5.6,5.1,8.8c-8.5,2.7-16.4,1.5-24.2,1.4
	c-12.1-0.2-24.2,0-36.3,0.1c-8.8,0-17.6,0.2-26.5,0.1c-5.8-0.1-11.6-0.4-17.4-0.9c-8.3-0.8-16.6-1.9-25.6-3c1.8-3.9,2.1-7.5,6.4-8
	c0.9-0.3,1.7-0.9,2.1-1.8c2.4-7,5.6-13.9,6.7-21.1c0.7-4.8-1.4-10-2.7-15c-0.9-2.7-2-5.3-3.3-7.7c-1.6-3.4,0.1-5.3,2.9-6.8
	c0.3-0.1,0.7-0.2,1-0.3c9.1-3.4,9.4-4,6.4-13.4c-0.8-2.2-1.4-4.4-1.8-6.7c-1.2-7.1-1.2-7.2,5.5-9c2.1-0.6,4.2-0.9,6.4-0.9
	c9-0.1,18,0,27-0.3C481.9,465.9,489.4,465.1,496.8,464.7L496.8,464.7z M475.2,374.8c11.8-0.3,23.6-0.7,35.5-1
	c1.3,0.1,2.5,0.3,3.8,0.6c0.2,0.4,0.4,0.8,0.7,1.2c-3.9,4.1-7.6,8.2-11.6,12.1c-4.2,4.1-8.4,8.1-12.9,11.8c-1.6,1.3-4,1.8-6.1,2.5
	c-2.6,1-5.5,1.4-7.8,2.8c-5,3.3-5,7.5-0.8,11.5c1.2,1,2,2.3,2.3,3.8c1.2,11.8,2.3,23.5,3.4,35.3c0.1,1.3,0,2.6,0,3.8
	c-6.3,1.8-7.2,1.5-9.6-3.6c-4.3-9.2-6.6-19.3-6.9-29.5c-0.1-1.9,0.8-3.8,1.6-5.6c1.1-2.8,1.3-5.2-0.7-7.9c-1-1.6-1.4-3.5-1.1-5.4
	c0.6-4.8,1.6-9.5,2.6-14.2c0.3-1.4,0.5-3.1,1.4-4.1c1.8-2.1,3-4.4,0.9-6.6c-2.1-2.3-5.6-2.8-8.2-1.1c-0.6,0.3-1,0.9-1.6,1.2
	c-4.5,2.3-8.7,0.6-9.6-4.2c-2.3-12.1-4.4-24.2-6.5-36.3c-0.5-2.7,2.1-6.4,5.1-6.8c5.9-0.8,11.8-1.2,18-1.7c0.7,8.8,1.5,17.1,2,25.3
	c0.1,1.2-1.3,2.5-2.2,3.7s-2.2,2-3,3.2c-2.8,4.1-1.7,7.5,3.1,8.7C469.5,375.2,472.4,374.9,475.2,374.8L475.2,374.8z M490.8,325.9
	c-0.3,0.1-0.7,0.1-1,0.1l-16.6,1.7c-0.4-8-0.8-15.2-1.2-23.1c2.8,0.4,5.1,0.9,7.5,1.1c4.3,0.4,8.6,0.7,12.9,0.8c3,0,4.3,1,4.1,4.1
	c-0.2,2.6,0,5.3,0,8C496.8,322.1,494.4,325.2,490.8,325.9L490.8,325.9z M524.5,287.5c-5.2,7.8-13.6,12-22.7,14.4
	c-1.1,0.1-2.3,0.1-3.4-0.1l-4,0.2c-3.9,0-7.8,0.5-11.6-0.1c-7.3-1-13.7-4.1-18.2-10.1c-3.9-5.3-4.1-11.4-2.9-17.6
	c1.7-8.5,8.9-16.3,16.6-17.9l8.2-1.2l10,0.3l1.8,0.3l2.3,0.6c5.3,1.8,9.2,5.3,12.1,9.9c3.3,3.4,2.1,7.3,0.5,10.6
	c-4.2,8.7-10.7,15-20.9,15.4c-5.4,0.3-10.7-1.3-14.9-4.6c-5.2-4.1-4.2-15.4,1.6-18.8c4.6-2.9,10.5-3,15.1-0.1c1.7,1,3.4,3.7,3.3,5.5
	c-0.1,2.4,0.4,6-3.3,7c-2.3,0.6-4.2,3.5-7.2,0.9s-3-5.2-2.1-8.8l-4.4,3.4c1.5,4.1,2.9,8.1,7.6,8.4c5.7,0.4,11.3-1.1,13.8-6.6
	c1.3-2.8,0-6.7-0.1-10.1l-2.7-3l-10.4-3.5l-9.9,0.9c-1.1,1.2-2.3,2.3-3.6,3.3c-9.4,7-8.8,21,1.8,26.2c5.2,2.5,11.3,3.1,17,4.6
	l2.7-0.7c3.2-1.5,6.4-3,9.7-4.5c6.4-2.9,9.8-8.5,12.1-14.6c3.6-9.3-2.2-19.3-13-23.6c-11-4.4-21.8-3.6-32.6,0.4
	c-0.8,0.3-1.6,0.5-2.4,0.7c-0.1,0-0.3-0.2-0.7-0.5c2-4.9,6.2-7.8,10.7-9.3c11.9-4,24.2-4.5,35.5,1.4
	C533.4,255.2,536.1,270.3,524.5,287.5L524.5,287.5z M856.2,147.2l9.5,3.6c1.2,0.4,2.5,0.8,3.7,1.3c1.7,0.7,3.3,2.2,5,2.2
	c6.7-0.2,10.5,4,15.1,10.2c-1.1,0.3-2.1,0.8-3.1,1.4c-6.1,4.8-12.1,9.7-18.1,14.7c-1,0.9-1.8,1.8-2.7,2.8l-21,19.5
	c-18.3,18.4-38.4,34.5-58.5,50.8c-12.4,10-24.1,20.8-35.8,31.6c-9.1,8.3-17.8,17-26.6,25.7c-1.7,1.6-2.9,3.6-4.6,5.2
	c-1.4,1.2-2.9,2.2-4.5,3.2c-0.4-4.5-0.8-8-1.1-11.5c-0.5-4.9-1-9.8-1.3-14.6c-0.5-9.5-0.9-19.1-1.4-28.6l-0.3-4.6
	c-0.4-0.9-0.6-1.8-0.8-2.8c-0.8-15.4-1.5-30.9-2.3-46.3c-0.1-1.5,0.1-3,0.2-4.5l-0.2-2.5c-1.2-7.2-2.4-14.5-0.7-21.9
	c7.4,7.7,16.2,12,25.8,15.1c1.7,0.5,2.7,3.1,4,4.6s2.7,3,4,4.4l-2.2-6.2c0.4-0.7,0.8-1.9,1.2-1.9c4.2,0,8.4,0.1,12.7,0.2l2.7-0.4
	l2.3-0.3c8.3-1.6,16.1-4.3,22.8-9.6c2.2-1.7,3.8-1.7,5.3,0.7c6.6,10.4,17.1,14.1,28.4,15.1c6.6,0.6,13.5-1.1,20.2-1.8l0.2-0.3
	l0.3,0.2l2.4-0.7c7.2-3.7,14.5-7.2,20.1-13.2c2.4-2.6,4.6-5.5,6.8-8.2c0-0.3,0.2-0.5,0.4-0.7l-0.1-0.4l0.4-0.1
	c0.1-0.7,0.2-1.3,0.5-1.9c3.7-7.2,3.3-14.4-0.6-21.4l-8.5-7L856.2,147.2z M790.5,158c1.7,7.3-0.1,12.5-4.5,18
	C785.1,169.2,785.5,163.7,790.5,158z M855.9,153.7c6.7,6.4,8,12.9,4,21.2c-5.9,12.4-15.9,20-29.1,23.7c-11.3,3.2-22,1.1-32.4-3.6
	c-5.2-2.3-8-6.9-10.1-11.8c-0.5-1.1,0.5-3,1.1-4.4c1.8-4,4.3-7.9,5.6-12.1c0.8-2.6-0.1-5.8-0.2-8.8c-0.1-1.7,0-3.5,0.1-5.2l1.4,0.3
	c-0.1,11.8,9.8,14,20.7,9.7c7.5-3,9.3-10.5,4.1-15.8c-1.4-1.4-3.4-2.4-5-4C830.5,142.4,844.6,142.9,855.9,153.7L855.9,153.7z
	 M791.2,136.2c3.4-0.1,6.8,0,10.2,0l0.4,1.7l-5.5,4.9l0.8,1.2c2-1.2,4.1-2.2,5.9-3.6c3.8-2.8,7.7-4.4,12.2-1.4l-21.2,7.8
	c0.3-0.5,0.7-1.3,0.8-1.5c-2-1.6-3.8-3.4-5.5-5.2C787.8,138.1,788.3,136.3,791.2,136.2L791.2,136.2z M768.2,141
	c-2.4,2.1-5.8,4.1-7.8,7c-2.4,3.4-2,8.1,1,11.1c3.7,3.9,8.7,4,13.5,2.5c5.4-1.7,9.2-5.2,9.7-11.4c3.3,2.1,3.7,4,1.4,7.4
	c-3.9,5.7-4.4,12.5-4.1,19.2c0.2,3.6-1.2,5.4-3.7,7.4c-11.3,9.1-24.4,11.3-38.5,10.2c-3.5-0.3-4.6-1.9-5-5.4
	c-1.6-16.9,6.7-29.6,17.2-41.4c1.2-1.4,2.6-2.6,3.8-3.9C760,139.3,762.8,138.8,768.2,141z M754.3,140.4
	c-13.7,14.8-24.8,30.3-21.9,51.8c-21.3-2.2-26.8-20.6-17-34.9C724.4,144,738.5,139.8,754.3,140.4L754.3,140.4z M706.1,147.5
	c6-2.2,12.2-4,18.3-5.9l0.7,1.5c-9.3,5.4-16.5,13.7-20.4,23.7c-0.3-5-0.9-10.1-0.9-15.1C703.8,150.4,704.9,148,706.1,147.5
	L706.1,147.5z M850.3,445.8c4.8,3.8,9.5,7.8,14.2,11.8c4,3.4,4.1,3.6,0.8,7.5c-7.5,8.8-14.9,17.9-22.9,26.2
	c-13,13.6-24.6,28.3-35.9,43.3c-5.8,7.7-11.7,15.3-17.3,23.1c-1.7,2.3-2.7,5.2-4,7.8h-91.2c-1.8-8.9-7.7-15.6-12.9-22.4
	c-15.8-20.7-32.2-41-48.1-61.7c-4.2-5.5-7.8-11.5-11.5-17.4c-1.7-2.6-1.4-4.8,1.2-7.4c15.7-15.8,32.4-30.6,51.4-42.3
	c6.5-4,12.5-8.8,18.6-13.4c3.4-2.8,8-3.9,12.3-2.8c22.9,4.3,46.3,5.6,69.6,3.9c3.3-0.3,6.5,0.3,9.5,1.8
	C807.2,415.9,829.7,429.4,850.3,445.8z M835.5,385.1c-3.9,1.2-7.7,2.5-11.6,3.4c-27.3,6.4-54.8,10.9-83,9.2
	c-27.6-1.7-54.4-7-79.3-19.5c-24.1-12.2-45.2-28-58.7-52.1c-3.4-6.1-5.5-13-8.3-19.9c6.5-0.2,8.1,0.8,10.1,5.3
	c3.5,8.3,12.3,11.9,22.6,8.7c0.3,5.6,2.5,10.3,7.6,13c6.1,3.1,9.4-1.8,13.9-5.5c0.2,3.3,0.4,5.8,0.5,8.4c0.3,6.2,4.1,10.1,9,13
	s10,1.1,12.8-3.8c1.7-2.7,3.1-5.5,4.2-8.5c1.3-3.9,3.8-4.1,7-3.1c6.5,2,13,4,19.5,5.9c13.2,4,26.4,7.8,39.6,11.8
	c9.6,2.9,19.2,6,28.8,9c2.8,0.9,3.7,2.2,2.1,5.1c-1.6,2.9-2.7,6-3.3,9.3c-0.9,5.1,2.6,9,7.8,9.2c6.6,0.3,11.5-3.7,16.7-6.9
	c2.3-1.6,4.5-3.2,6.5-5c1.1,0.9,2.2,1.8,3.2,2.8c3.8,4.7,7,5.7,11.8,2.9c2.5-1.7,5.8-1.9,8.5-0.5c4.2,2,8.2,4.2,12.4,6.4
	L835.5,385.1z M863.4,376.1c-3.8,1.9-7.3,0.7-10.4-1.6c4.2-4.8,8.4-9.2,12.2-13.9c1.6-2.3,2.8-4.8,3.6-7.5c0.4-1.1-0.4-2.6-0.7-4
	l-1.6-0.2c-1.9,3.2-4,6.4-5.7,9.7c-4.2,7.9-10.7,14.2-18.8,18c-2.8,1.4-5.9,3-8.8,0.4s-2.7-5.9-1.3-9.2c2.1-4.7,4.3-9.3,6.5-14
	c0.8-1.7,2.7-3.5-0.2-5c-2.6-1.3-3.3,1-4.6,2.5c-4.8,6.1-9.6,12.2-14.7,18.1c-1.6,1.7-3.5,3-5.7,3.9c-3.3,1.5-5.6-0.2-4.6-3.6
	c1.4-4.6,3.2-9,5.5-13.3c2.2-4.3,5-8.3,7.3-12.5c0.7-1.3,0.8-3,1.2-4.6c-3.1-0.8-4.8-0.4-6.3,2.1c-7.9,12.9-17.8,24.6-29.3,34.4
	c-3.2,2.7-6.8,4.6-11.5,4.3c-2.2-5.4-0.4-10.2,2.1-14.7c5.7-10.6,14-18.9,23.8-25.8c6.9-4.8,14-9.4,21.1-14.1c1.1-0.7,2.3-1.3,3.4-2
	c-3.1-4-5.5-2.7-7.7-1.2c-7.4,5.1-14.8,10.1-21.9,15.6c-5.1,4-9.9,8.3-14.5,12.8c-1.3,1.5-3.5,2-5.3,1.2c-20-6.2-40-12.2-60.1-18.3
	c-10.6-3.2-21.3-6.5-32-9.6c-3.1-0.9-4.1-2.6-3.9-5.8c0.9-11.4-0.8-22.6-3.8-33.6c-1-3.6-1.9-7.5-7.5-8.7c0.8,3.9,1.5,7.3,2.3,10.7
	c2.4,9.9,3.5,20,3.2,30.2c-0.2,9.1-3.5,17.2-7.6,25c-2.7,5.1-8.4,4.8-10.7-0.7c-1.4-3.5-1.9-7.3-1.4-11c1.7-10,4.2-19.8,6.3-29.7
	c0.5-2.4,3-5.1-0.6-7c-2-1-4.4,1.7-5.2,6c-1.6,9-5.6,17-10.1,24.9c-1.4,2.4-2.9,5.2-6.4,4.6s-5.1-3.6-5.1-6.6
	c0-5.6,0.8-11.2,1.3-16.7c0.2-1.5,1.2-2.9,1.2-4.3c0-1.8-0.5-4.7-1.4-5c-2.5-0.6-4.8,0.2-5.7,3.4c-1.2,4.5-2.7,8.9-4.5,13.2
	c-2.2,5.3-5.6,5.9-10.1,2.3c-4.7-3.7-6.9-8.6-6.3-14.5c0.9-8.1,3.6-15.5,10.3-20.9c3.6-2.9,7.1-6.1,10.5-9.2
	c0.6-0.8,1.1-1.6,1.4-2.5c-8.5-0.3-24.4,16.1-27.9,29.2l-9.6-2.8c-1.1-10.8-0.3-21.3,0.7-31.9c2.4-26.4,17.8-45.8,35-63.8
	c17.7-18.7,38.1-34.1,62-44.5c2.1-0.9,4.3-1.6,7-2.6c0.6,7.2,1.2,13.7,1.6,20.3c1.7,25.1,3.3,50.2,5,75.3
	c1.5,22.6,3.2,45.2,4.8,67.8c0.2,2.5-0.1,5,0.2,7.5c0.3,1.8,1,4.9,1.9,5c2.1,0.2,4.1-0.5,5.7-1.9c3.5-3.3,6.4-7.2,9.8-10.5
	c18.4-17.7,36.6-35.8,55.6-52.8c19.4-17.4,39.8-33.8,59.6-50.8c15.3-13.1,30.2-26.5,45.5-39.7c6.4-5.5,6.7-5.6,13.3-0.3
	c17.4,13.8,29.7,30.9,36.2,52.4c6,19.8,5.8,39.6,2.1,59.7c-2.8,15.3-7,30.1-14.6,43.8c-8,14.2-18.8,25.9-32.7,34.3
	C882.7,367.1,872.9,371.4,863.4,376.1L863.4,376.1z"/>
<path class="st4" d="M883.2,536c-0.1-0.1-0.3-0.2-0.4-0.2l0,0L883.2,536L883.2,536z"/>
<path class="st3" d="M416.4,548.7L416.4,548.7l0.3-0.1L416.4,548.7z"/>
<polygon class="st3" points="410.9,555.7 410.9,555.4 411.1,555.6 411.1,555.9 "/>
<polygon class="st3" points="834.3,202 834.1,202.2 833.8,202.1 834,201.8 "/>
<polygon class="st3" points="864.3,178.5 864.3,178.9 864,179.1 863.9,178.7 "/>
<path class="st3" d="M111.5,132.9l-0.3-0.3c0.1-0.1,0.3-0.2,0.4-0.2s0.2,0.2,0.4,0.2L111.5,132.9z"/>
<path class="st6" d="M747.2,217.2c-2.5-0.7-5.4-0.6-4.1-5c0.5-1.6-1.6-4-2.6-6.1c2.3,1.6,3.5,4.3,7,4.5
	C750.4,210.8,750.2,214.5,747.2,217.2z"/>
<path d="M474.9,546.2c-8.8,1.2-17.5-3.3-25.4-9.6c-4.5-3.6-5-8.9-4.7-14c0.5-7.9,4.3-14.7,9.4-20.8c4.2-4.9,9.7-7.5,15.9-9
	c5.8-1.5,12-1.3,17.6,0.7c9.8,3.6,16.1,10.4,20.2,20.1c3.5,8.2-0.9,21.3-8.3,25.6C492.2,543.7,483.6,546.1,474.9,546.2z M475.6,520
	c-8.3-0.7-15.5-1.5-22.8-1.8c-1.2,0-3.3,1.9-3.6,3.3c-0.5,2.2-0.4,4.6,0.4,6.7c3,8.3,10.2,11.5,17.9,13.6c1.4,0,2.6-0.7,3.3-1.9
	C472.4,533.7,473.8,527.5,475.6,520L475.6,520z M492.8,521L492.8,521c-2.1-0.1-4.3-0.2-6.5-0.1c-5.3,0.4-6.1,1.2-7.3,6.3
	c-0.6,2.6-1.2,5.2-1.9,7.7c-1.4,5.8,1.1,8.7,7,7.2c4.5-1.1,8.8-2.9,12.6-5.5c3-2.2,5.3-5.9,6.9-9.4c1.7-3.7-0.1-5.8-4.3-6.1
	C497.1,520.8,494.9,521,492.8,521L492.8,521z M503.9,516.8c-3-9.8-8.2-16.2-17-19.4c-1.8-0.6-3.8-1.5-4.5,1.1
	c-1.6,5.9-2.7,11.9-1.6,18.3H503.9z M477.9,497.6c-11.4-1.6-22.3,5.6-24.2,15.4c6.3,3.5,13.4,2.5,20.2,3.2c0.7,0.1,2-1.3,2.2-2.2
	C476.9,508.6,477.4,503.2,477.9,497.6L477.9,497.6z"/>
<path class="st6" d="M92.2,219.2l-0.2,0.3c-0.1-0.1-0.1-0.2-0.1-0.4c0-0.1,0.1-0.2,0.2-0.3L92.2,219.2z"/>
<path class="st7" d="M375.5,224.4c0.1,1.1,0.2,2.1,0.4,3.2c0.2,0.7,0.5,1.3,1,1.9c0.4,0.5,1.5,1.2,1.4,1.4c-0.4,0.9-1,1.6-1.8,2.1
	c-0.4,0.2-1.5-0.4-2-0.8c-3-2.4,0.1-5.1-0.7-7.6L375.5,224.4z"/>
<path class="st7" d="M368,238.2c0.7-1.7,1.6-3.3,2.5-4.9c0.2-0.2,1.9,0.6,2.8,0.9c-1,1.7-2,3.5-3,5.2L368,238.2z"/>
<path class="st8" d="M448.4,102.2c-12-26.8-31.3-47.4-54.6-64.6C379.4,27,364.2,18,347.3,12c-8-2.8-15.9-5.8-24.5-5.4
	c-0.2-0.1-0.4-0.1-0.6,0c0,0-0.1,0.1-0.1,0.2c-3.2,0-6.7,1.8-9.6-1L309,5.9l-24.4-0.5l-3.1,0.2c-8.7,1-17.5,1.3-25.9,3.1
	c-8.8,1.9-17.4,4.9-26,7.9c-4.6,1.6-8.9,4.1-13.3,6.2H216c-1,0.3-1.9,0.6-2.8,1c-18.9,10-35.4,23.2-51.2,37.4
	c-8.8,7.9-17,16.5-25.4,24.8c-3.5,3.5-7.1,6.9-10.2,10.7c-9.4,11.5-18.4,23.2-25.8,36.2c-2.7,4.7-2.7,5.1,2.7,7
	c17.8,6.4,35.6,12.8,53.4,19.2c7,2.5,14,4.8,21.5,7.3c0-6.4,0.1-12.2,0-17.9c-0.1-4-1.1-7.6-6.3-8.4c0.8-2.1,1.5-3.6,2.2-5.4l5.5,3
	c-0.2,1.5-1,3-0.6,3.9c3.3,7.4,3.6,15.1,3.2,22.9c-0.1,2.4,0.6,3.9,3.3,4.7c4.8,1.4,9.4,3.4,14.2,4.8c4.2,1.2,8.3,3.9,12.9,1.5
	l4.3-1.1l23.6-2.7l3.4-0.5c0.2-0.4,0.6-0.8,0.9-1.1c-0.4,0.3-0.7,0.7-0.9,1.1c3.3,0,6.6-0.1,9.9,0c3,0.1,5.7,0.1,8.2-2.3
	c1.1-1.1,4.7-1.4,5.7-0.4c3.6,3.3,7.8,3.2,12.1,3l0.3,0.2l3.7-0.3c0,0.5,0,1,0,1.5l-3.7-0.4l-4.9,0.5c-0.2-0.1-0.3-0.1-0.5-0.1
	c-5.8,0.9-11.5,0.6-17.3,0.6c-11.6,0.1-23.1,2.2-34.6,3.7c-2.6,0.5-5.1,1.1-7.6,1.9c2.5,1.2,3.8,2,5.1,2.5
	c28.9,10.2,57.9,20.3,86.7,30.7c6.9,2.5,12.3,2.5,18.5-2.7c7.6-6.4,16.4-11.4,25-16.4c4.5-2.6,9.7-4,14.6-5.9l1.3,1.3
	c-0.4,0.7-0.6,1.8-1.1,2.1c-7.9,4.5-15.9,8.7-23.7,13.4c-5.3,3.2-10.2,7.2-15.3,10.8l-1.3,1.2c-10.2,10.8-19.5,22.2-20.9,38.1
	c2.6-0.4,4.9-1,6.4-2.4c5.9-5.4,11.7-10.8,17.1-16.6c2.5-2.6,5.7-5.3,4.9-9.8c4.9-1.9,7.7-5.7,9.2-10.6h0.1c1.7-1.5,3.3-3.1,4.8-4.9
	c2.2-2.9,4.6-3.2,7.9-1.7c-0.2,1-0.6,2-1,2.9c-4.9,8.4-9.5,17-12.4,26.4c-1.5,4.6-0.2,8.2,2.2,12.6c9.5-7.6,16-16.4,19-27.6l0.2-0.3
	l6.1-0.6c0,1.9-0.1,3.7-0.3,5.6c-0.4,1.1-0.9,2.1-1.5,3.1c-0.9,1.9-2.3,3.8-2.5,5.8s0.3,4.8,1.6,5.8s4.5,0.8,5.9-0.2
	c3.6-2.5,7.7-5.3,9.7-8.9c3.4-6.2,5.2-13.2,7.9-19.7c0.5-1.1,2-1.7,3-2.6c0.7,0.9,2.1,1.9,2,2.8c-0.3,3.1-0.8,6.1-1.4,9.1l-3.8,9.3
	l-3.7,6.8c7.8,0.7,11-4.3,15-7.7c0.3-0.1,0.6-0.3,0.7-0.6c6-5,12.1-9.7,17.9-14.9c14.9-13.3,27.3-28.7,34.3-47.6
	c3-8.1,4.7-16.5,5.2-25.1C459.5,128,454.1,115,448.4,102.2z M111.5,132.9l-0.3-0.3c0.1-0.1,0.3-0.2,0.4-0.2s0.2,0.2,0.4,0.2
	L111.5,132.9z M370.4,239.4l-2.4-1.2c0.7-1.7,1.6-3.3,2.5-4.9c0.2-0.2,1.9,0.6,2.8,0.9C372.4,236,371.4,237.7,370.4,239.4z
	 M376.6,233c-0.4,0.2-1.5-0.4-2-0.8c-3-2.4,0.1-5.1-0.7-7.6l1.6-0.2c0.1,1.1,0.2,2.1,0.4,3.2c0.2,0.7,0.5,1.3,1,1.9
	c0.4,0.5,1.5,1.2,1.4,1.4C378,231.7,377.4,232.5,376.6,233L376.6,233z"/>
<path class="st8" d="M357.6,244.5c-3.8,2.9-7,5.5-10.2,8c-3,2.2-8.1,2.5-10.9,0.6c-3.1-2.3-3.3-5.4-2.4-8.9c0.8-2.9,1.2-5.8,1.8-8.9
	c-0.8,0.1-1.3,0-1.5,0.2c-0.7,0.7-1.3,1.5-2,2.2c-7,6.8-14,13.7-21.2,20.2c-2.8,2.7-7.1,2.8-10.1,0.4c-3-2.3-4.4-5.6-3-9.3
	c2.5-6.4,5.4-12.7,8.2-19c1.1-2.6,2.5-5,4-7.9c-10-3.4-19-6.2-27.9-9.4c-22.7-8-45.3-16.3-68-24.2c-9.2-3.2-18.6-8.3-28.6-2.1
	c-0.1,0.1-0.3,0.1-0.5,0.1l-13.3,5.6c8.8-0.4,16.5-1,24.2-1c11.9-0.1,23.5,4,32.8,11.6c13.6,11.1,17.9,22.6,9.6,39.5
	c-8.2,16.6-23.5,23.4-40.2,27.2c-15.5,3.5-30.5,0.4-44.4-7c-9.7-5.1-17.9-11.6-18.8-23.8c-0.2-1.2-0.6-2.4-1-3.5
	c-2.4,0.2-4.8-0.2-6.6,0.7c-9.6,4.8-19.8,5.1-30.2,4.6c-17.2-0.9-31.8-6.2-39-24.9c-1.8,3.7-3.4,6.5-4.6,9.5
	c-8.3,20.2-16.9,40.4-24.8,60.8c-4,10.5-8.2,21.3-9.9,32.3c-3.4,22.8-5.2,45.9-7.6,68.9c-0.9,8.8-1.9,17.5-2.8,26.3
	c-0.4,4.2-0.8,8.3-1.3,13.5c1-0.5,1.9-1.1,2.8-1.8c9.1-9.7,17.8-19.7,27.3-28.9c7.1-7.1,14.9-13.6,23.2-19.4
	c19.1-12.9,40.3-21.8,61.1-31.6c16.8-8,34-15.2,50.4-24c16.2-8.6,31.1-19.1,43.5-32.9c12.1-13.5,22.5-28,29.8-44.6
	c1-2.3,1.8-4.9,4.5-4.1c1.9,0.8,3.3,2.6,3.6,4.6c0.3,6.1,0.8,12.4-0.5,18.2c-3.4,15.4-7.5,30.6-11.6,45.9
	c-3.7,13.6-8.3,27-11.5,40.7c-3.9,16.5-6.8,33.2-10,49.8c-0.2,0.8,0.2,1.7,0.6,3.8c4.6-5.5,8.7-9.8,12.2-14.6
	c11-15,21.8-30.1,32.6-45.3c2.3-3.2,4.5-6.5,6.8-9.8c5.9-7.5,11.9-14.9,17.6-22.6c2.4-3.3,4.3-7,6.4-10.5c-0.2-0.2-0.4-0.4-0.6-0.5
	l0,0c0.2,0.2,0.4,0.4,0.6,0.5c3.2-4.4,6.2-8.9,9.7-13.1c2.2-2.7,4.7-5.6,7.7-7.3c3.9-2.1,8.4-3.1,12.6-4.5
	c16-5.3,31.1-12.8,44.9-22.4c1-0.7,1.3-2.4,2.2-4.3C366.8,248.2,361.3,249.1,357.6,244.5z"/>
<path class="st8" d="M29.8,150.6c14.3-2.6,24.8-11.3,34-22c2.4-2.9,4.7-5.9,7-8.8c0.4-0.5,0.9-1.4,1.3-1.4c1.6-0.1,3.6-0.4,4.8,0.3
	c0.6,0.4,0.7,3.1,0,4.2c-2.2,3.6-4.9,6.9-7.4,10.4c-3.1,4.6-6.4,9.1-9.3,13.8c-0.5,0.8-0.5,2.9,0.2,3.4c1.1,0.7,2.4,0.8,3.5,0.2
	c3.1-2.6,5.9-5.5,8.8-8.4c1.4-1.1,3-2,4.1-3.4c2.2-2.9,4.2-5.9,6-9c1.8-3,4-4.6,7.6-3.9c0,0.2,0.2,0.3,0.4,0.3
	c-0.5,2.2-0.5,4.7-1.6,6.6c-4,7.6-8.3,15.1-12.3,22.7c-0.8,1.8-1.4,3.8-1.8,5.7l1.7,0.9c1.3-1.4,2.5-3,3.5-4.6
	c8.3-16.7,17.4-32.8,29.8-47c3-3.4,5.8-7.1,8.7-10.6c-2.6-0.2-5.1,0.1-7.5,1c-11.3,3.9-22.5,8-33.8,11.9c-14.8,5.1-29,11.3-41,21.8
	c-4.9,4.4-9.8,8.8-13.2,15.7C25.8,150.6,27.9,151,29.8,150.6z"/>
<path class="st8" d="M91.1,149.1c-3.1,6-6.5,11.9-9.6,17.9c-0.7,1.4-0.9,3-1.6,5.6c3-0.5,5.1-0.6,7-1.2c8.7-2.5,17.3-4.8,26.5-4
	c4.9,0.4,9.9,1.1,14.8,1.7c9.2,1.1,18,3.9,25.1,9.8c3.8,3.1,8.3,5.3,13.1,6.3c2.5,0.6,4.2,0.4,5.4-2c0.9-1.6,1.9-3.1,2.8-4.7
	c1.6-2.6,0.4-4-2-4.9c-10.4-3.8-20.9-7.5-31.4-11.2c-14.7-5.2-29.6-10.1-44.2-15.4C93.9,145.8,92.5,146.4,91.1,149.1z"/>
<path class="st8" d="M177,185.5l13.4-4.4C180.8,175,178.7,175.8,177,185.5z"/>
<path class="st9" d="M492.8,521c2.2,0,4.3-0.1,6.5,0c4.2,0.3,6,2.4,4.3,6.1c-1.6,3.5-3.9,7.2-6.9,9.4c-3.8,2.6-8.1,4.5-12.6,5.5
	c-5.9,1.5-8.4-1.3-7-7.2c0.6-2.6,1.2-5.2,1.9-7.7c1.2-5,2.1-5.9,7.3-6.3C488.4,520.8,490.6,520.9,492.8,521L492.8,521z"/>
<path class="st9" d="M477.9,497.6c-0.6,5.6-1.1,11-1.8,16.4c-0.1,0.8-1.5,2.2-2.2,2.2c-6.8-0.6-13.9,0.3-20.2-3.2
	C455.7,503.2,466.6,495.9,477.9,497.6z"/>
</svg>
