<?xml version="1.0" encoding="UTF-8" standalone="no"?>
<!DOCTYPE svg PUBLIC "-//W3C//DTD SVG 1.1//EN" "http://www.w3.org/Graphics/SVG/1.1/DTD/svg11.dtd">
<!-- Generated by Microsoft Visio, SVG Export stack.svg Page-1 -->
<svg xmlns="http://www.w3.org/2000/svg" xmlns:xlink="http://www.w3.org/1999/xlink" xmlns:ev="http://www.w3.org/2001/xml-events"
		xmlns:v="http://schemas.microsoft.com/visio/2003/SVGExtensions/" width="6.96711in" height="2.7567in"
		viewBox="0 0 501.632 198.482" xml:space="preserve" color-interpolation-filters="sRGB" class="st8">
	<v:documentProperties v:langID="1036" v:metric="true" v:viewMarkup="false">
		<v:userDefs>
			<v:ud v:nameU="msvSubprocessMaster" v:prompt="" v:val="VT4(Rectangle)"/>
			<v:ud v:nameU="msvNoAutoConnect" v:val="VT0(1):26"/>
		</v:userDefs>
	</v:documentProperties>

	<style type="text/css">
	<![CDATA[
		.st1 {stroke:#000000;stroke-linecap:round;stroke-linejoin:round;stroke-width:0.237638}
		.st2 {fill:#ffffff;stroke:#000000;stroke-linecap:round;stroke-linejoin:round;stroke-width:0.75}
		.st3 {fill:#000000;font-family:Calibri;font-size:0.833336em}
		.st4 {marker-end:url(#mrkr13-33);stroke:#000000;stroke-linecap:round;stroke-linejoin:round;stroke-width:0.237638}
		.st5 {fill:#000000;fill-opacity:1;stroke:#000000;stroke-opacity:1;stroke-width:0.086174404659928}
		.st6 {fill:none;stroke:none;stroke-linecap:round;stroke-linejoin:round;stroke-width:0.75}
		.st7 {fill:#000000;font-family:Calibri;font-size:1.00001em}
		.st8 {fill:none;fill-rule:evenodd;font-size:12px;overflow:visible;stroke-linecap:square;stroke-miterlimit:3}
	]]>
	</style>

	<defs id="Markers">
		<g id="lend13">
			<path d="M 3 1 L 0 0 L 3 -1 L 3 1 " style="stroke:none"/>
		</g>
		<marker id="mrkr13-33" class="st5" v:arrowType="13" v:arrowSize="2" v:setback="33.2982" refX="-33.298210735586"
				orient="auto" markerUnits="strokeWidth" overflow="visible">
			<use xlink:href="#lend13" transform="scale(-11.604373757455,-11.604373757455) "/>
		</marker>
	</defs>
	<g v:mID="0" v:index="1" v:groupContext="foregroundPage">
		<v:userDefs>
			<v:ud v:nameU="msvThemeOrder" v:val="VT0(0):26"/>
		</v:userDefs>
		<title>Page 1</title>
		<v:pageProperties v:drawingScale="0.0393701" v:pageScale="0.0393701" v:drawingUnits="24" v:shadowOffsetX="8.50394"
				v:shadowOffsetY="-8.50394"/>
		<g id="shape1-1" v:mID="1" v:groupContext="shape" transform="translate(194.123,-18.375)">
			<title>Sheet.1</title>
			<path d="M0 198.48 L137.26 198.48" class="st1"/>
		</g>
		<g id="shape2-4" v:mID="2" v:groupContext="shape" transform="translate(66.5069,180.107) rotate(-90)">
			<title>Sheet.2</title>
			<path d="M0 198.48 L123.83 198.48" class="st1"/>
		</g>
		<g id="shape3-7" v:mID="3" v:groupContext="shape" transform="translate(18.375,-18.375)">
			<title>Cercle</title>
			<desc>4</desc>
			<v:userDefs>
				<v:ud v:nameU="visVersion" v:val="VT0(15):26"/>
			</v:userDefs>
			<v:textBlock v:margins="rect(4,4,4,4)" v:tabSpace="42.5197"/>
			<v:textRect cx="17.0079" cy="181.474" width="29.77" height="25.5118"/>
			<path d="M0 181.47 A17.0079 17.0079 0 1 1 34.02 181.47 A17.0079 17.0079 0 0 1 0 181.47 Z" class="st2"/>
			<text x="14.47" y="184.47" class="st3" v:langID="1033"><v:paragraph v:horizAlign="1"/><v:tabList/>4</text>		</g>
		<g id="shape4-10" v:mID="4" v:groupContext="shape" transform="translate(60.8947,-18.375)">
			<title>Cercle.4</title>
			<desc>5</desc>
			<v:userDefs>
				<v:ud v:nameU="visVersion" v:val="VT0(15):26"/>
			</v:userDefs>
			<v:textBlock v:margins="rect(4,4,4,4)" v:tabSpace="42.5197"/>
			<v:textRect cx="17.0079" cy="181.474" width="29.77" height="25.5118"/>
			<path d="M0 181.47 A17.0079 17.0079 0 1 1 34.02 181.47 A17.0079 17.0079 0 0 1 0 181.47 Z" class="st2"/>
			<text x="14.47" y="184.47" class="st3" v:langID="1033"><v:paragraph v:horizAlign="1"/><v:tabList/>5</text>		</g>
		<g id="shape5-13" v:mID="5" v:groupContext="shape" transform="translate(103.414,-18.375)">
			<title>Cercle.5</title>
			<desc>6</desc>
			<v:userDefs>
				<v:ud v:nameU="visVersion" v:val="VT0(15):26"/>
			</v:userDefs>
			<v:textBlock v:margins="rect(4,4,4,4)" v:tabSpace="42.5197"/>
			<v:textRect cx="17.0079" cy="181.474" width="29.77" height="25.5118"/>
			<path d="M0 181.47 A17.0079 17.0079 0 1 1 34.02 181.47 A17.0079 17.0079 0 0 1 0 181.47 Z" class="st2"/>
			<text x="14.47" y="184.47" class="st3" v:langID="1033"><v:paragraph v:horizAlign="1"/><v:tabList/>6</text>		</g>
		<g id="shape6-16" v:mID="6" v:groupContext="shape" transform="translate(80.7372,-58.06)">
			<title>Cercle.6</title>
			<desc>3</desc>
			<v:userDefs>
				<v:ud v:nameU="visVersion" v:val="VT0(15):26"/>
			</v:userDefs>
			<v:textBlock v:margins="rect(4,4,4,4)" v:tabSpace="42.5197"/>
			<v:textRect cx="17.0079" cy="181.474" width="29.77" height="25.5118"/>
			<path d="M0 181.47 A17.0079 17.0079 0 1 1 34.02 181.47 A17.0079 17.0079 0 0 1 0 181.47 Z" class="st2"/>
			<text x="14.47" y="184.47" class="st3" v:langID="1033"><v:paragraph v:horizAlign="1"/><v:tabList/>3</text>		</g>
		<g id="shape7-19" v:mID="7" v:groupContext="shape" transform="translate(39.6348,-58.06)">
			<title>Cercle.7</title>
			<desc>2</desc>
			<v:userDefs>
				<v:ud v:nameU="visVersion" v:val="VT0(15):26"/>
			</v:userDefs>
			<v:textBlock v:margins="rect(4,4,4,4)" v:tabSpace="42.5197"/>
			<v:textRect cx="17.0079" cy="181.474" width="29.77" height="25.5118"/>
			<path d="M0 181.47 A17.0079 17.0079 0 1 1 34.02 181.47 A17.0079 17.0079 0 0 1 0 181.47 Z" class="st2"/>
			<text x="14.47" y="184.47" class="st3" v:langID="1033"><v:paragraph v:horizAlign="1"/><v:tabList/>2</text>		</g>
		<g id="shape9-22" v:mID="9" v:groupContext="shape" transform="translate(247.981,-32.5482)">
			<title>Cercle.9</title>
			<desc>8</desc>
			<v:userDefs>
				<v:ud v:nameU="visVersion" v:val="VT0(15):26"/>
			</v:userDefs>
			<v:textBlock v:margins="rect(4,4,4,4)" v:tabSpace="42.5197"/>
			<v:textRect cx="17.0079" cy="181.474" width="29.77" height="25.5118"/>
			<path d="M0 181.47 A17.0079 17.0079 0 1 1 34.02 181.47 A17.0079 17.0079 0 0 1 0 181.47 Z" class="st2"/>
			<text x="14.47" y="184.47" class="st3" v:langID="1033"><v:paragraph v:horizAlign="1"/><v:tabList/>8</text>		</g>
		<g id="shape10-25" v:mID="10" v:groupContext="shape" transform="translate(247.981,-75.0679)">
			<title>Cercle.10</title>
			<desc>9</desc>
			<v:userDefs>
				<v:ud v:nameU="visVersion" v:val="VT0(15):26"/>
			</v:userDefs>
			<v:textBlock v:margins="rect(4,4,4,4)" v:tabSpace="42.5197"/>
			<v:textRect cx="17.0079" cy="181.474" width="29.77" height="25.5118"/>
			<path d="M0 181.47 A17.0079 17.0079 0 1 1 34.02 181.47 A17.0079 17.0079 0 0 1 0 181.47 Z" class="st2"/>
			<text x="14.47" y="184.47" class="st3" v:langID="1033"><v:paragraph v:horizAlign="1"/><v:tabList/>9</text>		</g>
		<g id="shape12-28" v:mID="12" v:groupContext="shape" transform="translate(120.093,-131.455) rotate(3.17983)">
			<title>Sheet.12</title>
			<path d="M0 198.48 A93.9161 93.9161 0 0 1 121.45 193.13 L121.72 193.36" class="st4"/>
		</g>
		<g id="shape13-34" v:mID="13" v:groupContext="shape" transform="translate(89.7766,-160.107)">
			<title>Sheet.13</title>
			<desc>enqueue()</desc>
			<v:textBlock v:margins="rect(4,4,4,4)" v:tabSpace="42.5197"/>
			<v:textRect cx="76" cy="188.482" width="152.01" height="20"/>
			<rect x="0" y="178.482" width="152" height="20" class="st6"/>
			<text x="50.8" y="192.08" class="st7" v:langID="1033"><v:paragraph v:horizAlign="1"/><v:tabList/>enqueue()</text>		</g>
		<g id="shape14-37" v:mID="14" v:groupContext="shape" transform="translate(304.345,-103.109) rotate(3.17983)">
			<title>Sheet.14</title>
			<path d="M-0 198.48 A93.9161 93.9161 0 0 1 121.45 193.13 L121.72 193.36" class="st4"/>
		</g>
		<g id="shape16-42" v:mID="16" v:groupContext="shape" transform="translate(406.721,-29.7136)">
			<title>Cercle.16</title>
			<desc>15</desc>
			<v:userDefs>
				<v:ud v:nameU="visVersion" v:val="VT0(15):26"/>
			</v:userDefs>
			<v:textBlock v:margins="rect(4,4,4,4)" v:tabSpace="42.5197"/>
			<v:textRect cx="17.0079" cy="181.474" width="29.77" height="25.5118"/>
			<path d="M0 181.47 A17.0079 17.0079 0 1 1 34.02 181.47 A17.0079 17.0079 0 0 1 0 181.47 Z" class="st2"/>
			<text x="11.94" y="184.47" class="st3" v:langID="1033"><v:paragraph v:horizAlign="1"/><v:tabList/>15</text>		</g>
		<g id="shape17-45" v:mID="17" v:groupContext="shape" transform="translate(449.241,-29.7136)">
			<title>Cercle.17</title>
			<desc>19</desc>
			<v:userDefs>
				<v:ud v:nameU="visVersion" v:val="VT0(15):26"/>
			</v:userDefs>
			<v:textBlock v:margins="rect(4,4,4,4)" v:tabSpace="42.5197"/>
			<v:textRect cx="17.0079" cy="181.474" width="29.77" height="25.5118"/>
			<path d="M0 181.47 A17.0079 17.0079 0 1 1 34.02 181.47 A17.0079 17.0079 0 0 1 0 181.47 Z" class="st2"/>
			<text x="11.94" y="184.47" class="st3" v:langID="1033"><v:paragraph v:horizAlign="1"/><v:tabList/>19</text>		</g>
		<g id="shape18-48" v:mID="18" v:groupContext="shape" transform="translate(283.068,-135.934)">
			<title>Sheet.18</title>
			<desc>dequeue()</desc>
			<v:textBlock v:margins="rect(4,4,4,4)" v:tabSpace="42.5197"/>
			<v:textRect cx="76" cy="188.482" width="152.01" height="20"/>
			<rect x="0" y="178.482" width="152" height="20" class="st6"/>
			<text x="50.8" y="192.08" class="st7" v:langID="1033"><v:paragraph v:horizAlign="1"/><v:tabList/>dequeue()</text>		</g>
	</g>
</svg>
