<?xml version="1.0" encoding="utf-8"?>
<!-- Generator: Adobe Illustrator 27.9.4, SVG Export Plug-In . SVG Version: 9.03 Build 54784)  -->
<svg version="1.1" id="Layer_1" xmlns="http://www.w3.org/2000/svg" xmlns:xlink="http://www.w3.org/1999/xlink" x="0px" y="0px"
	 viewBox="0 0 847.9 311.4" style="enable-background:new 0 0 847.9 311.4;" xml:space="preserve">
<style type="text/css">
	.st0{clip-path:url(#SVGID_00000128451559741215078070000013010493774500413112_);}
</style>
<image style="overflow:visible;" width="1638" height="2048" xlink:href="E19A5913.jpg"  transform="matrix(0.1136 0 0 0.1136 109.9972 26.0863)">
</image>
<g>
	<g>
		<path d="M162.1,285.4V277h2.4c0.7,0,1.3,0.2,1.7,0.5s0.6,0.8,0.6,1.4c0,0.5-0.1,0.9-0.4,1.2s-0.6,0.6-1.1,0.8v0
			c0.6,0.1,1,0.3,1.4,0.6s0.5,0.8,0.5,1.4c0,0.7-0.3,1.3-0.8,1.7s-1.2,0.7-2,0.7H162.1z M163.1,277.9v2.7h1c0.5,0,1-0.1,1.3-0.4
			s0.5-0.6,0.5-1.1c0-0.4-0.1-0.7-0.4-0.9s-0.7-0.3-1.2-0.3H163.1z M163.1,281.5v3h1.3c0.6,0,1-0.1,1.3-0.4s0.5-0.6,0.5-1.1
			c0-0.5-0.2-0.9-0.5-1.1s-0.8-0.4-1.5-0.4H163.1z"/>
		<path d="M171.9,280.2c-0.1,0-0.1,0-0.2,0s-0.1,0-0.2,0c-0.5,0-0.9,0.2-1.2,0.6s-0.4,0.9-0.4,1.6v3.1h-1v-6h1v1.2h0
			c0.1-0.4,0.3-0.7,0.6-1s0.6-0.3,1-0.3c0.1,0,0.2,0,0.3,0s0.2,0,0.2,0.1L171.9,280.2z"/>
		<path d="M173.6,278c-0.2,0-0.4-0.1-0.5-0.2s-0.2-0.3-0.2-0.5s0.1-0.4,0.2-0.5s0.3-0.2,0.5-0.2s0.4,0.1,0.5,0.2s0.2,0.3,0.2,0.5
			s-0.1,0.4-0.2,0.5S173.8,278,173.6,278z M174,285.4h-1v-6h1V285.4z"/>
		<path d="M180.2,285.4h-1v-0.9h0c-0.2,0.4-0.5,0.6-0.8,0.8s-0.7,0.3-1.1,0.3c-0.6,0-1-0.2-1.4-0.5s-0.5-0.8-0.5-1.3
			c0-0.5,0.2-0.9,0.5-1.3s0.8-0.6,1.5-0.6l1.7-0.2v-0.1c0-0.5-0.1-0.9-0.4-1.1s-0.5-0.3-0.9-0.3c-0.3,0-0.6,0.1-0.9,0.2
			s-0.6,0.3-0.8,0.5l-0.6-0.6c0.3-0.3,0.7-0.6,1.1-0.7s0.8-0.2,1.3-0.2c0.7,0,1.3,0.2,1.6,0.6s0.6,0.9,0.6,1.7V285.4z M179.3,283
			v-0.6l-1.4,0.2c-0.4,0.1-0.8,0.2-1,0.3s-0.3,0.4-0.3,0.8c0,0.4,0.1,0.6,0.3,0.8s0.5,0.3,0.8,0.3c0.5,0,0.9-0.2,1.2-0.5
			S179.3,283.5,179.3,283z"/>
		<path d="M187.1,285.4h-1V282c0-0.6-0.1-1.1-0.3-1.4s-0.6-0.5-1-0.5c-0.5,0-0.9,0.2-1.2,0.5s-0.5,0.8-0.5,1.4v3.4h-1v-6h1v1h0
			c0.2-0.4,0.5-0.7,0.8-0.9s0.7-0.3,1.1-0.3c0.7,0,1.2,0.2,1.5,0.6s0.5,1,0.5,1.8V285.4z"/>
		<path d="M198.1,285.4h-1.4l-3.2-3.8c-0.1-0.1-0.1-0.1-0.1-0.2s-0.1-0.1-0.1-0.1h0v4.1h-1V277h1v3.9h0c0,0,0.1-0.1,0.1-0.1
			s0.1-0.1,0.1-0.1l3.1-3.7h1.2l-3.6,4L198.1,285.4z"/>
		<path d="M203.9,282.6h-4.2c0,0.7,0.2,1.2,0.5,1.6s0.8,0.5,1.4,0.5c0.3,0,0.5,0,0.8-0.1s0.5-0.2,0.8-0.4l0.4,0.7
			c-0.3,0.2-0.7,0.4-1,0.5s-0.7,0.2-1.1,0.2c-0.9,0-1.6-0.3-2.1-0.8s-0.8-1.3-0.8-2.3s0.3-1.7,0.8-2.3s1.2-0.9,2-0.9
			c0.8,0,1.4,0.3,1.8,0.8s0.6,1.2,0.6,2.1V282.6z M203,281.9c0-0.6-0.1-1-0.4-1.3s-0.6-0.5-1.1-0.5c-0.5,0-0.8,0.2-1.2,0.5
			s-0.5,0.7-0.6,1.3H203z"/>
		<path d="M208.4,280.2c-0.1,0-0.1,0-0.2,0s-0.1,0-0.2,0c-0.5,0-0.9,0.2-1.2,0.6s-0.4,0.9-0.4,1.6v3.1h-1v-6h1v1.2h0
			c0.1-0.4,0.3-0.7,0.6-1s0.6-0.3,1-0.3c0.1,0,0.2,0,0.3,0s0.2,0,0.2,0.1L208.4,280.2z"/>
		<path d="M214.5,285.4h-1V282c0-0.6-0.1-1.1-0.3-1.4s-0.6-0.5-1-0.5c-0.5,0-0.9,0.2-1.2,0.5s-0.5,0.8-0.5,1.4v3.4h-1v-6h1v1h0
			c0.2-0.4,0.5-0.7,0.8-0.9s0.7-0.3,1.1-0.3c0.7,0,1.2,0.2,1.5,0.6s0.5,1,0.5,1.8V285.4z"/>
		<path d="M216.9,278c-0.2,0-0.4-0.1-0.5-0.2s-0.2-0.3-0.2-0.5s0.1-0.4,0.2-0.5s0.3-0.2,0.5-0.2s0.4,0.1,0.5,0.2s0.2,0.3,0.2,0.5
			s-0.1,0.4-0.2,0.5S217,278,216.9,278z M217.3,285.4h-1v-6h1V285.4z"/>
		<path d="M224.4,285.1c0,1.1-0.3,1.8-0.8,2.4s-1.3,0.8-2.2,0.8c-0.4,0-0.8,0-1.1-0.1s-0.7-0.2-1.1-0.4l0.4-0.7
			c0.3,0.1,0.6,0.2,0.9,0.3s0.6,0.1,1,0.1c0.6,0,1.1-0.2,1.5-0.5s0.6-0.9,0.6-1.7v-0.8h0c-0.2,0.4-0.5,0.7-0.9,0.9s-0.7,0.3-1.2,0.3
			c-0.7,0-1.3-0.3-1.8-0.8s-0.7-1.2-0.7-2.1c0-1,0.3-1.8,0.8-2.4s1.2-0.9,2-0.9c0.4,0,0.8,0.1,1.1,0.2s0.5,0.4,0.7,0.7h0v-0.8h1
			V285.1z M223.4,282.7v-0.9c0-0.5-0.2-0.9-0.5-1.2s-0.7-0.5-1.2-0.5c-0.6,0-1.1,0.2-1.4,0.6s-0.5,1-0.5,1.9c0,0.7,0.2,1.3,0.5,1.6
			s0.7,0.6,1.3,0.6c0.5,0,1-0.2,1.3-0.6S223.4,283.3,223.4,282.7z"/>
		<path d="M231.3,285.4h-1V282c0-0.6-0.1-1.1-0.3-1.4s-0.6-0.5-1-0.5c-0.5,0-0.9,0.2-1.2,0.5s-0.5,0.8-0.5,1.4v3.4h-1v-8.9h1v3.9h0
			c0.2-0.4,0.5-0.7,0.8-0.9s0.7-0.3,1.1-0.3c0.7,0,1.2,0.2,1.5,0.6s0.5,1,0.5,1.8V285.4z"/>
		<path d="M237.4,285.4h-1v-0.9h0c-0.2,0.4-0.5,0.6-0.8,0.8s-0.7,0.3-1.1,0.3c-0.6,0-1-0.2-1.4-0.5s-0.5-0.8-0.5-1.3
			c0-0.5,0.2-0.9,0.5-1.3s0.8-0.6,1.5-0.6l1.7-0.2v-0.1c0-0.5-0.1-0.9-0.4-1.1s-0.5-0.3-0.9-0.3c-0.3,0-0.6,0.1-0.9,0.2
			s-0.6,0.3-0.8,0.5l-0.6-0.6c0.3-0.3,0.7-0.6,1.1-0.7s0.8-0.2,1.3-0.2c0.7,0,1.3,0.2,1.6,0.6s0.6,0.9,0.6,1.7V285.4z M236.4,283
			v-0.6l-1.4,0.2c-0.4,0.1-0.8,0.2-1,0.3s-0.3,0.4-0.3,0.8c0,0.4,0.1,0.6,0.3,0.8s0.5,0.3,0.8,0.3c0.5,0,0.9-0.2,1.2-0.5
			S236.4,283.5,236.4,283z"/>
		<path d="M244.2,285.4h-1V282c0-0.6-0.1-1.1-0.3-1.4s-0.6-0.5-1-0.5c-0.5,0-0.9,0.2-1.2,0.5s-0.5,0.8-0.5,1.4v3.4h-1v-6h1v1h0
			c0.2-0.4,0.5-0.7,0.8-0.9s0.7-0.3,1.1-0.3c0.7,0,1.2,0.2,1.5,0.6s0.5,1,0.5,1.8V285.4z"/>
		<path d="M188.5,301.7h-0.9c-0.6-0.7-1.1-1.5-1.4-2.3s-0.5-1.8-0.5-2.8c0-1,0.2-2,0.5-2.8s0.8-1.7,1.4-2.4h0.9
			c-0.6,0.7-1.1,1.5-1.4,2.4s-0.5,1.8-0.5,2.8c0,1,0.2,1.9,0.5,2.7S187.9,301,188.5,301.7z"/>
		<path d="M191.8,299.8h-1v-7.2c-0.1,0.1-0.4,0.3-0.8,0.5s-0.7,0.3-1,0.4l-0.3-0.8c0.4-0.1,0.9-0.3,1.4-0.6s0.9-0.5,1.2-0.8h0.4
			V299.8z"/>
		<path d="M199.1,295.1c0,1.6-0.3,2.8-0.8,3.6s-1.4,1.2-2.5,1.2c-0.4,0-0.8-0.1-1.1-0.2s-0.7-0.3-1-0.6l0.6-0.6
			c0.2,0.2,0.5,0.3,0.7,0.4s0.5,0.1,0.9,0.1c0.7,0,1.3-0.3,1.7-0.8s0.6-1.4,0.6-2.7h0c-0.2,0.4-0.4,0.6-0.7,0.8s-0.7,0.3-1.1,0.3
			c-0.7,0-1.3-0.2-1.8-0.7s-0.7-1.1-0.7-1.9c0-0.8,0.3-1.5,0.8-2s1.2-0.8,1.9-0.8c0.8,0,1.5,0.3,2,1S199.1,293.9,199.1,295.1z
			 M198.1,294.3c0-0.6-0.2-1.2-0.5-1.6s-0.7-0.6-1.2-0.6c-0.5,0-0.8,0.2-1.2,0.5s-0.5,0.8-0.5,1.3c0,0.6,0.2,1.1,0.5,1.4
			s0.7,0.5,1.2,0.5c0.4,0,0.8-0.2,1.1-0.5S198.1,294.7,198.1,294.3z"/>
		<path d="M204.9,291.4v5.6h0.9v0.9h-0.9v2h-1v-2h-4v-0.8c0.4-0.4,0.7-0.9,1.1-1.4s0.7-1,1.1-1.5c0.3-0.5,0.7-1,1-1.5s0.5-1,0.7-1.4
			H204.9z M201.1,297h2.9v-4.2c-0.3,0.5-0.6,1-0.8,1.4s-0.5,0.8-0.8,1.1c-0.2,0.3-0.5,0.6-0.7,0.9S201.3,296.8,201.1,297z"/>
		<path d="M206.9,299.8v-0.4c0-0.4,0-0.7,0.1-0.9s0.2-0.5,0.4-0.8s0.4-0.5,0.7-0.7s0.6-0.5,1.1-0.8c0.3-0.2,0.6-0.4,0.8-0.6
			s0.4-0.4,0.5-0.6c0.1-0.2,0.2-0.4,0.3-0.6s0.1-0.4,0.1-0.7c0-0.5-0.1-0.8-0.4-1.1s-0.6-0.4-1.1-0.4c-0.4,0-0.7,0.1-1.1,0.2
			s-0.6,0.4-0.9,0.7l-0.6-0.6c0.4-0.4,0.8-0.7,1.2-0.8s0.9-0.3,1.4-0.3c0.8,0,1.4,0.2,1.8,0.7s0.6,1,0.6,1.6c0,0.3,0,0.6-0.1,0.9
			s-0.2,0.5-0.4,0.8c-0.2,0.2-0.3,0.5-0.6,0.7s-0.5,0.4-0.8,0.7c-0.4,0.3-0.7,0.5-1,0.7s-0.5,0.4-0.6,0.5c-0.2,0.2-0.3,0.3-0.3,0.5
			s-0.1,0.4-0.1,0.6h4.2v0.9H206.9z"/>
		<path d="M213.5,296.9v-0.8h3.2v0.8H213.5z"/>
		<path d="M218.4,301.7h-0.9c0.6-0.7,1.1-1.5,1.4-2.4s0.5-1.8,0.5-2.7c0-1-0.2-1.9-0.5-2.8s-0.8-1.7-1.4-2.4h0.9
			c0.6,0.7,1.1,1.5,1.4,2.4s0.5,1.8,0.5,2.8c0,1-0.2,1.9-0.5,2.8S219,301,218.4,301.7z"/>
	</g>
</g>
<g>
	<g>
		<path d="M383.8,285.4V277h2.3c1.5,0,2.6,0.3,3.3,1s1.1,1.7,1.1,3.1c0,1.3-0.4,2.3-1.2,3.1s-1.9,1.2-3.3,1.2H383.8z M384.8,277.9
			v6.6h1.3c1.1,0,2-0.3,2.6-0.9s0.9-1.4,0.9-2.5c0-1.1-0.3-1.9-0.9-2.4s-1.4-0.8-2.6-0.8H384.8z"/>
		<path d="M396.9,282.6h-4.2c0,0.7,0.2,1.2,0.5,1.6s0.8,0.5,1.4,0.5c0.3,0,0.5,0,0.8-0.1s0.5-0.2,0.8-0.4l0.4,0.7
			c-0.3,0.2-0.7,0.4-1,0.5s-0.7,0.2-1.1,0.2c-0.9,0-1.6-0.3-2.1-0.8s-0.8-1.3-0.8-2.3s0.3-1.7,0.8-2.3s1.2-0.9,2-0.9
			c0.8,0,1.4,0.3,1.8,0.8c0.4,0.5,0.6,1.2,0.6,2.1V282.6z M395.9,281.9c0-0.6-0.1-1-0.4-1.3s-0.6-0.5-1.1-0.5
			c-0.5,0-0.8,0.2-1.2,0.5s-0.5,0.7-0.6,1.3H395.9z"/>
		<path d="M403.3,285.4h-1V282c0-0.6-0.1-1.1-0.3-1.4s-0.6-0.5-1-0.5c-0.5,0-0.9,0.2-1.2,0.5s-0.5,0.8-0.5,1.4v3.4h-1v-6h1v1h0
			c0.2-0.4,0.5-0.7,0.8-0.9s0.7-0.3,1.1-0.3c0.7,0,1.2,0.2,1.5,0.6s0.5,1,0.5,1.8V285.4z"/>
		<path d="M410.1,285.4h-1V282c0-0.6-0.1-1.1-0.3-1.4s-0.6-0.5-1-0.5c-0.5,0-0.9,0.2-1.2,0.5s-0.5,0.8-0.5,1.4v3.4h-1v-6h1v1h0
			c0.2-0.4,0.5-0.7,0.8-0.9s0.7-0.3,1.1-0.3c0.7,0,1.2,0.2,1.5,0.6s0.5,1,0.5,1.8V285.4z"/>
		<path d="M412.4,278c-0.2,0-0.4-0.1-0.5-0.2s-0.2-0.3-0.2-0.5s0.1-0.4,0.2-0.5s0.3-0.2,0.5-0.2s0.4,0.1,0.5,0.2s0.2,0.3,0.2,0.5
			s-0.1,0.4-0.2,0.5S412.6,278,412.4,278z M412.9,285.4h-1v-6h1V285.4z"/>
		<path d="M414.3,285l0.5-0.7c0.3,0.2,0.5,0.3,0.8,0.4s0.5,0.1,0.8,0.1c0.4,0,0.7-0.1,0.9-0.2s0.3-0.4,0.3-0.7
			c0-0.2-0.1-0.5-0.3-0.6s-0.5-0.3-0.9-0.4c-0.8-0.2-1.3-0.4-1.5-0.7s-0.4-0.6-0.4-1.1c0-0.5,0.2-0.9,0.6-1.2s0.9-0.5,1.6-0.5
			c0.3,0,0.6,0,0.9,0.1s0.6,0.2,0.9,0.4l-0.4,0.7c-0.3-0.2-0.5-0.3-0.7-0.4s-0.4-0.1-0.7-0.1c-0.4,0-0.7,0.1-0.9,0.2
			s-0.3,0.3-0.3,0.6s0.1,0.5,0.3,0.6s0.5,0.3,1,0.4c0.6,0.2,1.1,0.4,1.4,0.7s0.5,0.7,0.5,1.2c0,0.6-0.2,1-0.6,1.3s-0.9,0.5-1.6,0.5
			c-0.4,0-0.7-0.1-1.1-0.2S414.6,285.2,414.3,285z"/>
		<path d="M429.3,285.4h-1.2l-1.4-2.4c-0.3-0.4-0.5-0.7-0.7-0.9s-0.4-0.2-0.7-0.2h-1v3.4h-1V277h2.5c0.7,0,1.3,0.2,1.8,0.6
			s0.7,1,0.7,1.7c0,0.6-0.2,1.1-0.5,1.5s-0.7,0.7-1.3,0.9v0c0.2,0.1,0.3,0.2,0.5,0.3s0.3,0.3,0.4,0.6L429.3,285.4z M424.3,277.9v3.2
			h1.3c0.5,0,0.9-0.2,1.2-0.5s0.5-0.7,0.5-1.2c0-0.4-0.1-0.8-0.4-1.1s-0.7-0.4-1.3-0.4H424.3z"/>
		<path d="M430.9,278c-0.2,0-0.4-0.1-0.5-0.2s-0.2-0.3-0.2-0.5s0.1-0.4,0.2-0.5s0.3-0.2,0.5-0.2s0.4,0.1,0.5,0.2s0.2,0.3,0.2,0.5
			s-0.1,0.4-0.2,0.5S431.1,278,430.9,278z M431.3,285.4h-1v-6h1V285.4z"/>
		<path d="M436.2,285.4c-0.2,0.1-0.3,0.1-0.5,0.1s-0.3,0-0.5,0c-0.5,0-0.9-0.1-1.1-0.4s-0.4-0.7-0.4-1.2v-3.7h-1v-0.8h1V278l1-0.3
			v1.8h1.5v0.8h-1.5v3.5c0,0.3,0.1,0.6,0.2,0.7s0.3,0.2,0.6,0.2c0.1,0,0.2,0,0.3,0s0.2-0.1,0.3-0.1L436.2,285.4z"/>
		<path d="M441.6,285.1c-0.3,0.2-0.6,0.3-0.8,0.4s-0.6,0.1-0.9,0.1c-0.8,0-1.5-0.3-2.1-0.8s-0.8-1.3-0.8-2.2c0-1,0.3-1.8,0.8-2.4
			s1.3-0.9,2.2-0.9c0.3,0,0.6,0,0.9,0.1s0.6,0.2,0.8,0.4l-0.4,0.7c-0.2-0.1-0.4-0.2-0.7-0.3s-0.4-0.1-0.7-0.1
			c-0.7,0-1.2,0.2-1.5,0.7s-0.5,1-0.5,1.7c0,0.8,0.2,1.3,0.6,1.7s0.8,0.6,1.4,0.6c0.2,0,0.4,0,0.6-0.1s0.4-0.2,0.6-0.3L441.6,285.1z
			"/>
		<path d="M447.9,285.4h-1V282c0-0.6-0.1-1.1-0.3-1.4s-0.6-0.5-1-0.5c-0.5,0-0.9,0.2-1.2,0.5s-0.5,0.8-0.5,1.4v3.4h-1v-8.9h1v3.9h0
			c0.2-0.4,0.5-0.7,0.8-0.9s0.7-0.3,1.1-0.3c0.7,0,1.2,0.2,1.5,0.6s0.5,1,0.5,1.8V285.4z"/>
		<path d="M450.2,278c-0.2,0-0.4-0.1-0.5-0.2s-0.2-0.3-0.2-0.5s0.1-0.4,0.2-0.5s0.3-0.2,0.5-0.2s0.4,0.1,0.5,0.2s0.2,0.3,0.2,0.5
			s-0.1,0.4-0.2,0.5S450.4,278,450.2,278z M450.7,285.4h-1v-6h1V285.4z"/>
		<path d="M457.4,282.6h-4.2c0,0.7,0.2,1.2,0.5,1.6s0.8,0.5,1.4,0.5c0.3,0,0.5,0,0.8-0.1s0.5-0.2,0.8-0.4l0.4,0.7
			c-0.3,0.2-0.7,0.4-1,0.5s-0.7,0.2-1.1,0.2c-0.9,0-1.6-0.3-2.1-0.8s-0.8-1.3-0.8-2.3s0.3-1.7,0.8-2.3s1.2-0.9,2-0.9
			c0.8,0,1.4,0.3,1.8,0.8s0.6,1.2,0.6,2.1V282.6z M456.4,281.9c0-0.6-0.1-1-0.4-1.3s-0.6-0.5-1.1-0.5c-0.5,0-0.8,0.2-1.2,0.5
			s-0.5,0.7-0.6,1.3H456.4z"/>
		<path d="M395.7,301.7h-0.9c-0.6-0.7-1.1-1.5-1.4-2.3s-0.5-1.8-0.5-2.8c0-1,0.2-2,0.5-2.8s0.8-1.7,1.4-2.4h0.9
			c-0.6,0.7-1.1,1.5-1.4,2.4s-0.5,1.8-0.5,2.8c0,1,0.2,1.9,0.5,2.7S395.1,301,395.7,301.7z"/>
		<path d="M399,299.8h-1v-7.2c-0.1,0.1-0.4,0.3-0.8,0.5s-0.7,0.3-1,0.4l-0.3-0.8c0.4-0.1,0.9-0.3,1.4-0.6s0.9-0.5,1.2-0.8h0.4V299.8
			z"/>
		<path d="M406.3,295.1c0,1.6-0.3,2.8-0.8,3.6s-1.4,1.2-2.5,1.2c-0.4,0-0.8-0.1-1.1-0.2s-0.7-0.3-1-0.6l0.6-0.6
			c0.2,0.2,0.5,0.3,0.7,0.4s0.5,0.1,0.9,0.1c0.7,0,1.3-0.3,1.7-0.8s0.6-1.4,0.6-2.7h0c-0.2,0.4-0.4,0.6-0.7,0.8s-0.7,0.3-1.1,0.3
			c-0.7,0-1.3-0.2-1.8-0.7s-0.7-1.1-0.7-1.9c0-0.8,0.3-1.5,0.8-2s1.2-0.8,1.9-0.8c0.8,0,1.5,0.3,2,1S406.3,293.9,406.3,295.1z
			 M405.3,294.3c0-0.6-0.2-1.2-0.5-1.6s-0.7-0.6-1.2-0.6c-0.5,0-0.8,0.2-1.2,0.5s-0.5,0.8-0.5,1.3c0,0.6,0.2,1.1,0.5,1.4
			s0.7,0.5,1.2,0.5c0.4,0,0.8-0.2,1.1-0.5S405.3,294.7,405.3,294.3z"/>
		<path d="M412.1,291.4v5.6h0.9v0.9h-0.9v2h-1v-2h-4v-0.8c0.4-0.4,0.7-0.9,1.1-1.4s0.7-1,1.1-1.5c0.3-0.5,0.7-1,1-1.5s0.5-1,0.7-1.4
			H412.1z M408.3,297h2.9v-4.2c-0.3,0.5-0.6,1-0.8,1.4s-0.5,0.8-0.8,1.1c-0.2,0.3-0.5,0.6-0.7,0.9S408.5,296.8,408.3,297z"/>
		<path d="M416.5,299.8h-1v-7.2c-0.1,0.1-0.4,0.3-0.8,0.5s-0.7,0.3-1,0.4l-0.3-0.8c0.4-0.1,0.9-0.3,1.4-0.6s0.9-0.5,1.2-0.8h0.4
			V299.8z"/>
		<path d="M418.7,296.9v-0.8h3.2v0.8H418.7z"/>
		<path d="M423.4,299.8v-0.4c0-0.4,0-0.7,0.1-0.9s0.2-0.5,0.4-0.8s0.4-0.5,0.7-0.7s0.6-0.5,1.1-0.8c0.3-0.2,0.6-0.4,0.8-0.6
			s0.4-0.4,0.5-0.6c0.1-0.2,0.2-0.4,0.3-0.6s0.1-0.4,0.1-0.7c0-0.5-0.1-0.8-0.4-1.1s-0.6-0.4-1.1-0.4c-0.4,0-0.7,0.1-1.1,0.2
			s-0.6,0.4-0.9,0.7l-0.6-0.6c0.4-0.4,0.8-0.7,1.2-0.8s0.9-0.3,1.4-0.3c0.8,0,1.4,0.2,1.8,0.7s0.6,1,0.6,1.6c0,0.3,0,0.6-0.1,0.9
			s-0.2,0.5-0.4,0.8c-0.2,0.2-0.3,0.5-0.6,0.7s-0.5,0.4-0.8,0.7c-0.4,0.3-0.7,0.5-1,0.7s-0.5,0.4-0.6,0.5c-0.2,0.2-0.3,0.3-0.3,0.5
			s-0.1,0.4-0.1,0.6h4.2v0.9H423.4z"/>
		<path d="M432.3,300c-0.8,0-1.5-0.4-2-1.1s-0.7-1.8-0.7-3.1c0-1.5,0.2-2.6,0.7-3.4s1.2-1.2,2.1-1.2c0.9,0,1.5,0.4,2,1.1
			s0.7,1.8,0.7,3.2c0,1.4-0.2,2.5-0.7,3.3S433.2,300,432.3,300z M432.4,292.1c-0.6,0-1,0.3-1.3,0.9s-0.5,1.5-0.5,2.7
			c0,1.1,0.1,2,0.4,2.6s0.7,0.9,1.3,0.9c0.6,0,1-0.3,1.3-0.9s0.4-1.4,0.4-2.6c0-1.2-0.1-2.1-0.4-2.7S433,292.1,432.4,292.1z"/>
		<path d="M438.7,299.8h-1v-7.2c-0.1,0.1-0.4,0.3-0.8,0.5s-0.7,0.3-1,0.4l-0.3-0.8c0.4-0.1,0.9-0.3,1.4-0.6s0.9-0.5,1.2-0.8h0.4
			V299.8z"/>
		<path d="M443.3,299.8h-1v-7.2c-0.1,0.1-0.4,0.3-0.8,0.5s-0.7,0.3-1,0.4l-0.3-0.8c0.4-0.1,0.9-0.3,1.4-0.6s0.9-0.5,1.2-0.8h0.4
			V299.8z"/>
		<path d="M445.7,301.7h-0.9c0.6-0.7,1.1-1.5,1.4-2.4s0.5-1.8,0.5-2.7c0-1-0.2-1.9-0.5-2.8s-0.8-1.7-1.4-2.4h0.9
			c0.6,0.7,1.1,1.5,1.4,2.4s0.5,1.8,0.5,2.8c0,1-0.2,1.9-0.5,2.8S446.3,301,445.7,301.7z"/>
	</g>
</g>
<g>
	<g>
		<path d="M618.5,288.3h-1.4l-3.2-3.8c-0.1-0.1-0.1-0.1-0.1-0.2s-0.1-0.1-0.1-0.1h0v4.1h-1v-8.4h1v3.9h0c0,0,0.1-0.1,0.1-0.1
			s0.1-0.1,0.1-0.1l3.1-3.7h1.2l-3.6,4L618.5,288.3z"/>
		<path d="M624.3,285.5h-4.2c0,0.7,0.2,1.2,0.5,1.6s0.8,0.5,1.4,0.5c0.3,0,0.5,0,0.8-0.1s0.5-0.2,0.8-0.4l0.4,0.7
			c-0.3,0.2-0.7,0.4-1,0.5s-0.7,0.2-1.1,0.2c-0.9,0-1.6-0.3-2.1-0.8s-0.8-1.3-0.8-2.3s0.3-1.7,0.8-2.3s1.2-0.9,2-0.9
			c0.8,0,1.4,0.3,1.8,0.8s0.6,1.2,0.6,2.1V285.5z M623.3,284.8c0-0.6-0.1-1-0.4-1.3s-0.6-0.5-1.1-0.5c-0.5,0-0.8,0.2-1.2,0.5
			s-0.5,0.7-0.6,1.3H623.3z"/>
		<path d="M630.8,288.3h-1v-3.4c0-0.6-0.1-1.1-0.3-1.4s-0.6-0.5-1-0.5c-0.5,0-0.9,0.2-1.2,0.5s-0.5,0.8-0.5,1.4v3.4h-1v-6h1v1h0
			c0.2-0.4,0.5-0.7,0.8-0.9s0.7-0.3,1.1-0.3c0.7,0,1.2,0.2,1.5,0.6s0.5,1,0.5,1.8V288.3z"/>
		<path d="M640.9,280.8h-2.4v7.5h-1v-7.5h-2.4v-0.9h5.8V280.8z"/>
		<path d="M647.1,288.3h-1v-3.5c0-0.6-0.1-1.1-0.3-1.4s-0.6-0.5-1-0.5c-0.5,0-0.9,0.2-1.2,0.5s-0.5,0.8-0.5,1.4v3.4h-1v-8.9h1v3.9h0
			c0.2-0.4,0.5-0.7,0.8-0.9s0.7-0.3,1.1-0.3c0.7,0,1.2,0.2,1.5,0.6s0.5,1,0.5,1.8V288.3z"/>
		<path d="M651.4,288.5c-0.9,0-1.6-0.3-2.1-0.8s-0.8-1.3-0.8-2.2c0-1,0.3-1.8,0.8-2.4s1.3-0.9,2.2-0.9c0.9,0,1.6,0.3,2.1,0.8
			s0.8,1.3,0.8,2.3c0,1-0.3,1.7-0.8,2.3S652.4,288.5,651.4,288.5z M651.5,287.7c0.6,0,1.1-0.2,1.4-0.6s0.5-1,0.5-1.7
			c0-0.8-0.2-1.3-0.5-1.7s-0.8-0.6-1.4-0.6s-1.1,0.2-1.5,0.6s-0.5,1-0.5,1.7c0,0.7,0.2,1.3,0.5,1.7S650.9,287.7,651.5,287.7z"/>
		<path d="M664.5,288.3h-1v-3.4c0-0.7-0.1-1.1-0.3-1.4s-0.5-0.4-1-0.4c-0.4,0-0.8,0.2-1,0.6s-0.4,0.8-0.4,1.3v3.4h-1v-3.6
			c0-0.6-0.1-1-0.3-1.3s-0.6-0.4-1-0.4c-0.4,0-0.8,0.2-1,0.5s-0.4,0.8-0.4,1.4v3.4h-1v-6h1v0.9h0c0.2-0.4,0.5-0.6,0.8-0.8
			s0.7-0.3,1.1-0.3c0.4,0,0.8,0.1,1.1,0.3s0.5,0.5,0.6,0.9c0.2-0.4,0.5-0.7,0.8-0.9s0.7-0.3,1.2-0.3c0.7,0,1.2,0.2,1.5,0.6
			s0.5,1,0.5,1.8V288.3z"/>
		<path d="M667.3,287.5L667.3,287.5l0,3.6h-1v-8.8h1v1.1h0c0.2-0.4,0.5-0.7,0.9-0.9s0.7-0.3,1.2-0.3c0.8,0,1.4,0.3,1.8,0.8
			s0.7,1.3,0.7,2.2c0,1-0.2,1.8-0.7,2.4s-1.2,0.9-2,0.9c-0.4,0-0.7-0.1-1-0.3S667.5,287.8,667.3,287.5z M667.3,285v0.8
			c0,0.5,0.2,0.9,0.5,1.3s0.7,0.5,1.2,0.5c0.6,0,1-0.2,1.4-0.7s0.5-1.1,0.5-1.9c0-0.7-0.2-1.2-0.5-1.6s-0.7-0.6-1.3-0.6
			c-0.6,0-1,0.2-1.3,0.6S667.3,284.5,667.3,285z"/>
		<path d="M672.8,287.9l0.5-0.7c0.3,0.2,0.5,0.3,0.8,0.4s0.5,0.1,0.8,0.1c0.4,0,0.7-0.1,0.9-0.2s0.3-0.4,0.3-0.7
			c0-0.2-0.1-0.5-0.3-0.6s-0.5-0.3-0.9-0.4c-0.8-0.2-1.3-0.4-1.5-0.7s-0.4-0.6-0.4-1.1c0-0.5,0.2-0.9,0.6-1.2s0.9-0.5,1.6-0.5
			c0.3,0,0.6,0,0.9,0.1s0.6,0.2,0.9,0.4l-0.4,0.7c-0.3-0.2-0.5-0.3-0.7-0.4s-0.4-0.1-0.7-0.1c-0.4,0-0.7,0.1-0.9,0.2
			s-0.3,0.3-0.3,0.6s0.1,0.5,0.3,0.6s0.5,0.3,1,0.4c0.6,0.2,1.1,0.4,1.4,0.7s0.5,0.7,0.5,1.2c0,0.6-0.2,1-0.6,1.3s-0.9,0.5-1.6,0.5
			c-0.4,0-0.7-0.1-1.1-0.2S673.1,288.1,672.8,287.9z"/>
		<path d="M681,288.5c-0.9,0-1.6-0.3-2.1-0.8s-0.8-1.3-0.8-2.2c0-1,0.3-1.8,0.8-2.4s1.3-0.9,2.2-0.9c0.9,0,1.6,0.3,2.1,0.8
			s0.8,1.3,0.8,2.3c0,1-0.3,1.7-0.8,2.3S681.9,288.5,681,288.5z M681,287.7c0.6,0,1.1-0.2,1.4-0.6s0.5-1,0.5-1.7
			c0-0.8-0.2-1.3-0.5-1.7s-0.8-0.6-1.4-0.6s-1.1,0.2-1.5,0.6s-0.5,1-0.5,1.7c0,0.7,0.2,1.3,0.5,1.7S680.4,287.7,681,287.7z"/>
		<path d="M690.5,288.3h-1v-3.4c0-0.6-0.1-1.1-0.3-1.4s-0.6-0.5-1-0.5c-0.5,0-0.9,0.2-1.2,0.5s-0.5,0.8-0.5,1.4v3.4h-1v-6h1v1h0
			c0.2-0.4,0.5-0.7,0.8-0.9s0.7-0.3,1.1-0.3c0.7,0,1.2,0.2,1.5,0.6s0.5,1,0.5,1.8V288.3z"/>
		<path d="M636.9,304.6h-0.9c-0.6-0.7-1.1-1.5-1.4-2.3s-0.5-1.8-0.5-2.8c0-1,0.2-2,0.5-2.8s0.8-1.7,1.4-2.4h0.9
			c-0.6,0.7-1.1,1.5-1.4,2.4s-0.5,1.8-0.5,2.8c0,1,0.2,1.9,0.5,2.7S636.3,303.9,636.9,304.6z"/>
		<path d="M640.2,302.7h-1v-7.2c-0.1,0.1-0.4,0.3-0.8,0.5s-0.7,0.3-1,0.4l-0.3-0.8c0.4-0.1,0.9-0.3,1.4-0.6s0.9-0.5,1.2-0.8h0.4
			V302.7z"/>
		<path d="M647.5,298c0,1.6-0.3,2.8-0.8,3.6s-1.4,1.2-2.5,1.2c-0.4,0-0.8-0.1-1.1-0.2s-0.7-0.3-1-0.6l0.6-0.6
			c0.2,0.2,0.5,0.3,0.7,0.4s0.5,0.1,0.9,0.1c0.7,0,1.3-0.3,1.7-0.8s0.6-1.4,0.6-2.7h0c-0.2,0.4-0.4,0.6-0.7,0.8s-0.7,0.3-1.1,0.3
			c-0.7,0-1.3-0.2-1.8-0.7s-0.7-1.1-0.7-1.9c0-0.8,0.3-1.5,0.8-2s1.2-0.8,1.9-0.8c0.8,0,1.5,0.3,2,1S647.5,296.8,647.5,298z
			 M646.5,297.2c0-0.6-0.2-1.2-0.5-1.6s-0.7-0.6-1.2-0.6c-0.5,0-0.8,0.2-1.2,0.5s-0.5,0.8-0.5,1.3c0,0.6,0.2,1.1,0.5,1.4
			s0.7,0.5,1.2,0.5c0.4,0,0.8-0.2,1.1-0.5S646.5,297.6,646.5,297.2z"/>
		<path d="M653.3,294.3v5.6h0.9v0.9h-0.9v2h-1v-2h-4V300c0.4-0.4,0.7-0.9,1.1-1.4s0.7-1,1.1-1.5c0.3-0.5,0.7-1,1-1.5s0.5-1,0.7-1.4
			H653.3z M649.5,299.9h2.9v-4.2c-0.3,0.5-0.6,1-0.8,1.4s-0.5,0.8-0.8,1.1c-0.2,0.3-0.5,0.6-0.7,0.9S649.7,299.7,649.5,299.9z"/>
		<path d="M655.2,302.2l0.4-0.7c0.3,0.2,0.6,0.4,0.9,0.4s0.6,0.1,1,0.1c0.6,0,1.1-0.1,1.4-0.4s0.5-0.7,0.5-1.1c0-0.6-0.2-1-0.6-1.3
			s-1-0.4-1.8-0.4h-0.7V298h0.7c0.7,0,1.2-0.1,1.6-0.4s0.5-0.7,0.5-1.2c0-0.4-0.1-0.8-0.4-1s-0.6-0.4-1-0.4c-0.3,0-0.6,0.1-0.9,0.2
			s-0.6,0.3-0.9,0.5l-0.5-0.6c0.4-0.3,0.7-0.5,1.1-0.6s0.8-0.2,1.2-0.2c0.7,0,1.3,0.2,1.7,0.6s0.6,0.9,0.6,1.5
			c0,0.5-0.1,0.9-0.4,1.3s-0.7,0.6-1.3,0.8v0c0.6,0.1,1,0.3,1.4,0.6s0.6,0.8,0.6,1.4c0,0.8-0.3,1.4-0.8,1.8s-1.2,0.7-2,0.7
			c-0.5,0-0.9-0.1-1.3-0.2S655.6,302.4,655.2,302.2z"/>
		<path d="M661.9,299.8V299h3.2v0.8H661.9z"/>
		<path d="M666.8,304.6H666c0.6-0.7,1.1-1.5,1.4-2.4s0.5-1.8,0.5-2.7c0-1-0.2-1.9-0.5-2.8s-0.8-1.7-1.4-2.4h0.9
			c0.6,0.7,1.1,1.5,1.4,2.4s0.5,1.8,0.5,2.8c0,1-0.2,1.9-0.5,2.8S667.4,304,666.8,304.6z"/>
	</g>
</g>
<g>
	<defs>
		<rect id="SVGID_1_" x="327.2" y="26.1" width="186.1" height="232.7"/>
	</defs>
	<clipPath id="SVGID_00000086649546695282902750000017211712254748129412_">
		<use xlink:href="#SVGID_1_"  style="overflow:visible;"/>
	</clipPath>
	<g style="clip-path:url(#SVGID_00000086649546695282902750000017211712254748129412_);">
		
			<image style="overflow:visible;" width="316" height="420" xlink:href="E19A5911.jpg"  transform="matrix(0.6371 0 0 0.6371 326.5752 20.3415)">
		</image>
	</g>
</g>
<g>
	<defs>
		<rect id="SVGID_00000104672558256944976650000011279010671616565908_" x="558.4" y="26.1" width="186.1" height="232.7"/>
	</defs>
	<clipPath id="SVGID_00000034785176758020608030000005222921433411564216_">
		<use xlink:href="#SVGID_00000104672558256944976650000011279010671616565908_"  style="overflow:visible;"/>
	</clipPath>
	<g style="clip-path:url(#SVGID_00000034785176758020608030000005222921433411564216_);">
		<defs>
			<rect id="SVGID_00000147938552465420298670000006149020663579370938_" x="555.7" y="4.1" width="200" height="300"/>
		</defs>
		<clipPath id="SVGID_00000083082120580675877860000000181030489865347733_">
			<use xlink:href="#SVGID_00000147938552465420298670000006149020663579370938_"  style="overflow:visible;"/>
		</clipPath>
		<g transform="matrix(1 0 0 1 0 0)" style="clip-path:url(#SVGID_00000083082120580675877860000000181030489865347733_);">
			
				<image style="overflow:visible;" width="871" height="762" xlink:href="E19A5917.jpg"  transform="matrix(0.4331 0 0 0.4331 442.5207 -10.8541)">
			</image>
		</g>
	</g>
</g>
</svg>
