<?xml version="1.0" encoding="UTF-8" standalone="no"?>
<!DOCTYPE svg PUBLIC "-//W3C//DTD SVG 1.1//EN" "http://www.w3.org/Graphics/SVG/1.1/DTD/svg11.dtd">
<!-- Generated by Microsoft Visio, SVG Export binary-clock.svg Page-1 -->
<svg xmlns="http://www.w3.org/2000/svg" xmlns:xlink="http://www.w3.org/1999/xlink" xmlns:ev="http://www.w3.org/2001/xml-events"
		xmlns:v="http://schemas.microsoft.com/visio/2003/SVGExtensions/" width="2.25254in" height="1.47498in"
		viewBox="0 0 162.183 106.199" xml:space="preserve" color-interpolation-filters="sRGB" class="st3">
	<v:documentProperties v:langID="1036" v:metric="true" v:viewMarkup="false">
		<v:userDefs>
			<v:ud v:nameU="msvSubprocessMaster" v:prompt="" v:val="VT4(Rectangle)"/>
			<v:ud v:nameU="msvNoAutoConnect" v:val="VT0(1):26"/>
		</v:userDefs>
	</v:documentProperties>

	<style type="text/css">
	<![CDATA[
		.st1 {fill:#7f7f7f;stroke:#000000;stroke-linecap:round;stroke-linejoin:round;stroke-width:0.75}
		.st2 {fill:#ffffff;stroke:#000000;stroke-linecap:round;stroke-linejoin:round;stroke-width:0.75}
		.st3 {fill:none;fill-rule:evenodd;font-size:12px;overflow:visible;stroke-linecap:square;stroke-miterlimit:3}
	]]>
	</style>

	<g v:mID="0" v:index="1" v:groupContext="foregroundPage">
		<v:userDefs>
			<v:ud v:nameU="msvThemeOrder" v:val="VT0(0):26"/>
		</v:userDefs>
		<title>Page 1</title>
		<v:pageProperties v:drawingScale="0.0393701" v:pageScale="0.0393701" v:drawingUnits="24" v:shadowOffsetX="8.50394"
				v:shadowOffsetY="-8.50394"/>
		<g id="shape1-1" v:mID="1" v:groupContext="shape" transform="translate(129.635,-18.375)">
			<title>Cercle</title>
			<v:userDefs>
				<v:ud v:nameU="visVersion" v:val="VT0(15):26"/>
			</v:userDefs>
			<path d="M0 99.11 A7.08661 7.08661 0 0 1 14.17 99.11 A7.08661 7.08661 0 1 1 0 99.11 Z" class="st1"/>
		</g>
		<g id="shape2-3" v:mID="2" v:groupContext="shape" transform="translate(129.635,-36.8002)">
			<title>Cercle.2</title>
			<v:userDefs>
				<v:ud v:nameU="visVersion" v:val="VT0(15):26"/>
			</v:userDefs>
			<path d="M0 99.11 A7.08661 7.08661 0 0 1 14.17 99.11 A7.08661 7.08661 0 1 1 0 99.11 Z" class="st2"/>
		</g>
		<g id="shape3-5" v:mID="3" v:groupContext="shape" transform="translate(129.635,-55.2254)">
			<title>Cercle.3</title>
			<v:userDefs>
				<v:ud v:nameU="visVersion" v:val="VT0(15):26"/>
			</v:userDefs>
			<path d="M0 99.11 A7.08661 7.08661 0 0 1 14.17 99.11 A7.08661 7.08661 0 1 1 0 99.11 Z" class="st2"/>
		</g>
		<g id="shape4-7" v:mID="4" v:groupContext="shape" transform="translate(129.635,-73.6506)">
			<title>Cercle.4</title>
			<v:userDefs>
				<v:ud v:nameU="visVersion" v:val="VT0(15):26"/>
			</v:userDefs>
			<path d="M0 99.11 A7.08661 7.08661 0 0 1 14.17 99.11 A7.08661 7.08661 0 1 1 0 99.11 Z" class="st1"/>
		</g>
		<g id="shape5-9" v:mID="5" v:groupContext="shape" transform="translate(111.21,-18.375)">
			<title>Cercle.5</title>
			<v:userDefs>
				<v:ud v:nameU="visVersion" v:val="VT0(15):26"/>
			</v:userDefs>
			<path d="M0 99.11 A7.08661 7.08661 0 0 1 14.17 99.11 A7.08661 7.08661 0 1 1 0 99.11 Z" class="st2"/>
		</g>
		<g id="shape6-11" v:mID="6" v:groupContext="shape" transform="translate(111.21,-36.8002)">
			<title>Cercle.6</title>
			<v:userDefs>
				<v:ud v:nameU="visVersion" v:val="VT0(15):26"/>
			</v:userDefs>
			<path d="M0 99.11 A7.08661 7.08661 0 0 1 14.17 99.11 A7.08661 7.08661 0 1 1 0 99.11 Z" class="st2"/>
		</g>
		<g id="shape7-13" v:mID="7" v:groupContext="shape" transform="translate(111.21,-55.2254)">
			<title>Cercle.7</title>
			<v:userDefs>
				<v:ud v:nameU="visVersion" v:val="VT0(15):26"/>
			</v:userDefs>
			<path d="M0 99.11 A7.08661 7.08661 0 0 1 14.17 99.11 A7.08661 7.08661 0 1 1 0 99.11 Z" class="st1"/>
		</g>
		<g id="shape8-15" v:mID="8" v:groupContext="shape" transform="translate(111.21,-73.6506)">
			<title>Cercle.8</title>
			<v:userDefs>
				<v:ud v:nameU="visVersion" v:val="VT0(15):26"/>
			</v:userDefs>
			<path d="M0 99.11 A7.08661 7.08661 0 0 1 14.17 99.11 A7.08661 7.08661 0 1 1 0 99.11 Z" class="st2"/>
		</g>
		<g id="shape9-17" v:mID="9" v:groupContext="shape" transform="translate(83.5719,-18.375)">
			<title>Cercle.9</title>
			<v:userDefs>
				<v:ud v:nameU="visVersion" v:val="VT0(15):26"/>
			</v:userDefs>
			<path d="M0 99.11 A7.08661 7.08661 0 0 1 14.17 99.11 A7.08661 7.08661 0 1 1 0 99.11 Z" class="st1"/>
		</g>
		<g id="shape10-19" v:mID="10" v:groupContext="shape" transform="translate(83.5719,-36.8002)">
			<title>Cercle.10</title>
			<v:userDefs>
				<v:ud v:nameU="visVersion" v:val="VT0(15):26"/>
			</v:userDefs>
			<path d="M0 99.11 A7.08661 7.08661 0 0 1 14.17 99.11 A7.08661 7.08661 0 1 1 0 99.11 Z" class="st2"/>
		</g>
		<g id="shape11-21" v:mID="11" v:groupContext="shape" transform="translate(83.5719,-55.2254)">
			<title>Cercle.11</title>
			<v:userDefs>
				<v:ud v:nameU="visVersion" v:val="VT0(15):26"/>
			</v:userDefs>
			<path d="M0 99.11 A7.08661 7.08661 0 0 1 14.17 99.11 A7.08661 7.08661 0 1 1 0 99.11 Z" class="st1"/>
		</g>
		<g id="shape12-23" v:mID="12" v:groupContext="shape" transform="translate(83.5719,-73.6506)">
			<title>Cercle.12</title>
			<v:userDefs>
				<v:ud v:nameU="visVersion" v:val="VT0(15):26"/>
			</v:userDefs>
			<path d="M0 99.11 A7.08661 7.08661 0 0 1 14.17 99.11 A7.08661 7.08661 0 1 1 0 99.11 Z" class="st2"/>
		</g>
		<g id="shape13-25" v:mID="13" v:groupContext="shape" transform="translate(65.1467,-18.375)">
			<title>Cercle.13</title>
			<v:userDefs>
				<v:ud v:nameU="visVersion" v:val="VT0(15):26"/>
			</v:userDefs>
			<path d="M0 99.11 A7.08661 7.08661 0 0 1 14.17 99.11 A7.08661 7.08661 0 1 1 0 99.11 Z" class="st1"/>
		</g>
		<g id="shape14-27" v:mID="14" v:groupContext="shape" transform="translate(65.1467,-36.8002)">
			<title>Cercle.14</title>
			<v:userDefs>
				<v:ud v:nameU="visVersion" v:val="VT0(15):26"/>
			</v:userDefs>
			<path d="M0 99.11 A7.08661 7.08661 0 0 1 14.17 99.11 A7.08661 7.08661 0 1 1 0 99.11 Z" class="st1"/>
		</g>
		<g id="shape15-29" v:mID="15" v:groupContext="shape" transform="translate(65.1467,-55.2254)">
			<title>Cercle.15</title>
			<v:userDefs>
				<v:ud v:nameU="visVersion" v:val="VT0(15):26"/>
			</v:userDefs>
			<path d="M0 99.11 A7.08661 7.08661 0 0 1 14.17 99.11 A7.08661 7.08661 0 1 1 0 99.11 Z" class="st2"/>
		</g>
		<g id="shape16-31" v:mID="16" v:groupContext="shape" transform="translate(65.1467,-73.6506)">
			<title>Cercle.16</title>
			<v:userDefs>
				<v:ud v:nameU="visVersion" v:val="VT0(15):26"/>
			</v:userDefs>
			<path d="M0 99.11 A7.08661 7.08661 0 0 1 14.17 99.11 A7.08661 7.08661 0 1 1 0 99.11 Z" class="st2"/>
		</g>
		<g id="shape17-33" v:mID="17" v:groupContext="shape" transform="translate(36.8002,-18.375)">
			<title>Cercle.17</title>
			<v:userDefs>
				<v:ud v:nameU="visVersion" v:val="VT0(15):26"/>
			</v:userDefs>
			<path d="M0 99.11 A7.08661 7.08661 0 0 1 14.17 99.11 A7.08661 7.08661 0 1 1 0 99.11 Z" class="st1"/>
		</g>
		<g id="shape18-35" v:mID="18" v:groupContext="shape" transform="translate(36.8002,-36.8002)">
			<title>Cercle.18</title>
			<v:userDefs>
				<v:ud v:nameU="visVersion" v:val="VT0(15):26"/>
			</v:userDefs>
			<path d="M0 99.11 A7.08661 7.08661 0 0 1 14.17 99.11 A7.08661 7.08661 0 1 1 0 99.11 Z" class="st2"/>
		</g>
		<g id="shape19-37" v:mID="19" v:groupContext="shape" transform="translate(36.8002,-55.2254)">
			<title>Cercle.19</title>
			<v:userDefs>
				<v:ud v:nameU="visVersion" v:val="VT0(15):26"/>
			</v:userDefs>
			<path d="M0 99.11 A7.08661 7.08661 0 0 1 14.17 99.11 A7.08661 7.08661 0 1 1 0 99.11 Z" class="st2"/>
		</g>
		<g id="shape20-39" v:mID="20" v:groupContext="shape" transform="translate(36.8002,-73.6506)">
			<title>Cercle.20</title>
			<v:userDefs>
				<v:ud v:nameU="visVersion" v:val="VT0(15):26"/>
			</v:userDefs>
			<path d="M0 99.11 A7.08661 7.08661 0 0 1 14.17 99.11 A7.08661 7.08661 0 1 1 0 99.11 Z" class="st2"/>
		</g>
		<g id="shape21-41" v:mID="21" v:groupContext="shape" transform="translate(18.375,-18.375)">
			<title>Cercle.21</title>
			<v:userDefs>
				<v:ud v:nameU="visVersion" v:val="VT0(15):26"/>
			</v:userDefs>
			<path d="M0 99.11 A7.08661 7.08661 0 0 1 14.17 99.11 A7.08661 7.08661 0 1 1 0 99.11 Z" class="st2"/>
		</g>
		<g id="shape22-43" v:mID="22" v:groupContext="shape" transform="translate(18.375,-36.8002)">
			<title>Cercle.22</title>
			<v:userDefs>
				<v:ud v:nameU="visVersion" v:val="VT0(15):26"/>
			</v:userDefs>
			<path d="M0 99.11 A7.08661 7.08661 0 0 1 14.17 99.11 A7.08661 7.08661 0 1 1 0 99.11 Z" class="st1"/>
		</g>
		<g id="shape23-45" v:mID="23" v:groupContext="shape" transform="translate(18.375,-55.2254)">
			<title>Cercle.23</title>
			<v:userDefs>
				<v:ud v:nameU="visVersion" v:val="VT0(15):26"/>
			</v:userDefs>
			<path d="M0 99.11 A7.08661 7.08661 0 0 1 14.17 99.11 A7.08661 7.08661 0 1 1 0 99.11 Z" class="st2"/>
		</g>
		<g id="shape24-47" v:mID="24" v:groupContext="shape" transform="translate(18.375,-73.6506)">
			<title>Cercle.24</title>
			<v:userDefs>
				<v:ud v:nameU="visVersion" v:val="VT0(15):26"/>
			</v:userDefs>
			<path d="M0 99.11 A7.08661 7.08661 0 0 1 14.17 99.11 A7.08661 7.08661 0 1 1 0 99.11 Z" class="st2"/>
		</g>
	</g>
</svg>
