<?xml version="1.0" encoding="UTF-8" standalone="no"?>
<!DOCTYPE svg PUBLIC "-//W3C//DTD SVG 1.1//EN" "http://www.w3.org/Graphics/SVG/1.1/DTD/svg11.dtd">
<!-- Generated by Microsoft Visio, SVG Export timeline.svg Page-1 -->
<svg xmlns="http://www.w3.org/2000/svg" xmlns:xlink="http://www.w3.org/1999/xlink" xmlns:ev="http://www.w3.org/2001/xml-events"
		xmlns:v="http://schemas.microsoft.com/visio/2003/SVGExtensions/" width="6.47526in" height="3.16394in"
		viewBox="0 0 466.219 227.803" xml:space="preserve" color-interpolation-filters="sRGB" class="st8">
	<v:documentProperties v:langID="1036" v:metric="true" v:viewMarkup="false">
		<v:userDefs>
			<v:ud v:nameU="msvSubprocessMaster" v:prompt="" v:val="VT4(Rectangle)"/>
			<v:ud v:nameU="msvNoAutoConnect" v:val="VT0(1):26"/>
		</v:userDefs>
	</v:documentProperties>

	<style type="text/css">
	<![CDATA[
		.st1 {fill:#d8d8d8;stroke:none;stroke-linecap:butt;stroke-width:1}
		.st2 {fill:#ffffff;stroke:#000000;stroke-linecap:round;stroke-linejoin:round;stroke-width:0.75}
		.st3 {fill:none;stroke:none;stroke-linecap:round;stroke-linejoin:round;stroke-width:0.75}
		.st4 {fill:#000000;font-family:Calibri;font-size:1.00001em}
		.st5 {font-size:1em}
		.st6 {font-size:1em;font-weight:bold}
		.st7 {stroke:#000000;stroke-linecap:round;stroke-linejoin:round;stroke-width:0.237638}
		.st8 {fill:none;fill-rule:evenodd;font-size:12px;overflow:visible;stroke-linecap:square;stroke-miterlimit:3}
	]]>
	</style>

	<g v:mID="0" v:index="1" v:groupContext="foregroundPage">
		<v:userDefs>
			<v:ud v:nameU="msvThemeOrder" v:val="VT0(0):26"/>
		</v:userDefs>
		<title>Page 1</title>
		<v:pageProperties v:drawingScale="0.0393701" v:pageScale="0.0393701" v:drawingUnits="24" v:shadowOffsetX="8.50394"
				v:shadowOffsetY="-8.50394"/>
		<v:layer v:name="Lien" v:index="0"/>
		<g id="group15-1" transform="translate(70.0115,246.803) scale(1,-1)" v:mID="15" v:groupContext="group">
			<title>Fichier 3</title>
			<g id="shape16-2" v:mID="16" v:groupContext="shape">
				<title>Sheet.16</title>
				<path d="M48.22 199.3 C47.42 195.46 45.63 192.05 43.5 188.83 C39.2 182.34 34.83 175.92 30.47 169.46 C28.46 166.47
							 26.4 163.53 24.37 160.57 C22.33 163.53 20.27 166.47 18.27 169.44 C13.91 175.89 9.53 182.32 5.24 188.8
							 C3.1 192.03 1.3 195.45 0.51 199.3 A24.7764 24.7764 -180 0 0 0.32 208.32 A21.6278 21.6278 -180 0 0 4.7
							 218.36 A23.177 23.177 -180 0 0 18.11 227.01 A27.613 27.613 -180 0 0 24.36 227.8 A27.613 27.613 -180
							 0 0 30.61 227.01 A23.177 23.177 -180 0 0 44.03 218.36 A21.6278 21.6278 -180 0 0 48.41 208.3 A24.7764
							 24.7764 -180 0 0 48.22 199.3 Z" class="st1"/>
			</g>
		</g>
		<g id="shape2-4" v:mID="2" v:groupContext="shape" transform="translate(87.2884,-126.328)">
			<title>Cercle.2</title>
			<v:userDefs>
				<v:ud v:nameU="visVersion" v:val="VT0(15):26"/>
			</v:userDefs>
			<path d="M0 220.72 A7.08661 7.08661 0 0 1 14.17 220.72 A7.08661 7.08661 0 1 1 0 220.72 Z" class="st2"/>
		</g>
		<g id="shape6-6" v:mID="6" v:groupContext="shape" transform="translate(18.375,-70.8947)">
			<title>Sheet.6</title>
			<desc>Ken Thompson crée B</desc>
			<v:textBlock v:margins="rect(4,4,4,4)" v:tabSpace="42.5197"/>
			<v:textRect cx="76" cy="217.803" width="152" height="20"/>
			<rect x="0" y="207.803" width="152" height="20" class="st3"/>
			<text x="39.54" y="214.2" class="st4" v:langID="1033"><v:paragraph v:horizAlign="1"/><v:tabList/>Ken Thompson<v:newlineChar/><tspan
						x="60.68" dy="1.2em" class="st5">crée </tspan><tspan class="st6">B</tspan></text>		</g>
		<g id="shape8-11" v:mID="8" v:groupContext="shape" transform="translate(322.178,108.562) rotate(90)">
			<title>Sheet.8</title>
			<path d="M0 227.8 L20.19 227.8" class="st7"/>
		</g>
		<g id="shape9-14" v:mID="9" v:groupContext="shape" transform="translate(74.0915,-174.094)">
			<title>Sheet.9</title>
			<desc>1969</desc>
			<v:textBlock v:margins="rect(4,4,4,4)" v:tabSpace="42.5197"/>
			<v:textRect cx="20.2835" cy="217.803" width="40.57" height="20"/>
			<rect x="0" y="207.803" width="40.5669" height="20" class="st3"/>
			<text x="8.12" y="221.4" class="st4" v:langID="1033"><v:paragraph v:horizAlign="1"/><v:tabList/>1969</text>		</g>
		<g id="shape21-17" v:mID="21" v:groupContext="shape" transform="translate(101.462,-133.414)">
			<title>Sheet.21</title>
			<path d="M0 227.8 L294.21 227.8" class="st7"/>
		</g>
		<g id="group22-20" transform="translate(294.216,316.596) scale(1,-1)" v:mID="22" v:groupContext="group">
			<title>Sheet.22</title>
			<g id="group17-21" transform="translate(2.39808E-14,373.131) scale(1,-1)" v:mID="17" v:groupContext="group">
				<title>Fichier 3.17</title>
				<g id="shape18-22" v:mID="18" v:groupContext="shape">
					<title>Sheet.18</title>
					<path d="M48.22 199.3 C47.42 195.46 45.63 192.05 43.5 188.83 C39.2 182.34 34.83 175.92 30.47 169.46 C28.46 166.47
								 26.4 163.53 24.37 160.57 C22.33 163.53 20.27 166.47 18.27 169.44 C13.91 175.89 9.53 182.32 5.24
								 188.8 C3.1 192.03 1.3 195.45 0.51 199.3 A24.7764 24.7764 -180 0 0 0.32 208.32 A21.6278 21.6278 -180
								 0 0 4.7 218.36 A23.177 23.177 -180 0 0 18.11 227.01 A27.613 27.613 -180 0 0 24.36 227.8 A27.613
								 27.613 -180 0 0 30.61 227.01 A23.177 23.177 -180 0 0 44.03 218.36 A21.6278 21.6278 -180 0 0 48.41
								 208.3 A24.7764 24.7764 -180 0 0 48.22 199.3 Z" class="st1"/>
				</g>
			</g>
			<g id="shape20-24" v:mID="20" v:groupContext="shape" transform="translate(4.08002,-47.7666)">
				<title>Sheet.20</title>
				<desc>1985</desc>
				<v:textBlock v:margins="rect(4,4,4,4)" v:tabSpace="42.5197"/>
				<v:textRect cx="20.2835" cy="217.803" width="40.57" height="20"/>
				<rect x="0" y="207.803" width="40.5669" height="20" class="st3"/>
				<text x="8.12" y="-214.2" transform="scale(1,-1)" class="st4" v:langID="4108"><v:paragraph v:horizAlign="1"/><v:tabList/>1985</text>			</g>
			<g id="shape19-27" v:mID="19" v:groupContext="shape" transform="translate(17.2769,2.84217E-14)">
				<title>Cercle.19</title>
				<v:userDefs>
					<v:ud v:nameU="visVersion" v:val="VT0(15):26"/>
				</v:userDefs>
				<path d="M0 220.72 A7.08661 7.08661 0 0 1 14.17 220.72 A7.08661 7.08661 0 1 1 0 220.72 Z" class="st2"/>
			</g>
		</g>
		<g id="shape23-29" v:mID="23" v:groupContext="shape" transform="translate(266.406,260.977) scale(1,-1)">
			<title>Sheet.23</title>
			<desc>Bjarne Stroustrup crée C++</desc>
			<v:textBlock v:margins="rect(4,4,4,4)" v:tabSpace="42.5197"/>
			<v:textRect cx="52.1732" cy="217.803" width="104.35" height="20"/>
			<rect x="0" y="207.803" width="104.346" height="20" class="st3"/>
			<text x="9.09" y="-221.4" transform="scale(1,-1)" class="st4" v:langID="4108"><v:paragraph v:horizAlign="1"/><v:tabList/>Bjarne Stroustrup<v:newlineChar/><tspan
						x="31.06" dy="1.2em" class="st5">crée </tspan><tspan class="st6">C++</tspan></text>		</g>
		<g id="shape24-34" v:mID="24" v:groupContext="shape" transform="translate(546.383,85.6929) rotate(90) scale(-1,1)">
			<title>Sheet.24</title>
			<path d="M0 227.8 L20.19 227.8" class="st7"/>
		</g>
		<g id="group25-37" transform="translate(140.878,315.106) scale(1,-1)" v:mID="25" v:groupContext="group">
			<title>Sheet.25</title>
			<g id="group26-38" transform="translate(2.39808E-14,373.131) scale(1,-1)" v:mID="26" v:groupContext="group">
				<title>Fichier 3.17</title>
				<g id="shape27-39" v:mID="27" v:groupContext="shape">
					<title>Sheet.27</title>
					<path d="M48.22 199.3 C47.42 195.46 45.63 192.05 43.5 188.83 C39.2 182.34 34.83 175.92 30.47 169.46 C28.46 166.47
								 26.4 163.53 24.37 160.57 C22.33 163.53 20.27 166.47 18.27 169.44 C13.91 175.89 9.53 182.32 5.24
								 188.8 C3.1 192.03 1.3 195.45 0.51 199.3 A24.7764 24.7764 -180 0 0 0.32 208.32 A21.6278 21.6278 -180
								 0 0 4.7 218.36 A23.177 23.177 -180 0 0 18.11 227.01 A27.613 27.613 -180 0 0 24.36 227.8 A27.613
								 27.613 -180 0 0 30.61 227.01 A23.177 23.177 -180 0 0 44.03 218.36 A21.6278 21.6278 -180 0 0 48.41
								 208.3 A24.7764 24.7764 -180 0 0 48.22 199.3 Z" class="st1"/>
				</g>
			</g>
			<g id="shape28-41" v:mID="28" v:groupContext="shape" transform="translate(4.08002,-47.7666)">
				<title>Sheet.28</title>
				<desc>1972</desc>
				<v:textBlock v:margins="rect(4,4,4,4)" v:tabSpace="42.5197"/>
				<v:textRect cx="20.2835" cy="217.803" width="40.57" height="20"/>
				<rect x="0" y="207.803" width="40.5669" height="20" class="st3"/>
				<text x="8.12" y="-214.2" transform="scale(1,-1)" class="st4" v:langID="4108"><v:paragraph v:horizAlign="1"/><v:tabList/>1972</text>			</g>
			<g id="shape29-44" v:mID="29" v:groupContext="shape" transform="translate(17.2769,2.84217E-14)">
				<title>Cercle.19</title>
				<v:userDefs>
					<v:ud v:nameU="visVersion" v:val="VT0(15):26"/>
				</v:userDefs>
				<path d="M0 220.72 A7.08661 7.08661 0 0 1 14.17 220.72 A7.08661 7.08661 0 1 1 0 220.72 Z" class="st2"/>
			</g>
		</g>
		<g id="shape30-46" v:mID="30" v:groupContext="shape" transform="translate(113.068,254.426) scale(1,-1)">
			<title>Sheet.30</title>
			<desc>Dennis Richie crée C</desc>
			<v:textBlock v:margins="rect(4,4,4,4)" v:tabSpace="42.5197"/>
			<v:textRect cx="52.1732" cy="217.803" width="104.35" height="20"/>
			<rect x="0" y="207.803" width="104.346" height="20" class="st3"/>
			<text x="19.42" y="-221.4" transform="scale(1,-1)" class="st4" v:langID="4108"><v:paragraph v:horizAlign="1"/><v:tabList/>Dennis Richie<v:newlineChar/><tspan
						x="37.04" dy="1.2em" class="st5">crée </tspan><tspan class="st6">C</tspan></text>		</g>
		<g id="shape31-51" v:mID="31" v:groupContext="shape" transform="translate(393.045,79.1421) rotate(90) scale(-1,1)">
			<title>Sheet.31</title>
			<path d="M0 227.8 L20.19 227.8" class="st7"/>
		</g>
		<g id="group32-54" transform="translate(208.64,-126.328)" v:mID="32" v:groupContext="group">
			<title>Sheet.32</title>
			<g id="group33-55" transform="translate(2.39808E-14,373.131) scale(1,-1)" v:mID="33" v:groupContext="group">
				<title>Fichier 3.17</title>
				<g id="shape34-56" v:mID="34" v:groupContext="shape">
					<title>Sheet.34</title>
					<path d="M48.22 199.3 C47.42 195.46 45.63 192.05 43.5 188.83 C39.2 182.34 34.83 175.92 30.47 169.46 C28.46 166.47
								 26.4 163.53 24.37 160.57 C22.33 163.53 20.27 166.47 18.27 169.44 C13.91 175.89 9.53 182.32 5.24
								 188.8 C3.1 192.03 1.3 195.45 0.51 199.3 A24.7764 24.7764 -180 0 0 0.32 208.32 A21.6278 21.6278 -180
								 0 0 4.7 218.36 A23.177 23.177 -180 0 0 18.11 227.01 A27.613 27.613 -180 0 0 24.36 227.8 A27.613
								 27.613 -180 0 0 30.61 227.01 A23.177 23.177 -180 0 0 44.03 218.36 A21.6278 21.6278 -180 0 0 48.41
								 208.3 A24.7764 24.7764 -180 0 0 48.22 199.3 Z" class="st1"/>
				</g>
			</g>
			<g id="shape35-58" v:mID="35" v:groupContext="shape" transform="translate(4.08002,-47.7666)">
				<title>Sheet.35</title>
				<desc>1978</desc>
				<v:textBlock v:margins="rect(4,4,4,4)" v:tabSpace="42.5197"/>
				<v:textRect cx="20.2835" cy="217.803" width="40.57" height="20"/>
				<rect x="0" y="207.803" width="40.5669" height="20" class="st3"/>
				<text x="8.12" y="221.4" class="st4" v:langID="4108"><v:paragraph v:horizAlign="1"/><v:tabList/>1978</text>			</g>
			<g id="shape36-61" v:mID="36" v:groupContext="shape" transform="translate(17.2769,2.84217E-14)">
				<title>Cercle.19</title>
				<v:userDefs>
					<v:ud v:nameU="visVersion" v:val="VT0(15):26"/>
				</v:userDefs>
				<path d="M0 220.72 A7.08661 7.08661 0 0 1 14.17 220.72 A7.08661 7.08661 0 1 1 0 220.72 Z" class="st2"/>
			</g>
		</g>
		<g id="shape37-63" v:mID="37" v:groupContext="shape" transform="translate(194.027,-70.7086)">
			<title>Sheet.37</title>
			<desc>Le K&#38;R est publié</desc>
			<v:textBlock v:margins="rect(4,4,4,4)" v:tabSpace="42.5197"/>
			<v:textRect cx="38.9764" cy="217.803" width="77.96" height="20"/>
			<rect x="0" y="207.803" width="77.9528" height="20" class="st3"/>
			<text x="21.23" y="214.2" class="st4" v:langID="4108"><v:paragraph v:horizAlign="1"/><v:tabList/>Le <tspan class="st6">K&#38;R <v:newlineChar/></tspan><tspan
						x="15.08" dy="1.2em" class="st5">est publié</tspan></text>		</g>
		<g id="shape38-68" v:mID="38" v:groupContext="shape" transform="translate(461.168,107.489) rotate(90)">
			<title>Sheet.38</title>
			<path d="M0 227.8 L20.19 227.8" class="st7"/>
		</g>
		<g id="group39-71" transform="translate(371.307,-126.328)" v:mID="39" v:groupContext="group">
			<title>Sheet.39</title>
			<g id="group40-72" transform="translate(2.39808E-14,373.131) scale(1,-1)" v:mID="40" v:groupContext="group">
				<title>Fichier 3.17</title>
				<g id="shape41-73" v:mID="41" v:groupContext="shape">
					<title>Sheet.41</title>
					<path d="M48.22 199.3 C47.42 195.46 45.63 192.05 43.5 188.83 C39.2 182.34 34.83 175.92 30.47 169.46 C28.46 166.47
								 26.4 163.53 24.37 160.57 C22.33 163.53 20.27 166.47 18.27 169.44 C13.91 175.89 9.53 182.32 5.24
								 188.8 C3.1 192.03 1.3 195.45 0.51 199.3 A24.7764 24.7764 -180 0 0 0.32 208.32 A21.6278 21.6278 -180
								 0 0 4.7 218.36 A23.177 23.177 -180 0 0 18.11 227.01 A27.613 27.613 -180 0 0 24.36 227.8 A27.613
								 27.613 -180 0 0 30.61 227.01 A23.177 23.177 -180 0 0 44.03 218.36 A21.6278 21.6278 -180 0 0 48.41
								 208.3 A24.7764 24.7764 -180 0 0 48.22 199.3 Z" class="st1"/>
				</g>
			</g>
			<g id="shape42-75" v:mID="42" v:groupContext="shape" transform="translate(4.08002,-47.7666)">
				<title>Sheet.42</title>
				<desc>1990</desc>
				<v:textBlock v:margins="rect(4,4,4,4)" v:tabSpace="42.5197"/>
				<v:textRect cx="20.2835" cy="217.803" width="40.57" height="20"/>
				<rect x="0" y="207.803" width="40.5669" height="20" class="st3"/>
				<text x="8.12" y="221.4" class="st4" v:langID="4108"><v:paragraph v:horizAlign="1"/><v:tabList/>1990</text>			</g>
			<g id="shape43-78" v:mID="43" v:groupContext="shape" transform="translate(17.2769,2.84217E-14)">
				<title>Cercle.19</title>
				<v:userDefs>
					<v:ud v:nameU="visVersion" v:val="VT0(15):26"/>
				</v:userDefs>
				<path d="M0 220.72 A7.08661 7.08661 0 0 1 14.17 220.72 A7.08661 7.08661 0 1 1 0 220.72 Z" class="st2"/>
			</g>
		</g>
		<g id="shape44-80" v:mID="44" v:groupContext="shape" transform="translate(343.497,-18.375)">
			<title>Sheet.44</title>
			<desc>Le C devient un standard international sous la dénomination I...</desc>
			<v:textBlock v:margins="rect(4,4,4,4)" v:tabSpace="42.5197"/>
			<v:textRect cx="52.1732" cy="190.914" width="104.35" height="73.7795"/>
			<rect x="0" y="154.024" width="104.346" height="73.7795" class="st3"/>
			<text x="14.72" y="165.71" class="st4" v:langID="4108"><v:paragraph v:horizAlign="1"/><v:tabList/>Le C devient un <tspan
						x="30.52" dy="1.2em" class="st5">standard </tspan><tspan x="8.21" dy="1.2em" class="st5">international sous </tspan><tspan
						x="12.21" dy="1.2em" class="st5">la dénomination<v:newlineChar/></tspan><tspan x="6.06" dy="1.2em"
						class="st6">ISO/IEC 9899:1990</tspan></text>		</g>
		<g id="shape45-87" v:mID="45" v:groupContext="shape" transform="translate(623.474,108.562) rotate(90)">
			<title>Sheet.45</title>
			<path d="M0 227.8 L20.19 227.8" class="st7"/>
		</g>
	</g>
</svg>
